<?xml version="1.0" encoding="utf-8"?><svg xmlns="http://www.w3.org/2000/svg" xmlns:xlink="http://www.w3.org/1999/xlink"><symbol viewBox="0 0 16 13" id="email" xmlns="http://www.w3.org/2000/svg"><path d="M2.375 1h11a1.38 1.38 0 011.375 1.375v8.25A1.38 1.38 0 0113.375 12h-11A1.379 1.379 0 011 10.625v-8.25A1.38 1.38 0 012.375 1z"/><path d="M14.75 2.375L7.875 7.188 1 2.375"/></symbol><symbol viewBox="0 0 12 12" id="phone" xmlns="http://www.w3.org/2000/svg"><path d="M12 8.984v1.807a1.202 1.202 0 01-.82 1.146c-.16.053-.328.073-.496.058a11.955 11.955 0 01-5.207-1.848 11.754 11.754 0 01-3.62-3.613A11.902 11.902 0 01.005 1.313 1.202 1.202 0 011.205 0h1.81a1.208 1.208 0 011.207 1.036 7.72 7.72 0 00.423 1.692 1.202 1.202 0 01-.272 1.27l-.766.765a9.644 9.644 0 003.62 3.613l.766-.765a1.207 1.207 0 011.273-.27 7.76 7.76 0 001.696.42A1.208 1.208 0 0112 8.985z"/></symbol><symbol viewBox="0 0 17 17" id="user" xmlns="http://www.w3.org/2000/svg"><path d="M2.657 14.454c.031-1.958.641-3.74 1.726-5.029C5.462 8.143 6.923 7.437 8.5 7.437c1.576 0 3.038.706 4.117 1.988 1.084 1.288 1.693 3.067 1.725 5.023-.613.307-3.149 1.49-5.842 1.49-2.912 0-5.274-1.176-5.843-1.484zM8.5 6.906a2.922 2.922 0 110-5.844 2.922 2.922 0 010 5.844z"/></symbol></svg>