<svg width="86" height="83" fill="none" xmlns="http://www.w3.org/2000/svg"><path d="M12.301 36.71c-.139 4.016.678 8.004.863 12.021.185 4.017-.36 8.295-2.832 11.46-.95 1.212-2.184 2.284-2.63 3.762-.248.835-.214 1.722-.237 2.591a20.408 20.408 0 01-.498 3.97c-.243 1.056-.927 2.273-.857 3.322.127 1.884 2.01 3.965 3.452 4.99.347.244.73.476 1.152.517.313.029.62-.04.932-.081 1.587-.215 3.348.324 4.72-.499-.069-.719-.196-1.46-.596-2.064-.295-.44-.712-.782-1.048-1.194-1.877-2.307-1.64-6.66-.869-9.314.88-3.044 2.844-5.803 5.606-7.409 1.57-.91 3.325-1.472 4.848-2.463 3.718-2.423 5.473-7.477 4.06-11.686" fill="#B48B7B"/><path d="M84.167 2.672c-.255.244-.498.499-.735.754a10.155 10.155 0 001.928-.835c-2.774 1.554-4.06 3.681-4.824 6.684-.724 2.828-1.054 5.895-2.774 8.347a49.604 49.604 0 00-3.985-3.74c-.747-.625-1.592-1.263-2.565-1.269 1.396-1.941 2.826-3.883 4.633-5.454 1.593-1.385 3.26-2.058 5.218-2.724 1.564-.534 2.462-2.447 3.573-3.612a34.469 34.469 0 00-1.575 2.197 19.053 19.053 0 002.404-1.49c-.452.36-.88.742-1.298 1.142z" fill="#462717"/><path d="M71.663 13.361c.956-1.64 2.224-3.107 3.574-4.429.909-.898 5.374-5.425 5.554-1.767.08 1.727-.968 4-1.53 5.616-.619 1.797-1.349 3.56-2.258 5.229a.479.479 0 01-.411-.336" fill="#D1BAAB"/><path d="M72.885 12.903c.817-1.2 1.692-2.376 2.775-3.339 1.083-.962 2.391-1.715 3.822-1.947-.295.139-.597.272-.892.411.22.04.44.087.66.128a2.468 2.468 0 01-1.407.962c.278.046.562.099.84.145a4.819 4.819 0 01-1.454.65c.237-.041.487 0 .69.12a7.914 7.914 0 01-1.014.447l1.088.052a6.09 6.09 0 01-1.314.557c.347-.006.69-.006 1.037-.012l-1.13.592.834.017c-.098.15-.226.284-.37.388.208.018.416.07.608.157a6.27 6.27 0 01-1.205.452c.788.006 1.575.006 2.363.011-.342.105-.69.21-1.031.313-.046-.046.093-.08.099-.011.005.064-.07.104-.134.127-.278.099-.556.192-.834.29-.185.064-.394.157-.428.348-.018.11.029.22.023.33-.006.285-.342.464-.626.418-.278-.046-.503-.244-.718-.435-.214-.185-.446-.383-.724-.417" fill="#EAE6E4"/><path d="M53.745 1.85c.255.243.498.498.735.753a10.155 10.155 0 01-1.928-.835c2.774 1.553 4.06 3.68 4.824 6.683.724 2.83 1.054 5.895 2.774 8.347a49.585 49.585 0 013.985-3.738c.747-.626 1.592-1.264 2.565-1.27-1.395-1.942-2.826-3.883-4.633-5.454-1.593-1.386-3.26-2.058-5.218-2.725-1.564-.533-2.461-2.446-3.573-3.61a34.47 34.47 0 011.575 2.196 19.053 19.053 0 01-2.404-1.49c.452.365.88.742 1.298 1.142z" fill="#462717"/><path d="M66.249 12.543c-1.483-2.55-4.57-6.579-7.535-7.436-.238-.07-.487-.116-.73-.064-.405.087-.724.446-.81.852-.342 1.606.81 4.07 1.302 5.565.655 1.965 1.437 3.9 2.427 5.726a.479.479 0 00.411-.336" fill="#D1BAAB"/><path d="M40.91 27.07c-3.908-.441-7.783-1.241-11.715-1.357-3.933-.116-8.021.51-11.305 2.672-2.525 1.664-4.153 4.214-5.664 6.759-.174.29-.354.603-.325.945.03.336.371.66.684.539-.365.748-.649 1.53-.846 2.336l.342.156a1.29 1.29 0 00.081 1.137 4.28 4.28 0 00-.37 2.046c.19.376.243.829.144 1.24l.487-.66c.092 1.559-.081 3.303.683 4.677.718 1.293 1.402 2.539 2.346 3.692a19.504 19.504 0 006.706 5.252c3.516 1.67 7.425 2.313 11.305 2.597.678.046 1.32.064 1.998.162l.017.702c.284-.087.556-.232.782-.43-.092.186-.127.4-.104.604.14-.093.365 0 .4.162l.417-.673c-.081.041.058.128.145.11.608-.15 1.221-.3 1.83-.452l.324.592c.191-.11.376-.22.568-.33a4.78 4.78 0 003.718-.748l.18.469c.37-.25.74-.498 1.111-.742.128.18.25.365.377.545.295-.186.596-.371.891-.556.006.249.302.4.545.359.243-.047.434-.226.614-.394a.866.866 0 00.388.48 2.01 2.01 0 01.793-.451c.035.18.075.365.11.544a.802.802 0 00.458-.353c.226.214.388.493.463.794-.382-1.466 10.726-3.252 11.733-3.472 1.42-.307 2.827-.765 4.251-1.014.916-.157 1.518-.122 2.248-.777 1.841-1.652 2.299-4.736 2.803-7.02a66.813 66.813 0 013.266-10.573c1.517-3.773 4.488-9.628 1.054-13.18-1.645-1.705-3.8-2.174-5.925-3.027a58.765 58.765 0 01-7.048-3.39c-.4-.227-.822-.464-1.28-.43-.683.047-1.17.661-1.552 1.23-1.546 2.318-2.896 4.816-4.882 6.77-3.7 3.646-8.508 2.997-13.245 2.457z" fill="#D1BAAB"/><path d="M75.544 35.4c-.133-.146-.267-.29-.4-.441a7.443 7.443 0 01-.625 1.918c-.36.279-.66.644-.858 1.055a8.314 8.314 0 00-1.401 1.954c-.556-.383-1.118-.766-1.674-1.148l-.451.91a.608.608 0 00-.533-.302l-.018.76a3.442 3.442 0 01-.874-.788c-.047.382-.093.765-.133 1.142-.707-.499-1.408-.998-2.114-1.496-.365-.168-.736-.342-1.1-.51l-1.049-1.264c.04.22.081.44.128.661a8.497 8.497 0 01-1.031-2.127c.19.006.11.353-.081.36-.192 0-.325-.18-.423-.343l-.95-1.56c.232.105-.238.349-.37.128-.134-.22-.134-.568-.377-.637.052.336-.035.695-.243.968a2.36 2.36 0 01-.996-.713c.005.191.011.388.011.585-.243-.365-.48-.73-.724-1.095l.035.84c-.162-.4-.319-.8-.48-1.2-.169.423-.337.84-.505 1.264l-1.094-1.936c-.076-.133-.197-.284-.342-.243-.122.034-.023.19.029.226.22-.598-.122-1.357-.626-1.774-.248-.203-.416-.65-.133-.806-.208-.023-.41-.04-.62-.064a1.815 1.815 0 01.875-1.414 3.122 3.122 0 01-1.616.099l1.489-1.502a7.135 7.135 0 01-1.53-.122c.122-.4.343-.77.626-1.078-.452.047-.741-.66-.382-.945a2.795 2.795 0 01-1.373-.875l1.94-1.037c-.22-.012-.33-.302-.254-.505.075-.203.272-.342.452-.463 1.065-.708 2.13-1.415 3.202-2.11a1.005 1.005 0 00-.66.214c.388-.47.805-.916 1.257-1.327.092 1.037.237 2.075.417 3.101.133.73.666.974 1.222 1.38.654.48 1.58.156 2.374.318 1.106.232 1.894 1.403 3.023 1.438.354.011.701-.093 1.054-.11.464-.024.921.098 1.367.22 1.778.493 6.168.794 6.985 2.655.944 2.121.237 5.657-.446 7.738z" fill="#B48B7B"/><path d="M78.781 23.006c.116-.492.301-1.27.232-1.252.145-.04.29-.081.434-.127-.093-.168-.191-.337-.284-.505.203.023.412-.011.591-.098a2.004 2.004 0 01-.573-.84c.197.022.405.005.596-.047a3.716 3.716 0 01-.631-.864 1.44 1.44 0 01.707-.18c-.105-.214-.215-.428-.319-.643a.297.297 0 01.255-.087c.023-.122-.133-.191-.243-.25-.11-.063-.14-.283-.012-.266l-.533-.498c.215-.047.429-.093.637-.14-.758-.596-1.57-1.2-2.432-1.64-.684-.353-1.471-.707-1.987-1.304-.104-.116-.19-.25-.295-.365-.243-.267-.568-.447-.84-.678-.712-.615-1.726-1.681-2.062-2.58-.162.047-.04.418-.214.418-.052 0-.087-.047-.121-.087l-.261-.348a2.443 2.443 0 01-.405.649 3.245 3.245 0 01-.313-.429c-.052.244-.325.388-.573.365-.25-.023-.464-.168-.655-.324-.04.18-.087.36-.127.539l-.377-.423c-.035-.041-.08-.082-.133-.076-.139.023-.029.307-.162.36-.064.023-.128-.03-.185-.07-.174-.116-.406-.081-.614-.081-.209 0-.458-.081-.51-.284l-.035.498a2.14 2.14 0 00-.411-.643c-.006.22 0 .44-.017.667-.11-.157-.336-.232-.446-.348-.272.974-.423.98-1.21 1.53-.829.591-1.495 1.385-2.364 1.954-1.06.69-2.044 1.414-3.08 2.121-.43.296-.84.69-.945 1.2l.84-.04a3.681 3.681 0 01-.446.388 1.03 1.03 0 01-.382.527c.11.081.255.116.388.093l-.209.296c.105.075.232.133.36.162-.325.11-.44.521-.417.863.023.343.121.696.029 1.026-.024.076-.053.151-.03.227.024.075.128.121.18.063a1.42 1.42 0 00-.064.644c.133-.07.267-.14.406-.209-.087.25-.105.527-.052.788-.03-.058.07-.104.115-.063.047.04.053.11.058.168.081 3.431 4.078 6.092 7.13 6.62 1.245.214 2.525.214 3.782.057 2.067-.26 4.175-.968 5.802-2.3.77-.633 1.425-1.41 1.854-2.308.22-.464.376-.95.475-1.455.017-.029.052-.18.098-.37z" fill="#D1BAAB"/><path d="M69.758 24.641a5.044 5.044 0 012.363-.498l-.487.197a.65.65 0 00.429.075c-.052.046-.099.099-.15.145.393.156.822.226 1.25.191a1.093 1.093 0 01-.417.394l1.066.14a2.684 2.684 0 01-.596.243c.063.081-.064.174-.163.197a8.858 8.858 0 01-3.197.185c-.306-.04-.63-.092-.932-.011-.209.058-.394.18-.59.26-1.06.43-2.242-.307-3.383-.22.046-.08.162-.08.25-.121.086-.035.115-.203.022-.197.14.005.203-.22.087-.29a1.03 1.03 0 00.695-.342l.614-.018a4.57 4.57 0 01-.191-.162c.492-.058.979-.15 1.454-.278a8.293 8.293 0 01-.232-.255c.504.127 1.002.255 1.506.377m3.608-4.69c-.099-.052-.197-.122-.313-.139-.116-.012-.231.03-.342.064a1.95 1.95 0 01-1.32-.064l.278-1.101c.064-.244.127-.505.301-.69.145-.157.348-.238.521-.36.261-.19.44-.475.695-.672.4-.313.927-.382 1.43-.44-.075.04-.15.08-.22.121.771-.04 1.773.058 2.445.47.359.22 1.233 1.229 1.158 1.68-.098.557-2.357.876-2.757.697-.104.318-.41.318-.712.307-.116.458-.846.307-1.164.127zm-7.071 0c.098-.052.197-.122.312-.139.116-.012.232.03.342.064.429.133.91.11 1.32-.064l-.278-1.101c-.063-.244-.127-.505-.306-.69-.145-.157-.348-.238-.522-.36-.26-.19-.44-.475-.695-.672-.4-.313-.926-.382-1.43-.44.075.04.145.08.22.121-.77-.04-1.772.058-2.444.47-.36.22-1.234 1.229-1.158 1.68.098.557 2.357.876 2.756.697.105.318.412.318.713.307.121.458.851.307 1.17.127z" fill="#FEEBE0"/><path d="M16.975 29.284c-2.276 1.472-5.496.736-7.42-1.177-1.916-1.912-2.71-4.712-2.825-7.42-.03-.706-.03-1.448-.377-2.069-.81-1.46-3.162-1.298-4.285-.069C.938 19.784.753 21.592.776 23.262c.012.724.052 1.454.156 2.173.504 3.397 2.537 6.521 5.38 8.446 2.85 1.918 6.458 2.631 9.84 2.034.22-.04.464-.36.244-.405m52.806 9.07l.683 2.25c.296.98.597 1.97.62 2.996.023.882-.162 1.75-.342 2.609-.532 2.521-.845 5.234-1.766 7.64-.793 2.069-1.291 4.567-1.483 6.787a41.074 41.074 0 00-.07 6.539c.036.498.088 1.014.354 1.437.805 1.276 2.954.922 3.898 2.099.828 1.031.15 2.695-1.002 3.35-1.153.655-2.56.591-3.886.51-1.825-.116-3.77.655-5.097-1.043-.752-.963-.99-2.226-1.083-3.443a21.863 21.863 0 01-.04-2.54c.052-1.164.19-2.324.272-3.483a34.53 34.53 0 00-.77-10.028 33.261 33.261 0 00-1.506-4.863c-.58-1.467-.458-2.858-.423-4.458" fill="#D1BAAB"/><path d="M69.248 53.809c.012-.156-.214-.232-.341-.15-.133.08-.18.243-.22.394-.145.539-.296 1.072-.44 1.61a2.201 2.201 0 00-.974 1.908c-.133-.128-.266-.26-.405-.388a7.094 7.094 0 01-.527 2.637l-.243 1.484c-.272-.058-.55-.11-.823-.168.22.353.44.707.666 1.066a3.095 3.095 0 01-1.285-.359c-.006.255.087.527.185.76-.99.48-2.403 2.979-2.114 4.051.22.806 1.106 1.443.944 2.26-.237-.01-.48-.028-.718-.04a8.484 8.484 0 001.668 1.71c-.59.012-1.181.03-1.772.04.237.349.544.65.903.876a3.766 3.766 0 00-1.152.25c.156.41.353.81.579 1.188-.475-.093-.88.417-.92.904-.041.48.155.95.225 1.431.035.22.04.441.116.65.11.295.353.521.573.747a10.22 10.22 0 012.23 3.444c-.62-.238-1.072.904-1.726.788-.405-.07-.596-.591-.996-.684-.267-.064-.568.087-.817-.03-.133-.063-.22-.19-.3-.318-1.263-2.064-1.339-4.631-1.182-7.049.098-1.535.284-3.072.255-4.608-.03-1.402-.36-2.747-.14-4.15l.533-3.426c.163-1.043.307-2.19-.243-3.095.22.035.423.185.527.383a3.542 3.542 0 01-.046-1.652c.19.133.382.266.579.4-.087-.348.62-.453.637-.093-.07-.371.48-.667.753-.406.174-.365.347-.73.515-1.09l.782.4.035-.527c.22.232.434.47.654.701a2.371 2.371 0 01-.04-1.287c.33.11.637.29.892.528l.052-.632c.203.052.394.156.538.307.03-.156.058-.307.081-.464a4.116 4.116 0 001.83-3.014c.145.348.29.702.44 1.05.18-1.015.696-2.024 1.472-2.713-.232 1.443-1.24 2.84-1.24 4.376z" fill="#B48B7B"/><path d="M66.63 38.663c-1.18-.365-2.518-1.432-3.347-1.884l.348.626c-.707-.522-1.407-1.043-2.114-1.565a3.22 3.22 0 00.759 1.443h-.458c.284.279.475.65.521 1.044l-.73-.018a7.84 7.84 0 001.292 1.838 6.567 6.567 0 01-2.282.162l2.311 1.86-1.291.215c.405.29.723.69.915 1.154-.174.104-.348.208-.522.319.429.33.886.968.487 1.339.486.29.95.614 1.378.985-.29 0-.475.336-.446.626.023.29.191.545.301.811.302.725.238 1.397-.561 1.623.851.876 1.587 1.768 1.888 2.997.202.823.446 1.484.706 2.29l-.11-.371.823.435c.052.029.11.058.167.052.122-.012.18-.157.209-.273.133-.521.266-1.043.405-1.565.064-.243.255-.556.481-.446a1.88 1.88 0 01.203-.887c.046-.093.116-.191.214-.209.093-.017.185.035.278.041.26.017.388-.307.406-.568.017-.26.034-.574.266-.69.093-.046.208-.046.295-.098.128-.07.186-.226.226-.371.36-1.287 1.106-3.16.95-4.481.18-.458.735-.73 1.204-.591-.133-.516-.179-1.223.313-1.415.11-.046.244-.052.336-.127.162-.133.128-.383.104-.591a2.684 2.684 0 01.614-2.018c-.07-.139-.144-.278-.214-.411.342-.122.25-.62.18-.974-.07-.353.208-.887.503-.672a1.697 1.697 0 00-1.355-.053c.26-.034.516-.07.776-.098-.573.075-2.154.319-2.403-.232-.736.302-.99-.597-1.657-.435-.474.116-.434.76-.752 1.026-.423.348-.996.348-1.616.157z" fill="#FEEBE0"/><path d="M62.826 45.6c.434 1.885 1.442 4.064 1.303 5.989-.162 2.26-.985 4.567-2.103 6.52-1.552 2.713-2.519 6.452-3.005 9.56a42.563 42.563 0 00-.51 5.558c-.029 1.229-.017 3.16 1.199 3.901.463.284 1.03.348 1.535.545.643.255 1.523.875 1.523 1.611 0 .812-.828 1.664-1.5 1.988-1.193.574-2.595.412-3.91.244-1.812-.238-3.81.394-5.009-1.391-.683-1.015-.834-2.29-.846-3.507-.011-.846.041-1.693.134-2.539.133-1.16.353-2.307.51-3.46.463-3.333.434-6.73-.082-10.057a32.947 32.947 0 00-1.17-4.956c-.475-1.502-.26-2.887-.116-4.475M31.57 44.732c2.987 3.118 5.06 4.573 4.922 9.425-.104 3.744-1.685 7.263-2.653 10.886-.463 1.721-.776 3.5-.776 5.286 0 1.71.4 3.339.782 4.99.064.273.127.552.232.807.18.44.48.823.776 1.2.208.266.423.533.7.718.377.255.939.29 1.367.435.585.191 1.193.284 1.726.62.736.464.811 1.519.585 2.36-.353 1.333-1.529 1.234-2.681 1.193-2.78-.092-6.99-.139-8.589-2.828-1.558-2.614-2.212-5.57-4.193-8.197-.423-.562-.869-1.13-1.054-1.802-.278-1.026.087-2.104.284-3.148 1.256-6.677-5.792-9.506-8.218-14.88-1.929-4.266-1.726-11.256 1.488-14.844" fill="#D1BAAB"/><path d="M14.832 42.94c.185.436.122.928.191 1.392.14.956.81 1.745 1.448 2.47-.232.04-.342.336-.272.562.07.226.254.388.434.544.55.47 1.095.94 1.645 1.409-.487.214-.498.939-.214 1.391.283.452.753.76 1.06 1.2.387.55.474 1.246.608 1.907.33 1.67.984 3.27 1.916 4.695.446.678.962 1.345 1.13 2.14.214 1.02-.185 2.069-.15 3.112.046 1.582-.186 5.09.503 6.469.284.568.99.98.938 1.617-.023.29-.208.55-.197.835.035.73 1.205.921 1.344 1.634.058.308-.087.673.098.922.145.197.435.226.614.388.458.412-.04 1.252.307 1.768.302.452 1.141.447 1.245.986.041.226-.08.452-.063.678.063 1.06 1.894 1.803 2.542 2.359-.741-.638-1.036-1.64-1.291-2.585l-.209-.765c-.087-.33-.18-.667-.18-1.009 0-.574.25-1.194-.046-1.687-.162-.272-.457-.429-.718-.614a3.365 3.365 0 01-1.25-1.733c-.11-.36-.163-.737-.33-1.073-.163-.336-.476-.637-.852-.637-.197-1.374.011-2.713-.18-4.075-.214-1.536-.08-3.2.487-4.655.087-.22.174-.458.145-.69-.041-.353-.319-.632-.458-.962-.232-.55-.012-1.252.492-1.565a.7.7 0 01-.683-.568.712.712 0 01.457-.765c-.278-.081-.579-.18-.724-.43-.144-.248.03-.666.313-.608-.336-.36-.683-.73-.834-1.2-.15-.47-.029-1.06.394-1.304-.596-.04-.69-.88-.596-1.478.156-1.014.312-2.029.474-3.043-.422-.806-1.517-1.17-2.345-.788-.07-.366-.133-.73-.203-1.096-.162.052-.324.104-.486.162.278-.15.116-.574-.081-.823-.412-.527-.817-1.055-1.228-1.582-.36.313-.875.44-1.344.336a1.59 1.59 0 01.244-.446c.086-.58-.597-.94-1.159-1.096-.562-.156-1.256-.458-1.233-1.043.005-.122.04-.238.023-.36-.052-.33-.458-.44-.788-.48 1.552-.917-1.743-2-2.38-1.971-.046.933 1.106 1.368 1.442 2.156z" fill="#B48B7B"/><path d="M64.077 17.204a.991.991 0 00-.319-.017c-.29.029-.608.081-.874.203a.975.975 0 00-.284.203c-.081.075-.214.353-.278.388a.658.658 0 01.562.012c.283.15.41.562.642.794.261.267.574.487.916.626.486.203 1.03.272 1.517.098.226-.08.336-.139.59-.034.024.011.557.301.545.232-.087-.684-.44-1.322-.898-1.838a1.107 1.107 0 00-.695-.354c-.48-.052-.944-.214-1.424-.313z" fill="#573627"/><path d="M66.057 18.166c.076.122.04.284.023.417a1.042 1.042 0 01-.671.835c-.487.168-1.072-.07-1.332-.516a1.123 1.123 0 01-.134-.794c.047-.226.157-.452.348-.597.214-.162.562.035.782.128.139.058.284.121.423.18.18.075.428.162.55.33 0 .005.005.011.011.017z" fill="#FED85D"/><path d="M65.24 18.218c.035.394-.034.858-.144.997-.11.134-.25-.058-.307-.411a2.9 2.9 0 01-.029-.638c.058-.95.405-.736.48.052z" fill="#573627"/><path d="M71.195 22.525c-.012.342-.047.73-.307.956-.157.14-.371.197-.528.33-.156.14-.237.337-.359.505a1.18 1.18 0 01-1.43.342c-.394-.197-.643-.603-.996-.864-.076-.058-.162-.11-.226-.18a.832.832 0 01-.156-.3c-.284-.87-.035-1.815.011-2.73.226.324.232.747.226 1.141 0 .25-.006.498-.006.748 0 .162 0 .342.099.475.237.319.84.15 1.036.493.047.08.064.174.099.255.093.185.295.29.48.377.053.023.11.046.163.04.098-.017.144-.133.18-.226.069-.214.132-.435.202-.65a.32.32 0 01.058-.127c.075-.092.208-.098.324-.08.116.017.238.057.348.034.237-.058.324-.348.359-.591.04-.261.087-.522.127-.783 0-.26.046-.527.052-.788a.19.19 0 01.023-.099c.04-.046.122-.029.162.018.041.046.047.116.047.174.052.51.011 1.008.011 1.53z" fill="#4B100D"/><path d="M67.615 23.476c.475.562 1.32.649 1.975.394.33-.128.614-.354.932-.504.69-.325.55-.899-.086-1.12a4.908 4.908 0 00-2.473-.167.833.833 0 00-.388.145c-.435.33-.261.887.04 1.252z" fill="#4B100D"/><path d="M70.001 22.392c-.162-.035-.336-.046-.486-.058-.029 0-.058-.006-.087.006-.052.023-.064.087-.075.145-.04.214-.099.423-.168.631a.139.139 0 01-.035.064c-.017.018-.052.023-.07.006-.011-.012-.011-.029-.017-.046a2.56 2.56 0 01.012-.632c.011-.081.017-.18-.052-.215-.03-.011-.064-.011-.093-.011-.203.011-.417.064-.62.07-.139 0-.272-.006-.41.034-.267.07-.476.25-.464.54.006.202.168.469.382.503.214.035.4-.272.626-.144.121.07.144.237.127.382-.029.296-.174.446.093.66a.754.754 0 00.59.169s.458-.191.498-.296c.087-.208-.15-.388-.104-.597.023-.127.168-.191.296-.191.127 0 .254.04.382.052.353.018.492-.33.341-.626-.127-.272-.388-.388-.666-.446z" fill="#C85653"/><path d="M63.677 30.976c-.04.25-.07.505-.099.76a2.842 2.842 0 01-.787-1.704c.04.249.075.504.116.753-.023-.591-.052-1.177-.076-1.768-.005-.15-1.407-1.298-1.587-1.611-.52-.881-.393-1.444-.196-2.406.11.655.37 1.287.747 1.838-.018-.261-.03-.522-.047-.783a9.357 9.357 0 001.581 1.733l-.243-.55c.162.33.406.626.707.84-.14 0-.116-.25.017-.284.238-.075.47.25.608.389.18.173.36.29.58.417.075.04.19.07.22-.012.017-.052.005-.145.057-.127.168.18.348.353.539.516.046.04.11.087.174.07.092-.03.087-.157.063-.25.076.064.163.122.25.168l.017-.388c.22.226.504.185.724.44.11-.104.22-.203.336-.307.15.156.295.37.475.498.023.018.475.267.44.076.017.11.04.214.058.324-.018-.156.127-.307.283-.318.157-.012.313.098.377.243.07-.052.11-.15.087-.238-.035.099.092.197.197.18.104-.017.18-.11.243-.197.064-.087.127-.18.226-.22.174.133.469.04.533-.168.017.174.243.26.41.203.169-.058.279-.21.377-.354.191.278.62.301.921.133.295-.162.498-.458.678-.747.092.08.19.15.3.202.117-.145.25-.278.4-.394a.42.42 0 00.429-.116l.017.168a6.3 6.3 0 00.886-.782c-.046.162-.086.325-.133.487.55-.423 1.1-.22 1.662-.58-.087.817-.4 1.588-.712 2.348-.33.794-.654 1.588-.984 2.382a.903.903 0 00-.14-.458c-.312.4-.544.881-.764 1.35.62-1.53-.539-.973-1.124-.324-.144.162-1.945 3.206-2.27 2.203.093.238-.214.48-.463.429-.255-.052-.434-.267-.59-.47-.059.313-.47.412-.783.348-.312-.064-.63-.209-.932-.122-.104.03-.203.093-.313.11-.243.041-.469-.121-.66-.284-1.037-.892-1.02-1.524-1.546-2.637-.383 1.588-1.379-.458-1.286-1.009z" fill="#FEEBE0"/><path d="M66.266 26.154a7.499 7.499 0 01-.62-.145c.597.313 1.257.412 1.9.574.521.127 1.193.174 1.604-.238.023-.023.052-.052.087-.058.04-.005.075.018.11.04.388.262.88.366 1.344.285.318-.058.648-.203.955-.307.353-.116.626-.406.99-.493-.915.278-2.073.475-2.994.156-.312-.11-.417-.278-.735-.162-.255.093-.452.319-.718.389-.574.15-1.286.087-1.923-.041zm-4.848-4.934a.69.69 0 01.076.239c-.018-.296-.04-.592-.058-.887l.145.232c-.145-.771-.012-1.774.51-2.394.335-.406 1.03-1.09 1.569-1.177-.539.081-1.477.26-1.83.707-.4.504-.597 1.177-.66 1.814a3.19 3.19 0 00.028.94c.03.156.145.353.22.527z" fill="#573627"/><path d="M66.434 18.421c-.18-.064-.278-.255-.417-.388-.18-.157-.429-.209-.66-.255-.33-.064-.65-.145-.974-.215-.162-.035-.886-.255-1.013-.168.295-.197.66-.168.973-.07.37.116.736.244 1.089.406.22.105.44.22.643.354.214.145.29.266.41.48m7.75-1.39c.11-.005.214 0 .324.012.29.029.608.081.875.203.11.052.191.116.284.203.08.075.214.353.278.388a.658.658 0 00-.562.012c-.284.15-.411.562-.643.794-.26.267-.573.487-.915.626-.487.203-1.03.272-1.517.098-.226-.08-.336-.139-.591-.034-.023.011-.556.301-.545.232.041-.325.122-.679.273-.968.133-.261.318-.632.504-.853.168-.208.44-.295.7-.365.475-.145 1.014-.33 1.535-.348z" fill="#573627"/><path d="M72.254 18.166c-.075.122-.04.284-.023.417.052.371.313.713.672.835.486.168 1.071-.07 1.332-.516.139-.238.191-.527.133-.794-.046-.226-.156-.452-.347-.597-.215-.162-.562.035-.782.128-.14.058-.284.121-.423.18-.18.075-.429.162-.55.33 0 .005-.006.011-.012.017z" fill="#FED85D"/><path d="M73.07 18.218c-.034.394.036.858.146.997.11.134.249-.058.306-.411.03-.192.047-.423.03-.638-.059-.95-.406-.736-.481.052zm3.823 3.002a.69.69 0 00-.075.239c.017-.296.04-.592.058-.887l-.145.232c.145-.771.012-1.774-.51-2.394-.336-.406-1.03-1.09-1.57-1.177.54.081 1.478.26 1.83.707.4.504.597 1.177.661 1.814a3.19 3.19 0 01-.029.94c-.029.156-.145.353-.22.527z" fill="#573627"/><path d="M71.652 18.99c.4-.47.527-1.01 1.199-1.16a44.23 44.23 0 012.09-.429c-.642-.429-1.87.093-2.507.33-.18.07-.382.157-.452.337m2.994 2.208a.887.887 0 01-.237.29.461.461 0 00-.342-.232c.058.122-.139.197-.278.186-.133-.006-.33.07-.266.19a.519.519 0 01-.301-.098.868.868 0 01-.765.337c-.07.202-.133.4-.197.602.104-.058.209-.116.307-.173.052.075.099.15.15.226.076-.169.18-.33.313-.458.064.139.261.139.4.075.139-.058.272-.157.423-.145.052.006.11.023.162 0 .052-.023.081-.075.127-.104.081-.053.18-.018.273-.006.272.04 1.442-.07 1.488-.168-.25-.104-1.083-.307-1.257-.522zm-9.585.806a6.03 6.03 0 01-.845-.522c-.284.047-.568-.023-.852-.07-.283-.046-.585-.069-.84.047-.26.116-.451.423-.353.696.099-.07.197-.14.319-.151.116-.012.249.07.255.185.063-.046.173-.005.185.07.29-.133.602-.22.915-.26a.35.35 0 01.174.01c.058.03.092.082.145.11.115.065.254 0 .388.007.318.011.503.347.828.359.133-.325-.081-.36-.319-.481zm7.79 1.379c.365.052.568-.417.95-.243.052.023.104.058.156.046.03-.006.052-.029.075-.046a.56.56 0 01.562-.064c.052.023.104.058.162.064 0 0 .504-.313.481-.093a.817.817 0 00.006-.116c-.046.04.035.116.093.093.052-.03.069-.099.069-.162 0-.064-.006-.128.029-.18l.087.139a.276.276 0 01-.156-.296c-.041.018-.082.041-.116.058.011-.052-.035-.098-.081-.116-.047-.017-.105-.005-.151.006l-.376.07c.028-.035-.012-.093-.058-.105-.047-.005-.093.018-.134.041-.18.104-.33.191-.532.22-.012-.029-.052-.174-.03-.197l-.324.325c-.08-.105-.249-.11-.37-.047-.122.064-.203.18-.278.29.04-.058.075-.116.115-.174-.173.012-.405.07-.41.25 0 .121.115.22.231.237zm-9.301-.626c-.064.018-.122.035-.186.035-.08 0-.156-.017-.237-.017-.266.011-.463.348-.336.585.203.099.44.053.66.006l.26-.058c.204-.046.453-.15.441-.354.023.337.608.151.782.128a.642.642 0 00-.162-.278.242.242 0 00-.145.127c-.075-.087-.15-.168-.226-.255.081.087-.318.035-.295.035-.006 0-.14-.052-.168-.058-.058-.012-.191.03-.255.035-.145.012-.209-.04-.353.023-.07.03-.052.168-.116.186-.104.029-.197-.116-.295-.07-.047.023-.064.081-.116.087-.03 0-.053-.017-.081-.017-.087-.006-.093.127-.157.19-.035.036-.087.041-.133.065-.046.023-.081.075-.058.116l-.127-.018c.052.04.063.11.08.174.018.064.041.133.1.162.057.03.15-.029.127-.087.029.082.063.168.092.25a.29.29 0 00.093-.232c.04.046.07.098.093.15a.417.417 0 01.324-.313c.012-.052.017-.098.029-.15m3.203-6.139l-.151.151c.168.116.307.267.411.44-.116.006-.226.006-.341.012.133.197.278.383.44.55-.064.012-.128.018-.186.03.157.243.319.48.475.724a2.779 2.779 0 01-1.303-1.605c-.011-.04-.023-.087 0-.128.017-.035.058-.046.087-.07.11-.086.064-.29-.07-.318.093-.012.18-.018.273-.023-.157-.33-.243-.412-.226-.795.388-.231.475.43.753.615-.626-.186-.25.498-.162.417zm3.167-.017c-.092-.098-.179-.197-.272-.296.26-.115.325-.515.116-.707a.785.785 0 01.325-.4c-.047-.336-.533-.516-.782-.284l.04.279c-.04.04-.08.08-.116.121.099.105.197.209.302.313a.283.283 0 00-.18.064.838.838 0 01.214.215c-.063.023-.133.029-.203.023.024.145-.075.284-.127.423-.052.139-.029.342.116.37a.308.308 0 01-.226.105c.11.168.22.336.33.51-.243.215.076.876.157 1.125 0-.534.475-1.455.08-1.704.006-.018.21-.174.226-.157z" fill="#573627"/><path d="M65.026 12.08c-.816-1.2-1.69-2.377-2.774-3.339-1.083-.962-2.392-1.716-3.822-1.947.301.139.596.272.892.411-.22.04-.44.087-.66.128.336.475.845.823 1.413.962-.278.046-.562.098-.84.145a4.82 4.82 0 001.454.649 1.02 1.02 0 00-.69.122c.325.174.666.319 1.014.446l-1.089.052c.417.238.857.423 1.315.557-.348-.006-.69-.006-1.037-.012l1.13.591-.835.018c.099.15.226.284.371.388-.208.018-.417.07-.608.157.388.19.788.342 1.205.452-.788.006-1.576.006-2.363.011.341.105.689.209 1.03.313.047-.046-.092-.075-.092-.011-.006.063.07.104.133.127.278.099.556.191.834.29.185.064.394.157.429.348.017.11-.03.22-.023.33.005.284.341.464.625.418.278-.047.504-.244.718-.435.214-.186.446-.383.724-.417" fill="#EAE6E4"/><path d="M74.901 14.254c.197.232.417.446.649.643-.012.052-.04-.07.011-.046.052.023.064.092.11.121.22.128.446.255.666.383-.052-.064-.098-.133-.15-.197.29.26.602.504.932.713-.04-.226.313-.302.504-.186.197.116.359.325.585.33l-.209-.318.261.191a3.422 3.422 0 01-.8-.643c.059.064.117.133.175.197a6.416 6.416 0 01-1.28-.945l.3-.104a4.485 4.485 0 01-1.569-.18l1.141-.197c-.197-.058-.388-.116-.585-.168a.77.77 0 01.394-.087 4.167 4.167 0 01-1.089-.336l.278-.14c-.324-.144-.642-.283-.967-.428a.692.692 0 00.191-.377l-1.222-.435.157-.33c-1.17-.435-.522.724.04 1.095.533.348.95.87 1.176 1.461.046-.07.098-.133.145-.203.214.273.498.481.718.754a.235.235 0 01-.214-.093c.133.296.278.609.532.817.284.232.672.308.973.516l-.116-.098.608.33c-.04-.064-.075-.133-.115-.197l.608.226a1.417 1.417 0 01-.047-.099c.296.093.614.128.921.1a.23.23 0 00-.162-.256m-12.174-4.602a3.556 3.556 0 01-1.338 1.739c.024.04.012-.053-.034-.04l-.562.086c.15.023.301.046.452.064-.133.058-.267.11-.4.168.133-.058-.231.388-.272.423-.145.14-.417.371-.417.585 0 .174.15.36.046.505-.04.058-.11.08-.18.104-.636.215-1.273.423-1.91.638-.458.15-.944.307-1.408.18.446-.377.805-.795 1.188-1.241a5.82 5.82 0 00-.169.232c.25-.14.464-.336.62-.574.023.058.047.11.075.168.209-.104.417-.203.62-.307-.011-.157.122-.296.272-.342.151-.046.313-.03.47-.012-.035.035-.093-.029-.076-.075.023-.046.076-.058.122-.07l.556-.121a.9.9 0 00-.36-.134l1.014-.313-.602-.127c.162-.047.33-.099.492-.145a5.748 5.748 0 01-.26-.145c.324-.11.648-.214.973-.301-.105-.041-.209-.087-.313-.128l.475-.104c-.076-.076-.157-.151-.232-.226a.795.795 0 00.608-.626c-.075-.035-.145-.076-.22-.11" fill="#462717"/><path d="M60.457 24.496c.596-.348 1.268-.568 1.946-.707a8.604 8.604 0 012.079-.145 7.89 7.89 0 012.044.4c.66.226 1.28.545 1.836.956a9.797 9.797 0 00-1.893-.759 9.002 9.002 0 00-1.999-.33 10.306 10.306 0 00-2.027.08 8.685 8.685 0 00-1.986.505z" fill="#FFF5EC"/><path d="M61.314 25.667c.498-.348 1.031-.66 1.61-.875a5.713 5.713 0 011.819-.342c.62 0 1.24.093 1.83.266.59.174 1.147.435 1.68.736-.574-.202-1.147-.405-1.732-.533-.585-.127-1.176-.214-1.772-.197a6.02 6.02 0 00-1.755.267c-.58.168-1.124.423-1.68.678z" fill="#FFF5EC"/><path d="M61.135 26.588c.469-.388.973-.742 1.534-1.002a5.781 5.781 0 011.784-.487 6.754 6.754 0 011.842.116 7.848 7.848 0 011.731.597c-.59-.151-1.175-.313-1.766-.395-.59-.08-1.193-.121-1.784-.052-.59.04-1.17.197-1.726.412-.556.208-1.083.51-1.615.811zm16.65-2.144a9.124 9.124 0 00-1.98-.505 9.502 9.502 0 00-2.028-.08 8.94 8.94 0 00-1.998.33 9.53 9.53 0 00-1.894.765 6.757 6.757 0 011.836-.957 7.937 7.937 0 012.045-.4 8.935 8.935 0 012.079.145c.677.133 1.343.354 1.94.701z" fill="#FFF5EC"/><path d="M76.928 25.615c-.556-.255-1.1-.51-1.674-.678a6.049 6.049 0 00-1.755-.267c-.596-.018-1.187.07-1.772.197s-1.152.336-1.731.533a8.205 8.205 0 011.68-.736 6.472 6.472 0 011.83-.267 5.553 5.553 0 011.818.343 7.55 7.55 0 011.604.875z" fill="#FFF5EC"/><path d="M77.107 26.537c-.532-.302-1.054-.597-1.615-.812a6.144 6.144 0 00-1.726-.411c-.591-.064-1.188-.03-1.784.052-.597.08-1.176.243-1.766.394a8.127 8.127 0 011.731-.597 6.325 6.325 0 011.842-.116 5.75 5.75 0 011.784.487c.556.26 1.065.614 1.534 1.003z" fill="#FFF5EC"/><path d="M69.306 24.913c.006-.087.012-.18-.034-.249-.047-.075-.157-.11-.215-.052-.034.37-.07.742-.104 1.119-.023.266.14.457.284.185.122-.232.052-.748.07-1.003z" fill="#573627"/><path d="M71.553 26.391c.047.024.099.047.145.064l-.272.018c.058.063.116.121.174.185a.267.267 0 01-.209.035.53.53 0 00.058.266.283.283 0 00-.341.22.303.303 0 00-.174.036c.011.046.017.092.029.139l-.29-.035c.04.093.058.191.058.296a.904.904 0 01-.411-.163c.035.104-.116.174-.226.18-.156.017-.313.029-.47.046-.318.03-.642.058-.955.006-.312-.052-.625-.197-.816-.452a.215.215 0 00-.07.209 1.954 1.954 0 01-1.077-.986c.62.168 1.274.174 1.9.023" fill="#FEEBE0"/><path d="M71.629 26.206a3.778 3.778 0 01-3.278.956c-.823-.162-1.564-.591-2.276-1.037.99.388 2.102-.151 3.162-.041.457.046.903.22 1.36.215" fill="#573627"/><path d="M70.476 20.566c-.04.035-.098.058-.127.099-.122.19.319.394.214.597-.029.052-.092.087-.121.139-.07.116.029.307-.081.394-.047.035-.105.035-.163.035l-2.461-.087c.18-.134.319-.313.411-.522a.192.192 0 00-.087-.093c.07-.046.087-.15.058-.226a.513.513 0 00-.156-.197c.064-.023.133-.046.197-.075a.962.962 0 00-.475-.447c.162-.029.318-.063.48-.092a2.328 2.328 0 00-.237-.424c.15-.04.348-.168.267-.3-.035-.059-.105-.088-.128-.146-.156-.417-.133-.84-.376-1.264-.232-.4-.533-.765-.707-1.2a2.204 2.204 0 01-.145-.55c-.092-.69.14-1.397 0-2.081.064.122-.011.278.052.4.081.15.302.127.452.203.145.075.215.255.209.423-.006.168-.076.325-.145.475.336.082.469.481.515.83.04.318.058.643.047.967-.006.087-.006.186.052.25.064.07.174.075.243.139.133.116.052.336.099.504.052.174.225.272.393.354.047.023.087.023.122-.018.035-.046.556.191.683.133.244-.104.423-.544.55-.753.209-.336.452-.643.724-.928.07-.075.145-.15.18-.249.035-.11.006-.232.006-.348-.006-.22.092-.428.168-.637.15-.435.202-.905.15-1.362.22.255.284.614.273.956-.012.336-.099.672-.128 1.009-.017.214-.017.423-.017.637 0 .238.005.476.005.713 0 .087 0 .174-.046.25-.093.139-.33.18-.336.347 0 .07.047.145.012.209-.03.046-.093.058-.145.075-.237.081-.556.847-.359.986-.052.075-.127.185-.139.284-.012.139.058.121.064.226.011.133.087.255-.047.365z" fill="#FEEBE0"/><path d="M71.34 17.819c-.007.087-.007.174-.007.26a1.016 1.016 0 01-.503-.11l.26.232a.526.526 0 01-.365-.226l.203-.006.017-.388c.093 0 .18-.006.273-.006-.03-.064-.058-.133-.087-.197l.266-.035a.713.713 0 00-.174-.255.579.579 0 00.296-.046l-.122-.348a1.22 1.22 0 01.145-.011c.07-.267.046-.673.388-.574.029-.03-.006-.087.04-.105.325.18.313.464.238.783-.081.284-.869.939-.869 1.032z" fill="#573627"/><path d="M70.274 31.353a3.46 3.46 0 01-.336.377 1.68 1.68 0 01-.226-.678 1.64 1.64 0 01-.353.626.197.197 0 01-.093-.267 2.043 2.043 0 01-.446.736c-.11-.15-.18-.336-.197-.527a9.042 9.042 0 01-.533 1.449l-.121-1.02c-.093.243-.18.48-.273.724l-.359-1.432a1.096 1.096 0 01-.498-.956c-.063.18-.121.36-.185.533-.284-.678-.614-1.362-.834-2.063a7.66 7.66 0 01.643-.377c.191.099.318.394.486.47a.955.955 0 01-.307-.557c.226.133.435.302.609.493-.035-.081-.076-.163-.11-.244l.845.348a.255.255 0 00.023-.214c.046.133 3.064-.169 3.4-.186.063.765-.122 1.525-.597 2.14a1.54 1.54 0 00.006-.285c-.15.325-.33.632-.544.91z" fill="#D5AB96"/><path d="M77.34 23.22c.271-.306.179-.863.404-1.2.041-.057.087-.11.116-.179.076-.174-.011-.394.07-.568a.66.66 0 00.278.226c-.035-.127-.064-.255-.099-.388.03.081.099.139.157.203.058.064.104.15.075.232-.017.052-.07.087-.104.127-.035.04-.064.105-.03.15a.328.328 0 00-.26-.098c0 .168.046.33.133.47-.046-.018-.08.046-.08.098-.035.389-.186.771-.128 1.165-.307.082-.232.905-.191 1.166a.378.378 0 01-.255-.232.56.56 0 01.127.423.665.665 0 00-.11.892.407.407 0 01-.284-.063 1.93 1.93 0 000 .632.62.62 0 01-.324-.041l-.034.429c-.093-.012-.186-.018-.279-.03-.046.314-.196.72-.515.697-.116.214-.237.423-.353.637a.233.233 0 01-.174-.035c-.07.29-.203.563-.382.8a.21.21 0 01-.162-.104c.04.127.08.26.034.388-.046.122-.22.203-.312.11a4.962 4.962 0 01-1.495 1.664c.128-.348.325-.667.574-.939a.407.407 0 00-.18.226c.116-.354.301-.684.539-.974.029-.04.608-.73.527-.765.098.04.197.081.301.122a.77.77 0 00.023-.545c.07.011.133.029.203.04-.023-.133-.023-.278.064-.382.08-.104.272-.128.341-.012.006-.174.018-.347.023-.515a.586.586 0 00.209-.661l.226-.035c.035-.157.052-.319.046-.481.145.046.243-.157.243-.307-.005-.151-.029-.337.093-.43.046-.034.099-.046.145-.075.127-.08.145-.255.162-.405a2.7 2.7 0 01.637-1.432zm-16.512 1.282c.278.574.55 1.148.828 1.722.26.538.521 1.078.88 1.553.4.522.915.956 1.216 1.542.238.458.33.98.412 1.49a.467.467 0 00-.157-.505c-.063.255-.133.51-.197.765a3.534 3.534 0 00-.376-.718c-.006.18-.017.359-.023.539-.244-.424-.487-.84-.73-1.264.035.168.075.342.11.51-.156-.684-.342-1.42-.863-1.89l.018.655a2.394 2.394 0 01-.54-.811c-.005.093-.005.185-.01.278.08-.649-.458-1.211-.55-1.855-.024-.191-.012-.382-.018-.574-.006-.66-.203-1.298-.394-1.93l-.07.18a4.84 4.84 0 01-.15-.956c.035.052-.058.11-.11.075s-.064-.105-.064-.168a3.52 3.52 0 01.023-.655l-.017.249a2.9 2.9 0 01-.029-.742c.122-.012.058-.939.15-1.16.18.36.169.91.18 1.305.023.875.087 1.565.48 2.365z" fill="#573627"/><path d="M66.382 20.096a1.533 1.533 0 00-.33.174c.029.035.08.053.121.035-.596 0-1.187-.116-1.772-.232l-.51-.104c-.608-.122-1.227-.25-1.743-.585a.507.507 0 00.226-.064c-.035-.04-.058-.128-.104-.168.37.04.336-.186.706-.024.371.169.719.354 1.112.487.377.128.765.22 1.159.302.243.046.897.272 1.135.18zm5.229.03c.197.017.388.035.585.058-.064.011-.133.017-.197.029a4.917 4.917 0 002.323-.047c.243-.063.48-.145.73-.174.11-.011.225-.011.318-.069.098-.052.168-.18.116-.272.341.127.637-.366.95-.43-.064.03-.122.024-.186.041.018-.046 0-.127.023-.185-.318-.105-.532.092-.799.237-.394.215-.828.348-1.257.458-.781.192-1.8.435-2.606.354z" fill="#462717"/><path d="M76.882 22.583c-.035.238-.122.464-.203.69a.443.443 0 00-.434-.093l.29.03c-.012-.07-.082-.117-.117-.18-.034-.064.006-.174.076-.151-.03-.052-.052-.11-.081-.163.058 0 .121-.005.18-.005a.68.68 0 00-.024-.215c.058-.035.052-.121.023-.18-.081-.15-.139-.428.168-.307.18.081.14.424.122.574zm-15.134.945a.439.439 0 00-.387-.133c.11-.064.121-.226.063-.342-.058-.116-.168-.191-.272-.26a.553.553 0 01.29-.041c-.018-.047-.07-.07-.116-.099-.04-.029-.081-.087-.047-.127.018-.024.053-.03.07-.053.075-.11-.012-.324.232-.324.197 0 .139.145.139.284 0 .33-.261.788.029 1.095zm7.998-11.309c.018.046.07.075.116.098.047.023.099.047.122.093l-.243.052c.063.07.127.133.197.197a.127.127 0 01.028.047c.018.07-.092.087-.156.121-.087.047-.098.192-.017.25a.74.74 0 00-.377.55c-.017.122-.011.261-.098.342a.362.362 0 00-.116-.336c.035.017.058-.046.035-.081s-.064-.064-.058-.104c.011-.047.075-.058.127-.053-.075-.092-.052-.231-.046-.353.011-.122-.012-.273-.128-.313.064-.035.134-.064.197-.099a1.028 1.028 0 01-.202-.185.474.474 0 01.174-.04 3.99 3.99 0 00-.25-.186l.412-.035a.671.671 0 00-.25-.104c.041-.012.076-.03.11-.047-.277-.243.169-.51.43-.127-.1.098-.059.15.057.22-.046.006-.08.052-.064.093zm-1.366-.359c0 .046.04.087.064.128.04.075.011.162-.018.237-.087.22-.237.43-.237.667 0 .075.011.15.017.226a.6.6 0 01-.116.353c-.046.064-.11.122-.15.192-.04.07-.058.168-.012.232a.252.252 0 01-.26-.047c.069-.052.075-.156.046-.238a.616.616 0 00-.162-.197.311.311 0 01.19-.029.35.35 0 00-.185-.156c.081-.012.168-.023.25-.04a1 1 0 00-.22-.25c.04-.017.08-.035.12-.058.036-.116-.144-.243-.063-.33a.25.25 0 01.052-.04.243.243 0 00.053-.111c.028-.104.057-.203.098-.301.145-.389.33-.586.73-.348-.07 0-.197.023-.197.11zm3.046.556c-.04-.012-.081.029-.087.075-.006.047.012.087.023.128.04.139.018.284-.005.429-.03.191-.064.382-.093.58-.012.057-.023.121-.064.162-.04.04-.121.046-.15 0 .075-.047.07-.157.04-.244-.029-.081-.07-.18-.029-.255.017-.04.058-.07.07-.11a.21.21 0 00-.018-.133 1.199 1.199 0 00-.22-.36c-.029-.029-.058-.07-.052-.11.023-.226-.26-.516-.006-.724.203-.163.464.005.58.18-.134.063-.169.335.011.382zm-4.986.544c.133-.04.231-.138.33-.23l.139-.14c.168-.162.625-.696.08-.626-.19.023-.266.18-.353.336-.028.075-.18.655-.196.66zm6.197-.202a.34.34 0 01.04.209.19.19 0 01-.04.092.27.27 0 01-.267.093c-.11-.035-.232-.301-.347-.388-.023-.018-.052-.04-.058-.075-.012-.076.104-.128.08-.198-.017-.063-.138-.092-.11-.15a.156.156 0 01.047-.04c.064-.059-.017-.157-.081-.221a.503.503 0 01-.145-.389c.087.11.18.215.267.325l.255.307c.104.116.277.267.359.435zm-5.005 11.414l-.33-.14c-.4-.168-.805-.341-1.216-.486a.637.637 0 01-.023.18c.07-.018.15.028.174.098.006.017.011.04.023.052.017.017.04.023.064.023.162.023.318.047.48.076.04.005.081.011.11.04.03.03.023.087-.011.099a.368.368 0 01.313.098c.029.03.052.064.086.087.07.052.163.04.244.04-.012.227.388.082.457-.022-.145.017-.237-.087-.37-.145zm.354.927c-.006-.07 0-.14.023-.209l-.058.03c.03-.053-.046-.105-.104-.128-.37-.122-.741-.25-1.112-.371a.361.361 0 00-.174-.023c-.046.011-.087.046-.139.04-.04-.006-.075-.035-.11-.052-.098-.052-.22-.023-.33 0-.11.023-.237.035-.319-.046a.235.235 0 00.012.278c.081.093.214.11.336.133.226.04.446.122.66.203.11.04.22.081.33.127.105.041.209.082.301.145-.005-.04.03-.075.07-.075.04-.006.075.012.116.023.156.052.318.07.48.052.076-.005.157-.034.186-.104m-1.494.238c-.081-.018-.168-.041-.255-.041s-.168.023-.255.017c-.116-.006-.243-.046-.33.03-.012.034.029.057.064.069.156.052.312.098.463.15.156.047.307.099.463.145.093.03.18.058.272.07.105.011.215.006.319 0 .15-.012.428.046.44-.157-.098-.034-1.181-.231-1.181-.284zm5.357-1.252c.092-.07.15-.18.168-.29-.03.035-.105.006-.099-.04a.166.166 0 00-.139.011c-.017.012-.035.03-.058.035-.063.017-.121-.052-.19-.058-.07-.006-.123.052-.186.075-.064.023-.133.006-.197.018-.11.023-.191.121-.296.162-.104.04-.22.017-.312.081-.047.03-.076.075-.122.104-.081.058-.197.041-.29.087-.023.012-.046.03-.052.053-.023.063.058.11.128.121a.608.608 0 00.411-.098c.313-.006.626-.076.915-.203m.458.498c.04-.052.087-.104.127-.15a.923.923 0 01-.226.046.209.209 0 01.076-.122l-.695.017c-.04 0-.087 0-.122.018a.69.69 0 00-.087.064.387.387 0 01-.18.058c-.138.017-.283.005-.416.052-.162.052-.307.191-.475.15.04.024.087.047.127.07-.04.011-.08.017-.121.029.046.093.144.15.249.162.104.018.208 0 .306-.017.186-.035.371-.064.556-.099.087-.017.174-.029.261-.058.168-.058.33-.162.51-.145-.03-.005-.052-.005-.081-.011m-.388.782a1.118 1.118 0 00-.371.059c-.07.023-.133.063-.203.08-.07.012-.133 0-.202-.005l-.226-.035c-.047-.006-.093-.017-.11-.058.376-.092.764-.22 1.152-.26.145-.018.463-.053.585.052-.058.046-.168.046-.133.156-.162.012-.33.006-.492.012z" fill="#573627"/><path d="M65.397 26.907a1.871 1.871 0 01-.631-.777c.04.018.011.081-.03.087-.04.006-.074-.029-.103-.058-.081-.081-.157-.162-.238-.243.058.063-.034.174-.121.162-.087-.012-.145-.093-.192-.162-.046-.07-.11-.151-.196-.163 0 .07-.006.14-.006.209a2.03 2.03 0 00-.666-.388 5.92 5.92 0 001.06 1.159.7.7 0 01.573.243c.029-.023.058-.052.087-.075.04-.035 1.338.748 1.511.783.03-.186-.19-.528-.37-.58-.006.04-.03.099-.03.145-.208-.145-.37-.348-.561-.516-.064.029-.087.098-.087.174zm8.815-.893c.023-.063.04-.127.063-.197-.249.151-.498.308-.747.458-.087.052-.173.11-.266.163-.394.243-.788.486-1.199.707.087 0 .18-.018.255-.058-.191.064-.382.127-.573.197.08-.047.168-.093.254-.14a1.552 1.552 0 00-.196.285c-.024.023-.024-.047.005-.035.03.012.023.052.012.081-.012.029-.029.064-.012.087a3.253 3.253 0 001.025-.232 2.122 2.122 0 00-.66.076c.539-.163 1.164-.29 1.633-.615.244-.168.435-.4.66-.585a.604.604 0 01-.196.237c.087-.116.18-.226.249-.353.058-.105-.006-.197.121-.29-.063.04-.405.145-.428.214z" fill="#FEEBE0"/><path d="M62.496 25.62c-.052.035-.07.11-.047.174a.327.327 0 00.128.14c.139.098.3.173.469.22-.006.098.087.162.168.214.22.14.446.272.666.412a.605.605 0 00-.25.017c.151.145.325.267.516.354-.029-.024-.07.023-.058.058.012.034.053.046.087.063.035.012.07.035.076.07-.087-.093-.226-.104-.342-.15-.116-.047-.226-.186-.157-.29a7.044 7.044 0 00-.77-.256c.04 0 .087.006.128.006a5.851 5.851 0 01-.655-.406c.064 0 .128-.005.197-.005a.553.553 0 00-.266-.285c.023.03.075-.023.058-.058-.018-.034-.058-.046-.099-.052-.04-.006-.081-.017-.093-.052.151-.017-.127-.62-.168-.724.024.063.319.608.412.55zm12.596 1.05c.012-.012.03-.03.023-.047-.005-.017-.046-.011-.034.006.312-.197.376-.626.62-.904.115-.134.283-.244.312-.423l-.29-.053a.46.46 0 01-.347.232c.116-.035.231-.087.33-.156-.081-.064-.203.011-.255.104-.052.093-.07.203-.15.273-.047.034-.105.057-.14.104-.028.046.006.139.064.116a.757.757 0 00-.405.29c.035.017.075.034.11.052a.753.753 0 01-.197.162.152.152 0 00.133.093 1.91 1.91 0 00-.434.145c.04.04.093.063.145.07a.638.638 0 01-.313.208c.33.058.602-.07.828-.272z" fill="#573627"/><path d="M64.853 12.132a5.91 5.91 0 00-1.489-.788c.168.081.313.22.406.388-.325-.08-.643-.156-.967-.237.121.116.249.231.37.347a1.082 1.082 0 01-.62-.08l.742.532a2.05 2.05 0 01-.88-.052c.162.255.393.47.66.615l-.967.035a.748.748 0 00.144.463c-.306.145-.324.626-.08.87.237.243.625.272.955.203a1.883 1.883 0 001.372-1.334c-.052-.075-.098-.15-.15-.226m9.145-.678a4.994 4.994 0 012.866-1.263 2.216 2.216 0 01-1.164.857c.394.093.805.116 1.205.076a.968.968 0 00-.857.342c.214.058.428.116.643.18-.342.098-.678.19-1.02.29.29.295.701.463 1.112.451a3.203 3.203 0 01-1.216.522" fill="#462717"/><path d="M49.922 30.878c.07.191.255.319.417.44a3.9 3.9 0 011.257 1.716l-.411-.411a3.39 3.39 0 01-.434.76 2.153 2.153 0 01-.527-.412l-.365.973a1.42 1.42 0 01-.626-.626 2.86 2.86 0 01-.486.766 4.566 4.566 0 01-.927-1.589c.04.064-.052.151-.127.128-.075-.018-.122-.093-.157-.162a3.473 3.473 0 01-.347-1.073c.093 0 .064.174-.03.18-.092.011-.167-.07-.22-.145-.161-.209-.318-.417-.48-.62a.695.695 0 00.203.51c-.933-1.386 1.21-.875 1.57-.852.914.075 1.331-.545 1.69.417zM40.8 32.53c-.115.14-.3.11-.445.197-.602.377-.788.922-1.043 1.507-.052.122-.162.226-.173.36-.012.127.063.26.011.376-.029.058-.08.099-.11.151-.052.099-.023.215.018.319a.87.87 0 00.272.4c.127.098.318.127.457.04a.2.2 0 00.07-.07c.023-.051.011-.115.011-.173-.034-.806 1.379-1.096 1.946-.962-.046-.012.255-.65.301-.702.163-.185.44-.278.666-.382-.069-.105.03-.25.145-.29.116-.046.25-.029.365-.058.122-.029.25-.128.22-.255a.299.299 0 00-.092-.145 1.871 1.871 0 00-1.645-.498.628.628 0 00-.267.104c-.139-.116-.318-.238-.48-.162-.105.058-.157.156-.226.243zm21.667 5.466a4.473 4.473 0 01-.03-1.113.509.509 0 01-.26.267c-.26-.018-.313-.377-.428-.615-.307-.632-1.402-.643-1.54-1.327.19.492-.047 1.107-.516 1.35.011.302-.122.603-.348.8.29.592.736 1.107 1.28 1.478.07-.26.498-.313.631-.075-.046-.319.394-.452.718-.464.145-.011.29-.011.44-.017m-29.988-8.7c-.22.18-.44.359-.66.533-.035.029-.07.052-.087.092-.034.064-.023.14-.017.21.023.208.029.416.104.614.07.197.226.376.434.405.203.03.435-.156.394-.36.307-.132.742.123.962-.132.04-.047.064-.099.116-.128.052-.035.121-.023.185-.023a.73.73 0 00.573-.267c.377.418.921.626 1.448.823.087.035.18.064.267.052.092-.011.18-.092.173-.185a.452.452 0 00.51.255 1.149 1.149 0 01.029-.887c.04-.087.093-.168.098-.267.006-.133-.098-.26-.22-.318a1.145 1.145 0 00-.4-.081c.134-.093-.017-.32-.185-.32-.162 0-.307.105-.469.128-.231.035-.446-.098-.66-.197-.214-.098-.498-.139-.654.03-.342-.372-.655-.418-1.037-.128-.33.255-.556.342-.967.487-.533.19-1.326.614-.869 1.28.58.835 2.137-.168 2.734-.55.318.238.724.481 1.117.556.464.087.938-.046 1.39-.18a4.187 4.187 0 01-.7-1.28c-.348-.232-1.599-.255-2.722-.064m-8.531-.701a.72.72 0 01.22-.406c.15.133.243.336.243.539 0 .238 1.176-.354 1.251-.377.614-.185.764.232 1.095.684.26-.08.544.058.718.261.18.203.266.464.359.725.058-.03.116-.058.18-.087.057.07.11.139.167.203a2.54 2.54 0 00.614-.708c-.098.122-.295.157-.417.058-.122-.098-.122-.313.012-.394a.54.54 0 01-.33-.458c-.006-.087.005-.18-.035-.26-.035-.064-.093-.105-.145-.151a.69.69 0 01-.232-.51c-.133.098-.33.075-.474-.012a1.287 1.287 0 01-.336-.37.827.827 0 01-.707-.192c.122.11-.538.087-.567.08-.238-.046-.452-.22-.713-.15-.66.174-.533 1.09-.903 1.525zm33.59-1.791c-.11-.047-.226-.093-.336-.14.47.696 1.014 1.34 1.616 1.92a.791.791 0 00-.353.144c.098.14.203.272.301.412l-.527-.389.301.44c-.625-.631-1.257-1.274-1.697-2.045-.359-.638-.944-1.85.191-1.873-.07-.058-.18-.174-.255-.237.006.458.267 1.559.76 1.768zm4.604 6.654c.48.475.962.956 1.442 1.432-.168-.145-.342-.29-.51-.435.203.301.406.597.614.898a4.348 4.348 0 01-1.818-1.49c-.406-.579-.69-1.28-1.28-1.674.405.168.788.405 1.118.7l-.66-.625c.121.29.353.533.63.678m12.123-1.733a6.702 6.702 0 01-.487 1.478.438.438 0 01.023-.556 5.117 5.117 0 01-.996 1.774c-.104-.11-.208-.22-.307-.33a.726.726 0 01-.22.22c-.07-.586.684-.87 1.037-1.34.388-.521.359-1.42.973-1.617-.035.168-.064.337-.099.499m-13.702-1.751c.393.371.735.794 1.025 1.252.185.302.347.615.486.94-.122-.296-.788-.667-1.002-1.01-.231-.37-.203-.8-.51-1.182zm-1.691-7.778a.837.837 0 01-.157-.413c.238 1.177.475 2.36.707 3.536.075.371.162.765.434 1.02a8.706 8.706 0 01-.295-.196c.011.185.029.37.046.562a5.073 5.073 0 01-.99-2.22c-.018-.087-.04-.186-.116-.22-.081-.035-.185.08-.116.133-.874-.591.058-4.046.585-4.597.208.742.023 1.64-.098 2.394zM22.865 34.588a.686.686 0 00.307-.846c-.678-.296-1.46.005-2.08.411-.48.313-.938.701-1.187 1.217-.255.516-.272 1.177.076 1.635.07-.105.139-.203.208-.307.238.197.608.087.828-.128.22-.214.342-.51.539-.748.313-.388.776-.614 1.228-.834" fill="#573627"/><path d="M37.274 49.247c.092.939.116 1.895.005 2.834-.127 1.078-.44 2.133-.747 3.177l-2.693 9.181c.035-.857.163-1.715.383-2.544l-.591 1.142c-.11-.754-.15-1.525-.11-2.284.011-.18.052-.4.22-.458.168-.058.307.272.127.284-.793-1.85.684-3.797 1.408-5.669a7.788 7.788 0 00.515-3.188c-.017-.348-.058-.701-.185-1.02-.145-.371-.4-.69-.585-1.044-.915-1.762-.064-4.173-1.292-5.732-.474-.603-1.233-1.032-1.401-1.78-.116-.51.446-1.17.84-.829a12.59 12.59 0 01-2.624-2.336l1.529.713a4.761 4.761 0 01-1.158-.788c.504.093.996.267 1.448.51-.313-.168-.608-.394-.904-.597 3.846 1.072 5.473 6.996 5.815 10.428z" fill="#FEEBE0"/><path d="M52.366 58.365c-.51-1.235-.7-2.574-.938-3.89a56.4 56.4 0 00-.967-4.364c0 .33 0 .66.006.991a4.31 4.31 0 01-1.356-2.255c.25.858.493 1.716.742 2.58l-.817-.667c.197.655.388 1.316.585 1.97l-.927-.63c.186.7.365 1.402.545 2.103l-.556-.626c.116.412.226.818.342 1.23-.498-.239-.997-.47-1.489-.708-.075.383-.023.782.157 1.13a1.348 1.348 0 01-.678-.434c-.087.3.087-.302 0 0-.458-.296-1.147.266-1.535-.122-.423.405-1.262.11-1.343-.47-.313.278-.62.557-.933.835-.602-.76-1.923-.777-2.548-.035-.127-.342-.26-.69-.388-1.032-.388.69-.782 1.38-1.17 2.07.029-.33.058-.655.093-.986-.47-1.153-.944-2.307-1.413-3.466l-.4 1.965-.47-.713a17.723 17.723 0 01-1.297 3.165c-.382.724-.88 1.403-.967 2.237.458.035.933-.005 1.396-.017.336-.006.788.087.8.423.132-.365.648-.377 1.019-.26.37.115.787.295 1.123.098l.174.498a.792.792 0 01.92-.51c.122-.08.25-.162.371-.243.22.18.388.417.481.684a.836.836 0 011.083-.215c-.046-.191.11-.376.295-.434.186-.058.389-.024.574.017l.538.104c.226.047.504.134.539.366l.417-.51c.122.167.249.336.37.504a.971.971 0 011.06-.684c.11-.18.371-.215.556-.122.186.093.307.284.389.475a.654.654 0 01.555-.504.648.648 0 01.643.383l.736-.882c.064.273.504.343.654.105.064.093.128.185.186.278.84-.539 1.841-.632 2.646-1.229" fill="#FEEBE0"/><path d="M33.521 51.99c-.174.115-.295-.21-.452-.349-.15-.133-.4-.087-.544.053-.145.133-.215.336-.278.521-.209-.168-.423-.336-.631-.504a.462.462 0 01-.209.302l-.996-.464a1.39 1.39 0 00-.156.568l-.377-.087c-.249.446.25 1.09.741.956.093-.023.192-.075.29-.052.191.04.249.313.434.371.11.035.226-.017.325-.064.695-.33 1.384-.666 2.079-.997m-9.695-12.578c-.197-.04-.388.127-.446.319-.058.19-.017.4.023.59-.266-.04-.533-.075-.8-.115a.498.498 0 01-.022.365l-1.095.104c.012.197.064.394.157.568-.122.04-.244.081-.371.116.011.51.764.812 1.123.447.07-.07.128-.157.22-.192.377-.127 1.078-.029 1.495-.058-.197-.168-.162-.533.07-.655a.42.42 0 01-.18-.29.425.425 0 00.388-.127.312.312 0 01-.197-.243c.226-.012.504-.07.55-.29.075-.394-.649-.481-.915-.54z" fill="#573627"/><path d="M60.99 59.46c-1.083 2.823-1.917 5.831-1.64 8.84-.127.064-.254-.093-.283-.232-.029-.14-.029-.307-.139-.388-.116-.082-.307.127-.174.18-.654-.51-.596-1.508-.417-2.32.18-.81.394-1.738-.092-2.41-.14-.192-.33-.36-.37-.592-.036-.232.242-.498.416-.342-.226-.388-.452-.77-.678-1.16.284.035.568.076.852.11-.209-.353-.423-.706-.632-1.06.296.099.597.197.892.302-.139-.487-.278-.974-.41-1.461.33.046.665.098.995.145a5.373 5.373 0 01-.341-1.374c.41.017.822.04 1.233.058a3.473 3.473 0 00-.29-1.49 1.53 1.53 0 01.927-.232c-.202-.017 1.471-4.758 2.63-2.938.492.776-2.126 5.437-2.48 6.364z" fill="#FEEBE0"/><path d="M54.139 63.918a15.179 15.179 0 01-.823-4.602c-.023-.986.047-1.977.273-2.94l-1.599-3.952c-.932-.064-1.454-1.13-1.558-2.064-.104-.933 0-1.942-.492-2.742.475.238.208 1.136-.319 1.078-.527-.058-.585-.997-.07-1.118.007.365-.544.37-.885.243l.886.933a.7.7 0 01-.707-.034c.51.47 1.025.944 1.54 1.414a1.44 1.44 0 01-.827-.04c.26.347.527.7.787 1.048-.475-.046-.4.725-.15 1.137a9.517 9.517 0 011.337 4.59c.018.702-.04 1.403.03 2.099.11 1.124.538 2.197.816 3.292.272 1.084-.122 4.272.527 4.904.434-1.055.73-2.185 1.234-3.246z" fill="#B48B7B"/><path d="M37.662 78.792c-.92-.968-2.664-.817-3.48-1.873.034.088.075.174.11.267l-.534-.29a.347.347 0 01-.11.325c-.156-.14-.306-.284-.463-.423.052.232.017.516-.174.66-.19.145-.544.035-.544-.202.046.266-.197.487-.36.701-.161.215-.19.615.076.672-.145.024-.29.041-.434.064a.363.363 0 00.18.44l-.736.012c.104.14.214.279.318.418-.335.011-.671.023-1.007.029a.845.845 0 00.451.55c-.121.11-.249.22-.37.33a1.6 1.6 0 00.764.685.79.79 0 01-.422.145l1.25.643c-.197.11-.393.226-.596.336.596.105 1.199.163 1.807.215 1.46.133 2.925.266 4.384.394.278.023.562.052.834-.03.567-.167.915-.77.961-1.361.047-.591-.156-1.171-.376-1.722m21.527 1.687c-.574.075-1.153.058-1.726.046l-.614-.017c-.99-.03-1.98-.052-2.971-.081-.585-.018-1.326-.163-1.43-.737l.069-.776c.226.116.544-.052.573-.302.163.024.33.047.493.076.18-.603.857-1.009 1.476-.881-.144-.198.04-.482.261-.58.22-.104.48-.11.69-.232.445-.267.474-.939.45-1.391.389.07.696.313.858.69-.093-.25-.04-.568-.093-.812.875.273 3.255 1.229 3.87 1.988.422.528.532 1.496.277 2.11-.463 1.113-1.205.765-2.183.899zm11.137-4.231c.51.788.498 1.831.167 2.712a1.21 1.21 0 01-.214.389c-.266.284-.706.29-1.095.278-1.858-.07-3.712-.145-5.57-.214a5.081 5.081 0 01.405-1.606c.156-.36.347-.788.121-1.107.26-.006.527-.012.788-.023a.843.843 0 00-.365-.603c.411-.087.84-.081 1.25.011-.074-.133-.155-.26-.23-.394.335-.011.671-.017 1.001-.029l.035-.44c1.28.116 2.901-.232 3.707 1.026z" fill="#FEEBE0"/><path d="M14.206 79.267c-.156.04-.3.116-.451.162-.255.076-.527.058-.788.04-.69-.046-1.373-.086-2.062-.132-.382-.024-1.06.092-1.268-.29-.064-.116-.064-.273.035-.365.029-.024.063-.041.075-.076.023-.058-.035-.122-.064-.18-.058-.121.006-.272.116-.353.11-.081.243-.104.377-.128-.163-.197-.307-.527-.087-.666.052-.035.115-.04.18-.052.213-.035.428-.064.642-.099-.058-.133-.121-.26-.18-.394l.609-.174a1.683 1.683 0 01-.678-.435c.342-.035.69-.075 1.03-.11a.511.511 0 01-.132-.325c.243-.092.48-.197.712-.324a.888.888 0 01-.498-.371c.846-.273 2.155-.26 2.896.29.689.51 1.204 1.75 1.488 2.527.782 2.18-.654 1.124-1.952 1.455z" fill="#D1BAAB"/><path d="M6.69 18.654c-.03-.261-.18-.493-.337-.702a8.936 8.936 0 00-2.64-2.4c-.145.325-.626.435-.898.209-.076-.064-.145-.15-.25-.168-.19-.023-.277.226-.41.365-.308.325-.99.104-1.188.504-.121.25.047.574-.098.812-.07.116-.215.203-.232.342-.012.145.127.255.209.37.272.407-.099.922-.209 1.398-.156.655.232 1.345.776 1.739-.353.087-.706.18-1.054.266.122.348.37.65.683.84L0 22.654c.11.296.307.557.568.736-.429.452-.475 1.171-.284 1.762.197.592.596 1.096.99 1.577l.956-1.183c.127-.156.26-.318.451-.376.192-.058.44.046.458.243.237-.858 1.488-1.217 2.143-.614l.035-.487c.133.023.266.046.393.075a.666.666 0 01.163-.47c.11-.127.62.25.695.325.057-.846.538-1.663.417-2.504-.082-.55-.545-.974-.585-1.542-.035-.55.347-1.014.29-1.541zm.845 7.824c.133.371-.284.812-.666.69-.006.162-.018.325-.024.487a.674.674 0 01-.37-.029c.145.238-.243.435-.521.446l-1.668.07c.139.417.7.475 1.146.458.354-.018.707-.03 1.054-.047a.832.832 0 00.296-.052c.121-.058.197-.174.284-.272.214-.255.503-.446.695-.719.185-.278.231-.701-.03-.91.122-.023.244-.046.365-.064m18.018 6.898c-.099-.017-.168.099-.197.197-.076.267-.122.54-.122.817 0 .093.012.197.081.25.087.063.209.017.313.005.104-.011.25.052.22.157l.052-.557c.11.11.197.244.255.389.04-.145.098-.284.174-.418a.968.968 0 01.29.284l.138-.376c.012-.03.023-.064.052-.082.11-.069.29.14.487.03.197-.116.058-.598.457-.163.939-.858-1.54-1.611-1.586-1.032-.388-.127-.44.528-.614.499zm-6.996-2.771c-.145.192-.267.406-.464.545-.18.128-.405.186-.556.342-.15.157-.139.493.076.534l-.157.208.394.516c.116.15.33.319.47.185.034-.133.213-.208.33-.127l.04-.296c.202.035.405.076.608.11a1.278 1.278 0 00-.267-.521c.215.075.36-.22.394-.447.035-.197.064-.388.099-.585.174-.023.278-.191.394-.319.115-.127.335-.22.451-.087-.092-.098.047-.243.168-.29a1.986 1.986 0 011.118-.08c-.064-.128.747-.348.961-.256-.092-.162-.075-.197.006-.36-.73.239-.869-.816-1.587-.677-.133.023-.231.133-.347.162-.099.029-.266.029-.36.058-.306.099-.3.185-.526.37-.435.366-.892.54-1.245 1.015zm6.996 18.022a.82.82 0 00-.66.052.905.905 0 00-.435.684c.18-.046.37.023.515.14.145.115.244.278.342.434.11.18 1.656.197 1.865.075.295-.168.365-.48.307-.805-.052-.296-.145-.47-.429-.476-.08 0-.18.145-.278.157-.15.017-.237-.064-.37-.075a2.946 2.946 0 01-.857-.186zm6.121-.985a.74.74 0 01-.249-.082c-.029.104-.156.157-.266.14-.104-.018-.197-.088-.284-.152a.74.74 0 00.04.522c-.295.163-.665.14-.984.023-.319-.116-.59-.318-.863-.521-.122-.093-.26-.22-.214-.371a.348.348 0 01.092-.134l.429-.458c.046.093.093.18.133.273-.064-.07.04-.18.14-.186.092-.005.19.041.283.006.081-.029.133-.11.203-.162.173-.14.428-.087.625.017.197.099.377.244.597.284.4-1.09 1.187.174.573.789-.174.174-.649.295-.707-.082-.023-.144.116-.342.278-.307.168.03.168.4.174.4zm-7.036-2.742a.646.646 0 01-.423-.232c-.023-.03-.052-.07-.093-.076-.035-.005-.07.012-.098.03-.168.092-.336.185-.504.272-.214.116-.463.301-.411.539.04.18.231.278.4.348a73.008 73.008 0 001.32.539c.127.052.26.098.394.127.353.064 1.117-.052.903-.504-.174-.36-.707-.365-.782-.852-.22.075-.637.139-.706-.191zm5.431-16.173c-.01-.093-.11-.145-.179-.197-.29-.22-.306-.655-.544-.927-.087-.099-.197-.169-.278-.267-.087-.098-.145-.232-.098-.354a.357.357 0 01.347.22c-.058-.023-.04-.127.023-.15.064-.023.128.012.18.058.046.046.087.104.139.139.121.075.278.035.422.04.14.006.267.064.4.105.353.116 1.234-.052 1.048.382-.168.383-1.117.72-1.46.951zM25.911 31c.11 0 .226 0 .319.058.11.07.168.208.168.341 0 .134-.041.261-.082.389-.011.04-.029.081-.063.104-.03.018-.07.018-.105.018a3.996 3.996 0 00-.868.092 9.3 9.3 0 00-.539.122.691.691 0 00-.243.099c-.047.034-.081.08-.133.104-.122.058-.267-.017-.4.006-.185.035-.342.255-.51.168-.11-.058-.115-.209-.11-.33l.04-.737c.233-.011.493-.035.644-.208.07-.076.156-.197.249-.151.046.023.064.07.092.11.128.186.429.157.62.11-.011-.406.649-.296.921-.296zm10.703 3.431c.19.157.226.44.394.626.098.104.237.18.3.307.1.192-.005.418-.11.609l-.33.609c.047.034.11.023.168.034.058.006.122.064.093.11-.017.035-.07.035-.104.053-.07.029-.099.116-.157.162-.086.07-.225.029-.3-.052-.076-.081-.105-.197-.14-.307-.11-.36-.312-.742-.677-.824-.081-.017-.174-.023-.243-.069-.25-.157-.047-.614-.267-.812-.318.012-.602-.318-.544-.637-.11.075-.25-.052-.278-.18-.133-.585.753-.893 1.181-.684.191.093.25.25.365.418.197.313.365.405.649.637zm2.559-5.924c.134.052.267.116.394.18.012-.07.04-.14.087-.191a.855.855 0 00.516.226c.063.006.121.006.18.023.051.017.098.046.144.07a.325.325 0 00.365-.105.153.153 0 00-.006.133.55.55 0 00.4-.11c-.03.064.017.14.08.168a.45.45 0 00.198.018c-.035.156.11.411.214.191-.162.336.29 1.64-.58 1.055-.051.133-.115.296-.254.365-.278.134-.631-.203-.863-.319-.099-.046-.145-.214-.04-.243-.174-.006-.354-.012-.528-.023a.317.317 0 00.105-.365c-.093.156-.354.11-.458-.035-.104-.15-.098-.342-.087-.528-.156.203-.498.11-.672-.08-.034-.036-.063-.076-.115-.088-.047-.006-.105.052-.07.087 0-.07.006-.145.006-.22a.985.985 0 01.58-.006c.057-.052-.018-.15.01-.22.03-.081.151-.07.232-.04.058.017.11.034.162.057zm8.567 7.431c.161.035.37-.023.474.104.07.087.064.227.15.29.087.07.22.023.325.064.121.052.162.203.162.336s-.023.273.035.389c.029.057.075.104.104.162.07.127.058.29-.023.411a.383.383 0 01-.272.168.627.627 0 01-.232-.017c-.278-.046-.55-.093-.828-.145-.128-.023-.26-.046-.382-.08a1.525 1.525 0 01-.597-.32 1.042 1.042 0 01-.237-.313c-.052-.098-.087-.203-.151-.295-.104-.157-.266-.261-.4-.395-.133-.133-.249-.318-.202-.498.04-.174.145-.273.116-.458-.024-.15-.273-.255-.244-.429.04-.238.18-.162.383-.127.735.121 1.135 1.014 1.818 1.153z" fill="#573627"/><path d="M12.295 43.265c.064.278-.098.58 0 .846.052.151.18.261.284.383.301.353.429.817.55 1.27.035.127.07.254.087.388.023.139.023.284.04.423.03.267.105.527.174.788.191.702.383 1.403.58 2.104.052.197.11.395.162.592.133.492.272.985.475 1.455.306.7.764 1.321 1.222 1.935.625.841 1.268 1.676 2.015 2.412.29.284.596.556.892.84a14.38 14.38 0 012.728 3.623c.231.087.463.18.695.267a.442.442 0 00-.035-.342c-.093.04-.191.087-.284.127a.787.787 0 01.736-.492 4.303 4.303 0 01-1.147-.777c.313.023.498-.394.382-.684-.121-.29-.417-.464-.69-.609.348-.377.395-.956.244-1.443-.15-.487-.469-.91-.776-1.316.29.064.365-.423.18-.655-.186-.232-.493-.417-.498-.713-.006-.18.104-.336.197-.487.237-.388.37-.927.08-1.275-.243-.29-.665-.33-1.036-.388-.377-.058-.805-.232-.875-.603-.07-.348.226-.678.215-1.038-.012-.492-.591-.87-.527-1.362.029-.209.18-.406.145-.614-.064-.389-.614-.418-.91-.678-.544-.482-.075-1.606-.706-1.971-.145-.081-.313-.099-.47-.14-.596-.162-1.013-.678-1.395-1.159-.463-.597-.863-1.182-1.141-1.89-.191-.498-.33-.938-.921-1.083-.446-.116-.822.017-.91.492-.022.134.146.267.134.418-.012.156-.174.29-.185.434-.018.395.202.545.29.922z" fill="#FEEBE0"/><path d="M38.687 32.118c-.099-.08-.203-.168-.301-.249.017.093-.047.18-.128.226a.597.597 0 01-.266.058l-.886.07c.046.093.087.191.133.284-.075-.058-.197.029-.203.122-.005.098.053.185.11.26.163.22.36.453.626.487.104.012.22-.011.318.03a.243.243 0 00-.034-.18c.11.005.07-.174.116-.273.046-.098.185-.104.289-.139a.418.418 0 00.272-.435.133.133 0 01-.087-.11.22.22 0 00.197-.214m5.334-.505c-.023.168-.046.337-.075.51l.162.006c0 .226.428.354.596.545.157.174.174.533.522.487.422-.064.341-.835.469-1.142-.319-.058-.411-.348-.672-.481-.133-.075-.961-.18-1.002.075zm5.34-3.28c.029.052-.064.075-.122.063a1.785 1.785 0 00-.874.024.335.335 0 00-.168.086c-.058.058-.075.145-.11.22-.035.076-.104.146-.185.128.023.244.098.481.214.696.035-.128.191-.18.324-.162.133.011.26.063.394.052.122-.012.226-.076.342-.116.225-.076 1.077.058 1.164-.244.087-.301-.765-.684-.979-.747zM45 28.473c-.273.005-.44-.1-.666-.232-.024-.012-.053-.03-.082-.024-.046.006-.069.058-.098.087-.087.082-.255.03-.336.116-.04.047-.046.11-.08.163a.202.202 0 01-.204.063.445.445 0 01-.19-.104c-.018-.017-.041-.035-.07-.035-.03 0-.052.018-.075.03a.474.474 0 01-.406.022c.093.116.209.151.313.238-.03-.023.3.226.18.215.434.052.874.098 1.285.26.081.03.162.07.25.082.26.034.393-.07.59-.18.255-.145.3-.081.573-.006.052.012.11 0 .168-.011.214-.058.429-.134.631-.232-.052-.012-.092-.064-.08-.116a.11.11 0 01.115-.087c-.162.011-.324 0-.486-.03.04-.051.075-.104.115-.15-.098.04-.214.087-.312.046-.104-.034-.157-.19-.07-.255-.33.11-.718.134-1.065.14zm-10.888-1.189a.455.455 0 00-.012.081c-.07.04-.139-.04-.214-.075-.081-.04-.186-.012-.272.006a.31.31 0 01-.255-.053c.035.134.272.261.376.371.168.168.348.325.55.447.232.139.498.237.77.208.134-.011.672-.353.73-.324a.478.478 0 01-.162-.122c.018-.035.058-.052.099-.052a.097.097 0 00.005-.07c.006.018-.353.07-.4.052-.138-.052-.254-.272-.347-.388a.535.535 0 01.082.162c-.047.041-.122-.005-.186-.011-.04 0-.075.017-.116.029a.539.539 0 01-.648-.261zm-11.479-.197c.012.023.029.047.029.07.006.07-.087.093-.145.127-.145.081-.15.284-.116.447.04.162.105.33.04.486-.017.047-.046.093-.046.14 0 .058.041.11.082.156.254.255.637.383.996.325.087-.128-.035-.33-.191-.313.115-.058.237-.105.364-.128.018-.116-.15-.15-.225-.243-.122-.145.04-.342.139-.51 0-.244.249-.748.44-.905-.157-.116-.14-.284-.07-.423-.318-.017-1.58.238-1.297.771zm-3.747 1.426c-.284.11-.515.325-.741.54a.561.561 0 00-.168.22c-.04.104-.018.226 0 .336a.5.5 0 00.104.255c.127.127.347.08.498-.018.15-.098.272-.243.446-.301.087-.03.18-.035.266-.058.4-.128.203-.464.4-.667.174-.18.457.105.417-.295-.023-.238-.336-.365-.533-.377-.428-.04-.37.243-.69.365zm11.23 4.805c-.024-.035.069-.04.063.006-.006.04-.063.052-.11.046-.168-.035-.272-.214-.284-.382-.011-.169.052-.337.116-.493.162-.14.48.098.614-.07.064.157.324.168.4.018.011-.018.017-.047.04-.052.023-.012.052 0 .076.011.15.075.306.15.457.226a.386.386 0 01.046-.243c.186.608 1.535.127 1.628.406l.203.602c-.261.273-.585.499-.956.586-.365.087-.782.023-1.066-.226-.121.545-2.073-.273-.753-.835.342-.145.834-.122 1.205-.18.04-.005.214-.005.429-.005m-15.012 1.304c-.104-.023-.203-.093-.307-.122a.514.514 0 00-.602.725c.18-.012.359.04.533.093.313.092 1.552.684 1.448-.047-.058-.48-.718-.574-1.072-.649zm-2.079-1.675c.012.203.052.411.018.614a.216.216 0 01-.059.128c-.023.017-.052.029-.063.052-.023.046.023.099.07.127.144.099.37.186.468.041.035-.052.041-.116.053-.18.115-.637 1.343-.968.967-1.623-.412-.718-1.489.267-1.454.84zm26.652 4.289c-.07.012-.121.018-.139.018-.642.116-.573.504-.747 1.066.313.4 1.048.151 1.379.534a.263.263 0 01.023-.308.254.254 0 01.3-.052c-.051-.058.007-.162.082-.185.075-.023.156.011.232.046-.012-.04-.023-.087-.035-.128a.29.29 0 00.185-.029c-.034-.063-.04-.173-.08-.237.144-.017.3-.017.45 0-.12-.458.43-.968-.156-1.322.03-.052.099.052.041.081-.052.024-.116-.023-.156-.063-.047-.04-.11-.082-.157-.047a.375.375 0 000 .342l-.318-.092-.012.226c0 .034-.608.116-.892.15zm9.782-1.785c-.07.04-.133.099-.203.14-.057.034-.115.057-.173.092-.058.035-.11.075-.163.116-.098.087-.202.168-.306.255-.099.081-.203.168-.255.29a.536.536 0 00.058.492c.092.145.226.255.37.348.058-.122.22-.145.36-.133.133.011.289.029.387-.064-.011-.174.151-.307.319-.348.168-.04.342-.011.51-.023.336-.023.642-.191.938-.353a.267.267 0 00.116-.093c.052-.081.011-.197.046-.29.098-.267.342-.238.185-.58-.092-.203-.388-.319-.631-.342-.463-.052-1.164.255-1.558.493zm-21.585 8.312c.191-.099.429-.162.545-.14.22.041.324.192.388.395.208.655-.4.65-.568 1.038-.064 0-.174 0-.232-.018l-.034.128c-.325.075-1.06-.07-1.037-.528.012-.232.25-.336.452-.319-.075-.197 0-.301.208-.313-.08 0 .464-.208.423-.19.157-.076.313-.227.51-.273.064-.018.133-.023.18-.07.046-.04.057-.133 0-.162.046-.006.086-.012.133-.023a.45.45 0 01.023-.174c.075.023.15-.07.121-.14.087.064.186-.104.29-.086.08.017.098.121.093.203a5.166 5.166 0 01-.087.724c-.012.052-.024.116-.064.15-.099.1-.307.041-.365.163-.035.075.018.174-.011.255-.03.075-.11.11-.18.157-.07.046-.127.139-.075.197a1.148 1.148 0 01-.603-.133m-9.266 1.691c.191-.005.388.018.573.082a.795.795 0 00-.185-.435l.533-.017a.617.617 0 01.272.029c.07.029.128.087.185.139.215.203.423.406.637.608a3.358 3.358 0 00-.19-.115c.051.058.104.116.156.168a.18.18 0 01-.145.139.612.612 0 00.11.278c-.174-.046-.348-.099-.521-.145.011.104-.134.145-.244.128a2.926 2.926 0 01-.602-.134v.186c-.075 0-.145.006-.22.006.017.08-.058.162-.139.185-.145.04-.185.035-.295.087-.122.058-.145.25-.33.267-.25.029-.33-.076-.348-.307-.052-.54.747-.615.753-1.148zm7.772-1.147c.25.342.313.777.365 1.194.023.192.046.412-.081.557-.156.127-.4.08-.562-.04-.162-.123-.278-.297-.411-.447-.139-.15-.319-.284-.521-.267-.023 0-.047.006-.076 0-.098-.029-.069-.18-.011-.267.058-.086.122-.214.04-.278-.029-.023-.07-.029-.11-.04-.55-.145-.115-.806.209-.986.423-.226.926.255 1.158.574zm3.892 4.667c.087.057.122.168.127.272.035.313-.104.678-.37.863-.267.186-.765.018-.852.383-.648-.081-1.042-.475-.776-1.165.255-.672 1.32-.707 1.871-.354zm-1.245 6.538a1.36 1.36 0 01-.099.255.297.297 0 00-.231-.093c-.093.006-.186.035-.278.012-.145-.03-.244-.168-.377-.238-.075-.04-.162-.052-.249-.07-.44-.075-1.587.012-1.673-.602-.035-.261.353-.736.561-.852.087-.053.846-.151.747-.267.128.145.29.255.47.319l.034.446c.07-.145.307-.156.388-.017.035.058.04.133.093.18.046.04.11.011.133-.035-.145.516.093.701.48.962zm-7.725-6.597c.028.053.01.134-.047.151.087.035.116.145.093.232a.532.532 0 01-.157.22c-.081.076-.168.157-.272.174-.157.035-.307-.058-.429-.168-.115-.104-.22-.232-.364-.301a.292.292 0 01.046.156l-.585-.017c.011.035-.03.063-.058.052-.185.006-.348-.15-.411-.325-.064-.174-.052-.365-.04-.55.017-.273.034-.545.046-.818.029-.504.764.476.857.534.347.231 1.1.226 1.32.66zm.265-1.796c.163-.064.33-.128.493-.186a.439.439 0 01.15-.035c.064 0 .116.03.174.052.319.151.637.302.962.453-.371.139-.719.33-1.037.562-.04.029-.087.064-.133.075-.134.03-.244-.104-.354-.185-.005.058-.005.116-.011.174-.215-.064-.429-.128-.614-.25-.185-.121-.342-.307-.37-.527.167-.03.335-.075.497-.133.11-.041.238-.163.168-.25m3.458-5.924c.162-.063.33-.127.492-.185a.439.439 0 01.15-.035c.064 0 .117.029.174.052.319.15.637.302.962.452-.37.14-.718.33-1.037.563a.44.44 0 01-.133.075c-.133.029-.243-.104-.353-.186-.006.058-.006.116-.012.174-.214-.063-.428-.127-.614-.249-.185-.122-.341-.307-.37-.527.168-.03.335-.076.498-.134.11-.04.237-.162.168-.255m1.662 6.759c.086.081.168.169.243.255.087.099.168.215.185.342.012.134-.081.279-.214.284-.25-.243-.568-.504-.904-.423-.156.035-.295.145-.457.122-.14-.017-.243-.127-.336-.232-.081-.093-.168-.197-.174-.325-.006-.19.429-.556.603-.602.359-.099.77.301 1.053.58zm-13.552-10.59c-.163.139-.168.394-.302.568-.11.15-.306.226-.405.383-.104.173-.064.4.029.58.035.069.081.15.058.225-.018.07-.081.116-.116.174-.064.116-.023.267.052.377.075.11.174.209.232.325.046.092.064.202.122.29.057.086.185.144.266.08.017-.139.035-.283.058-.423l.011-.087c.024-.173.047-.353.076-.527.023-.145.133-.33.266-.26-.081-.146.11-.29.168-.441.023-.064.029-.128.046-.192a.398.398 0 01.336-.278c-.156.017.243-.296.215-.272.133-.093.318-.035.463-.169a.594.594 0 00.029-.852c-.191-.208-.666-.336-.898-.162-.075.058-.064.33-.174.446-.139.128-.388.087-.532.215zm4.39 1.756c-.006.11.005.232-.047.325-.063.104-.203.232-.11.313.406.487 2.786.852 2.635-.145-.07-.429-.376-.614-.753-.637-.347-.018-.666.087-1.025.023-.272-.047-.677-.307-.7.121zm2.867-2.498c.092.435.44.8.868.922.156.046.683-.012.88-.012.307 0 .452-.099.747-.174.406-.099.921-.116.522-.655-.255-.348-.956-.533-1.361-.435-.296.07-.475.325-.77.406-.29.075-.614.006-.887-.052zm6.463-1.559c-.076 0-.128-.081-.122-.157a.367.367 0 01.093-.197c.127-.162.376-.307.52-.156-.034.057.007.139.07.18.058.04.134.051.191.092.383.255.093.939.672.997-.092.18-.052.383.168.417.215.035.423.064.637.099a.688.688 0 00.076.429c.029.046.058.098.052.15-.006.059-.052.1-.093.134a5.92 5.92 0 01-.614.464c.04.04.099.058.157.046-.116.012-.232.023-.348.04.058-.098-.029-.22-.127-.278-.099-.058-.215-.08-.296-.156a.298.298 0 01-.034-.371c-.215-.07-.435-.157-.603-.319-.185-.18-.121-.348-.202-.54l-.122-.324c-.046-.203-.324-.104-.052-.301.33-.238.672.07.979.295M28.117 37.8c.082.069.116.179.168.272.122.22.336.37.475.585.174.273.197.62.209.945.017-.099-.093-.186-.191-.168-.099.017-.168.104-.203.197a.837.837 0 00-.301-.267c-.046.134-.232.192-.348.105-.034-.03-.07-.064-.115-.07-.076-.006-.116.093-.186.116-.063.017-.133-.03-.174-.081-.04-.052-.08-.116-.144-.14-.064-.022-.157.03-.133.1a4.058 4.058 0 01-.545-1.027.216.216 0 01-.15.07.666.666 0 01-.018-.702c.26-.423.406-.19.7-.115.238.069.783.029.956.18zm6.933-.534c.058.046.07.127.116.191.156.232.643.064.724.33.035.105-.03.215-.11.296-.076.081-.174.145-.22.243-.053.099-.035.244.07.29a.214.214 0 01-.279-.11c-.023.105-.185.128-.272.058-.087-.07-.11-.185-.133-.295-.099.023-.093.197-.191.226-.145.046-.215-.273-.36-.226-.063.017-.086.098-.139.139-.121.104-.29-.035-.445-.053-.064-.011-.128 0-.191-.005-.267-.024-.423-.32-.528-.534-.353.354-.573-.684.174-.852.464-.098 1.396.018 1.784.302zm5.137 2.074c.238.169.533.244.822.273-.087.168.244.313.209.499-.018.093-.116.145-.203.185l-.816.348c-.052-.133-.284.006-.388-.081-.076-.064-.035-.197-.099-.278a.266.266 0 00-.093-.064c-.185-.093-.37-.186-.561-.273.22-.515-1.28-1.17-.33-1.738.944-.563.99.8 1.459 1.13zm-21.736-2.63c.082.023.168.046.215.121.046.07-.006.191-.087.18.272.15.585.406.486.695-.046.14-.18.232-.231.371-.07.169-.006.383-.116.528-.15.203-.475.116-.7.226a.297.297 0 01-.076.214 4.172 4.172 0 01-.695-.544c.087-.024.168-.053.255-.076-.04-.098-.081-.203-.128-.301.215-.018.197-.365.377-.476.046-.029.11-.04.156-.08a.272.272 0 00.087-.14c.104-.232.209-.498.122-.736m2.971-5.315c.376-.076.764.127 1.002.428.243.296.359.673.446 1.044a1.037 1.037 0 00-.609-.023c-.272.075-.544.278-.816.18a.413.413 0 01-.203-.157c-.214-.302.006-.713.226-1.009-.104-.156-.209-.307-.313-.463m27.058 11.616l-.348 1.773a.58.58 0 01-.092-.307c-.18.214-.36.423-.539.638a.741.741 0 01-.075-.366.698.698 0 01-.122.296c.012-.65.128-1.298.336-1.913-.035-.011-.029.064.006.058.035-.006.052-.046.064-.08l.173-.69.191.243c-.104-.145.145-.325.302-.238.15.087.19.29.214.464a.6.6 0 01.365-.365c.046.11.058.231.035.347l-.035-.145c-.26.11-.48.302-.626.545m-5.455 1.919c.243.278.243.696.191 1.067-.052.37-.133.759.006 1.1-.058-.127-.186-.277-.301-.202-.035.023-.064.064-.105.07-.052.011-.104-.035-.133-.076a.884.884 0 01-.174-.504c.076.023-.029.145-.098.098-.064-.046-.064-.145-.087-.22-.04-.133-.15-.226-.249-.325-.098-.098-.191-.225-.156-.365.034-.133.255-.19.3-.063-.034-.128-.063-.261-.098-.389.11.04.22.076.33.116-.04-.052 0-.127.064-.15.058-.018.128.005.18.034.15.087.26.238.3.4a.794.794 0 01.233-.719m3.775-3.402c.024.214-.023.44-.127.626a.886.886 0 01-.058-.423 3.77 3.77 0 01-.44 1.014.33.33 0 00-.081-.203 6.772 6.772 0 00-.527 1.183 1.277 1.277 0 01-.11-.719l-.017.116c-.076-.191-.157-.388-.232-.58-.023-.058-.047-.116-.058-.173-.064-.325.174-.62.382-.876.203-.255.394-.614.232-.898a.995.995 0 01.08.591c-.045-.127.134-.243.262-.197.127.046.19.191.231.319l.087-.36a.195.195 0 01.237.157c.018.104-.075.214-.179.22m-7.095 2.585c-.087.03-.18.058-.266.087a1.11 1.11 0 00.122.609c-.058 0-.122.006-.18.006a.31.31 0 00.035.284c-.411-.018-.626-.493-.742-.893-.127-.435-.723-1.837.012-1.774.915.081.539 1.38 1.02 1.681zm2.52-2.064c-.023.036.058.053.07.012.01-.04-.024-.075-.059-.104.128.197.25.406.365.615.018.034.04.08.023.121-.017.04-.087.047-.092.006.133.14.231.319.272.51a.266.266 0 00-.168-.127l.104.307c-.162-.099-.457 0-.405.185a2.232 2.232 0 01-.69-1.246c-.005-.04-.029-.098-.069-.098-.046 0-.017.092.006.058m4.558 5.471c.098.377.122.777.07 1.165-.035-.058-.064-.116-.1-.174l-.294 1.38a78.45 78.45 0 00-.325-1.043l-.075.4a1.768 1.768 0 01-.046-1.108.933.933 0 00.139.551 2.02 2.02 0 01.312-1.623.912.912 0 01.093.388m-.226-2.636c-.098.272-.191.55-.29.823-.023-.053-.052-.105-.075-.163a.541.541 0 01-.243.632.269.269 0 01-.278.25c.023-.285.098-.563.22-.818.07.133-.04.325-.191.336-.15.018-.295-.139-.278-.29.011-.075.052-.144.093-.214.231-.365.498-.707.793-1.02.035.081-.035.18-.116.18m8.01-4.07c.029-.023.156-.058.075-.058-.203.197-.405.406-.649.55a.093.093 0 01.006-.086c-.231.238-.469.51-.712.742.006-.075-.006-.157 0-.232-.018.157-.081.325-.116.435a1.977 1.977 0 01-.023-.319c-.047.04-.116.122-.174.168.174-.62.51-1.356.938-1.82a.85.85 0 01-.428.556c.156-.921.706-.886 1.47-.956-.017.215.007.429.065.638m6.115 13.65c-.139.157-.4.22-.561.087-.186-.156-.157-.498-.377-.597a.536.536 0 01-.62.215c-.092-.035-.196-.099-.283-.047-.052.03-.076.093-.122.128-.116.087-.278-.018-.423 0-.18.023-.266.22-.324.388-.156.458-.307.922-.458 1.38.163-.03.325-.052.487-.081.353-.058.782-.093 1.008.185.359-.07.74-.14 1.071.006.052-.25.382-.29.614-.389.927-.388.764-1.292.214-1.825-.029.185-.098.405-.226.55zm-5.536-2.382a3.16 3.16 0 01-.186-.11c.377.034.66-.313.921-.586.15-.156.33-.301.544-.353.215-.053.47.017.58.203.139.237-.006.562-.232.712-.232.151-.521.174-.8.192.041.139.088.278.128.417-.318-.023-.579.429-.863.296-.174-.081-.19-.32-.226-.51-.034-.192-.19-.418-.37-.342m-1.24-1.461c.128-.174.417-.203.574-.052 0-.557.133-1.119.382-1.617a.883.883 0 01-.249.394c-.37-.215.197-1.119.295-1.362-.364.231-.718.382-.938.77-.145.255-.197.638-.208.928 0 .133.18.893.145.939zm5.89-8.643a1.818 1.818 0 00-.845.493c.133.012.272.03.405.04a7.71 7.71 0 00-2.062 1.085c.087.185-.15.417-.336.324-.04-.017-.075-.046-.115-.046-.04.006-.07.04-.093.075a2.02 2.02 0 00-.301.719.333.333 0 01-.238-.174c.018.093.035.186.058.278-.144-.058-.19-.243-.15-.394.04-.145.144-.267.243-.388.307-.4.486-.858.59-1.345.29.794 1.6-.064 1.808-.533-.145.011-.307.005-.47.08a4.435 4.435 0 011.506-.214zm-2.374-1.889c-.238-.058-.498.168-.47.411.018.14.088.325-.034.394-.052.03-.116.018-.18.024-.173.017-.29.185-.347.353-.058.162-.075.348-.18.487-.092.122-.231.197-.347.301-.116.105-.209.261-.15.406a3.291 3.291 0 01.277-1.762c.035-.075.07-.145.081-.226.024-.209-.15-.417-.098-.62.035-.14.168-.232.237-.354.151-.255.058-.649.302-.823.087-.064.214-.116.197-.22-.012-.052-.058-.093-.064-.145-.012-.104.121-.145.22-.157.521-.046 1.36-.307 1.077.481-.081.227-.376.198-.469.4-.035.058-.081 1.038-.052 1.05zm-1.767-10.874c-.005-.058.099-.052.116 0 .018.052-.023.11-.058.15-.11.128-.214.261-.324.389-.052.064-.104.127-.11.209-.017.208.295.324.307.533.006.127-.11.237-.122.365-.006.081.03.156.058.232.295.66.597 1.316.892 1.976a.383.383 0 01-.336-.249c.04.087.087.18.127.267-.44-.348-.88-.696-1.314-1.044.11-.162.411-.121.475.07-.232-.128-.498-.377-.365-.609.04-.075.121-.121.18-.185.248-.255.138-.707-.11-.968-.041-.04-.087-.087-.093-.145-.006-.058.046-.128.104-.104M48.84 40.13c-.024-.024-.041.046-.012.051.029.006.058-.023.075-.052l.255-.394a.39.39 0 01-.226-.348c-.122.11-.249.226-.405.261-.157.035-.354-.035-.394-.191a.483.483 0 01-.075.25l-.191-.152c-.012.151-.058.32-.186.406-.127.087-.342.052-.382-.098-.099.37-.127.759-.081 1.142.318.023.648-.093.886-.308a.735.735 0 01.133.36 3.01 3.01 0 01.26-.76m-2.698-.898a2.328 2.328 0 00-.128-1.015l.053.458a3.59 3.59 0 01-.458-.643c-.093.191-.417.185-.51 0-.017.214-.11.423-.255.585a3.068 3.068 0 00-.017 1.258.432.432 0 00.29-.492l.087.828.428-.655c.04-.058.087-.127.157-.127.069 0 .121.116.052.139a.686.686 0 01-.07-.522m-2.009 1.125c-.14.14-.116.36-.11.55a2.46 2.46 0 01-.325 1.305c.035-.023.012-.093-.035-.087-.04.006-.058.075-.017.093a4.567 4.567 0 01-.36-.893 2.56 2.56 0 00-.051.516 2.412 2.412 0 01-.168-1.229l.174.191c.057-.197-.151-.457.017-.58.162-.121.458.123.568-.046m-6.666 1.467c-.151-.018-.22.185-.186.336.03.116.087.237.076.353a.205.205 0 01-.018.081c-.162-.26-.33-.521-.492-.776-.133-.209-.18-.418.133-.464.365-.052.284.446.487.47zm-3 3.994c.4-.25.758-.563 1.048-.934.052-.07.063-.214-.023-.197.046.03.098.058.144.087-.156-.052-.052-.307.099-.37.156-.064.359-.1.405-.256.023-.087-.017-.191-.098-.232a5.27 5.27 0 000 1.484c-.226.052-.278.337-.313.563-.035.226-.203.504-.417.434l.052.487a1.292 1.292 0 01-.434-.174c-.07.168-.14.33-.209.499-.19-.081-.144-.354-.098-.557.046-.203-.03-.504-.232-.463m-6.833 10.225c.144.307.416.55.73.672a1.116 1.116 0 00-.43-.36c.122.175.313.279.481.412.342.261.597.638.707 1.055-.104-.029-.209-.052-.313-.081-.023.25-.017.504.018.754l-.197-.198c-.128.087-.296.116-.446.087-.307-.063-.516-.353-.62-.643-.11-.296-.145-.609-.284-.893-.168-.353-.486-.643-.538-1.037a.845.845 0 01.608-.899l-.105.209m5.728 7.854a.807.807 0 01-.735.684c-.162.006-.336-.029-.475.047-.128.07-.191.208-.267.336-.104.168-.254.325-.446.37-.197.047-.376-.063-.474-.231-.116.406.168 1.675.706.87.035.028.075.052.116.08.521-.417 1.494-1.454 1.575-2.156zm-7.083.099l.116-.133a.262.262 0 01-.116.133c.162-.076.226-.284.209-.458-.018-.174-.116-.336-.209-.481a6.6 6.6 0 00-.822-1.02c-.035.197-.342.272-.464.11-.011.052-.075.087-.127.07l-.006.625a.29.29 0 01-.121-.278c.26.093.37.389.503.632.145.267.342.498.54.724.034.041.069.082.12.087.053.006.1-.023.151-.04a.36.36 0 01.435.191c.144-.156-.354 0-.209-.162zm5.218-2.47c.116.093-.023.325-.162.267-.093-.04-.122-.15-.156-.244-.04-.092-.14-.185-.226-.139-.127.064-.017.267-.058.4-.342.104-.712.226-.903.528-.047.07-.082.15-.145.208-.07.053-.18.058-.226-.011-.018.26.11.533.324.684-.029-.163.145-.296.307-.33.162-.035.342-.035.475-.134.104-.075.174-.209.301-.22.075-.006.15.035.226.035.197 0 .284-.238.313-.43m-7.419-9.065c.145.139.324.272.353.47.562-.105.788.318 1.245.37.33.035.568-.197.898-.145-.006-.307.214-.388.492-.313-.63-.452-1.65-.376-2.223-.892-.279.209-.614.127-.916.006-.075.19-.005.353.151.504zm4.141-1.264c-.197.122-.446.035-.66-.058a.2.2 0 00.098.197c-.15.261-.133.592-.023.876.11.278.307.516.51.736.04.04.08.087.133.098.052.012.104 0 .15-.017a.882.882 0 00.539-.545c.127.14.33.29.486.186.163-.105.273-.673.406-.864.197-.284.585-.186.37-.591-.237-.458-1.696-.215-2.01-.018zM18.66 43.56c.185.076.307.25.446.4.052.059.104.117.168.169.498.4 1.378.087.996-.58-.324-.574-1.326-.608-1.61.012zm.313-2.092c.122.07.249.15.33.267.081.116.104.284.023.4a1.06 1.06 0 00-.15-.29.32.32 0 01-.29.301.324.324 0 01-.324-.266c-.122.295-.591.365-.794.11l-.035.36c-.561-.013-1.349-.79-.828-1.328.47-.487 1.604.185 2.068.446zm4.28 1.652c.214.064.446-.185.37-.394.093-.093.261-.035.36.058.098.087.19.203.324.22.07.012.145-.011.214-.029a1.2 1.2 0 011.216.47.535.535 0 01-.359-.116l-.011.301a2.35 2.35 0 00-1.298.006c-.017.099-.034.203-.052.301-.18.006-.359.006-.527-.052-.168-.058-.318-.197-.341-.376-.024-.174.075-.371-.03-.51m9.417 2.092c-.034.046-.092.058-.15.07a1.979 1.979 0 01-.846-.012c.203-.174.348-.423.388-.69.04-.249.052-.411.296-.545-.122-.365.115-.678.503-.655-.04-.063-.063-.208-.133-.284.568.081.475.383.463.812-.017.719-.173.864-.52 1.304zm2.144 5.217c-.041.046-.035.116-.059.174-.08.22-.41.156-.62.046-.017.128-.034.255-.12.354-.088.092-.256.116-.331.011.046.064.156-.017.139-.098-.017-.076-.099-.116-.168-.151a.39.39 0 01.29-.365.389.389 0 01.422.191c-.173-.284-.341-.568-.515-.852.232 0 .463.064.66.185a2.089 2.089 0 01-.255-.596.513.513 0 01.591.034c-.075-.063-.093-.319-.104-.411.324-.157.139-1.142.741-1.073.429.053.284.545.278.858 0 .15.052.574-.011.702-.116.237-.371.162-.435.272-.04.075-.017.458-.023.464-.098.116-.4.162-.48.255zm20.669-5.066c-.14.081-.33-.116-.243-.25.017.163.04.331.057.493-.11.03-.202-.08-.295-.15a.52.52 0 00-.533-.052.508.508 0 00-.266.463.997.997 0 01-.47-.278c-.19.33-.283.707-.266 1.09.186.011.36.15.417.33a1.727 1.727 0 001.072-1.072c.127.278.208.574.249.875-.133-.255-.255-.591-.058-.806.087-.092.214-.127.313-.203.098-.075.168-.226.092-.324l.076.11m3.695-1.264l.353.267a.329.329 0 01-.214-.105c.29.261.538.569.741.905l-.851-.348.278.58a2.348 2.348 0 00-.626-.215.437.437 0 00.093.313c-.133-.145-.313-.232-.487-.33-.167-.099-.335-.232-.393-.424-.058-.185.04-.434.231-.463-.243-.163-.156-.62.128-.678.115-.024.237.005.353-.012.116-.017.243-.122.203-.238.15.226.26.481.318.748a.348.348 0 01-.318-.383m-.035 5.635c-.023.168-.046.336-.064.504a.636.636 0 01.243-.418c-.092.163-.19.325-.283.487.156-.237.318-.475.475-.713-.33.284-.655.574-.985.858-.174.151-.365.313-.596.348-.232.035-.504-.11-.516-.342-.012.116-.017.232-.029.348-.093-.128-.006-.296.081-.43l.574-.851c.08-.122.173-.25.3-.319.128-.07.313-.064.406.058a.75.75 0 01.272-.371.532.532 0 01.244.423c-.163-.174.057-.516.283-.44.122.04.267.156.348.058-.006.098-.006.19-.012.29m-2.751-2.186a.608.608 0 01.017.661l-1.135.783a.452.452 0 00-.046-.377c.15-.522.527-.968 1.014-1.2a.13.13 0 01.127.145m-4.853-2.69c-.226-.075-.481.07-.614.267s-.174.446-.215.684l-.225.023c.266.481.052 1.072-.151 1.588-.081.209-.162.43-.127.65.023.133.087.266.063.4-.023.133-.202.249-.295.144.029.116.11.215.22.261a2.018 2.018 0 01-.249-1.27l-.209-1.2a.355.355 0 01-.005-.173c.017-.064.052-.11.087-.168.214-.348.127-.794.034-1.194.076-.012.145-.03.22-.04a.509.509 0 01.365-.61c-.017-.18.116-.342.273-.423.162-.08.341-.092.52-.104a.191.191 0 00.047.145M56.82 74.27c.162-.272.324-.544.486-.811-.29-.017-.584-.04-.874-.058-.075-.006-.157-.012-.22.035-.099.063-.15.232-.267.208-.04.215-.075.447.024.638.098.191.4.29.538.122m-1.981 2.51c.128-.122.255-.25.377-.371.017-.018.04-.041.04-.07.006-.052-.057-.081-.11-.099l-1.019-.272a.532.532 0 00.313.603m2.953.655c.14-.128.244-.284.313-.452a.601.601 0 00-.48.301m-2.757-5.651a.95.95 0 01.278.805c-.006.035-.012.076-.04.105-.059.058-.157.011-.227-.04-.116-.088-.243-.175-.318-.302-.075-.122-.104-.296-.017-.418.08-.121.289-.15.37-.028m3.174-1.079l.504-.643c-.006-.273-.336-.418-.608-.394-.272.029-.533.15-.8.133.169.237.337.47.504.707m.394-3.715c.03-.081.058-.168.035-.255-.017-.087-.104-.162-.191-.133-.035.011-.064.04-.099.058-.382.26-.938-.406-1.314-.134l.017.209-.139.023a.712.712 0 00.48.62.733.733 0 00.76-.203m-1.506 3.032c.08.046.156.093.237.14-.075.167.064.353.18.498.116.145.202.382.063.498a.938.938 0 01-.776-.272c-.092-.093-.168-.22-.139-.348.03-.127.209-.209.296-.11m.584-8.545c.302.296.603.597.904.893-.162-.035-.33.133-.29.296a.894.894 0 00-.793-.099c-.081.029-.162.075-.25.07-.19-.006-.3-.22-.364-.4l-.174-.476a.784.784 0 01.707-.087m-2.942-3.084c.035.041.07.082.11.122-.075-.005-.127-.104-.093-.168a.587.587 0 01.811.058c.03.035.064.081.116.076.046-.006.052-.099.006-.087a.89.89 0 00.567.632.357.357 0 01-.37.034c.006.134-.145.215-.272.25-.261.063-.545.052-.782-.076-.232-.127-.406-.382-.394-.649m.435-3.339c.063.082.12-.092.184-.168.035-.034.087-.046.134-.058a5.763 5.763 0 011.413-.087.267.267 0 01-.278-.04c.19.197.092.521-.018.77a.562.562 0 01-.092.163.44.44 0 01-.25.122 1.189 1.189 0 01-1.163-.423m2.687 2.753c.185.011.348.121.515.191.168.075.388.098.522-.029.046-.046.08-.116.139-.15.144-.082.347.069.474-.03.099-.174-.104-.377-.295-.44-.19-.064-.417-.087-.533-.25v.25a.658.658 0 01-.44-.116c-.087.458-.741.684-1.094.377a.98.98 0 00.173.388 2.197 2.197 0 00-.11-.133m-1.604 9.181c.168.186.342.371.51.557.046.046.092.098.156.11.058.012.11-.006.168-.029.452-.18.857-.464 1.187-.823.052-.104-.093-.209-.214-.203-.122.006-.243.064-.353.023-.093-.034-.163-.139-.267-.133-.093.006-.156.099-.22.168-.064.07-.185.128-.243.058m6.509-17.024c-.07.064-.127.14-.208.186-.22.121-.533-.047-.73.11a.966.966 0 00.145.347 43.326 43.326 0 01-.898-.04c-.011.11-.005.197-.046.301a.126.126 0 01-.11-.04c.625.695 2.514.47 3.075-.25-.174-.029-.388-.087-.579-.04.209-.174.365-.4.388-.672-.318-.105-.77-.134-1.037.098zm-4.094-5.211c-.18.017-.295-.162-.203-.702 0-.011.156-.457.15-.44.14-.191.452-.25.54-.383.023-.034.01-.08 0-.121-.059-.203-.11-.4-.169-.603a.35.35 0 00.417-.174c.076.04.15.075.226.116.15.214-.162.475-.168.736 0 .099.04.185.058.284.07.487-.51 1.252-.851 1.287zm-4.842-6.985c-.087.017-.18.035-.266.058.04.139.116.272.214.382-.092.145-.347.105-.44.25-.098.156.093.342.11.527.018.18-.139.336-.313.383-.173.046-.353.011-.532-.023.266.237.486.521.654.834-.087.11-.278.087-.376-.017-.099-.105-.128-.25-.145-.394a3.306 3.306 0 01.197-1.571c.052-.128.11-.273.063-.4-.023-.064-.063-.116-.07-.18-.01-.145.157-.232.296-.25.14-.017.301-.01.4-.115" fill="#573627"/><path d="M35.722 39.822a.953.953 0 00-.336.08c.052.163.214.262.365.343.15.075.318.15.41.296.093.145.053.382-.11.428.215.058.43.11.65.169a1.563 1.563 0 00-.238 1.084c.012.075.029.15.023.231-.006.081-.04.157-.058.238-.063.255.018.527.093.777-.058-.354-.122-.713-.272-1.044a3.373 3.373 0 00-.452-.69c-.388-.475-.869-.921-1.46-1.078l.238-.133c.359-.33-.62-.574-.243-.945.278-.272 1.048.255 1.39.244zM47.31 27.927l-.15.018c-.122.017-.267.064-.29.18 0-.244-3.098-.73-3.37-.771a.258.258 0 00.115-.232c.255-.122.55.017.823.093.33.092.677.104 1.02.104.196.006.387.006.584.011.133 0 .266.006.4.006.127 0 .3-.07.254-.185.527.185 1.17.023 1.72.017.678-.011 1.362.162 2.033.023l-.359.07c.157.035.313.064.47.098-.157.284-.545.337-.875.337-.33 0-.707.005-.915.255a5.591 5.591 0 00-1.46-.024zm-10.308-.005a.23.23 0 00-.209.22.27.27 0 00-.359-.07 1.483 1.483 0 01-.515-.538c.04.011.08.011.115 0a.344.344 0 01-.029-.273c.087-.006.157.058.226.099.163.092.383.063.539.162.075.052.139.127.226.162s.214-.017.203-.104c.133.052.718.284.85.18a.305.305 0 01-.381-.012.09.09 0 01.011.052.128.128 0 01-.075.11c-.064.03-.133.018-.197-.011-.035-.012-.064-.03-.098-.024-.07.012-.099.099-.151.145-.18.169-.69.058-.278-.226.133-.092.313-.162.475-.174a.787.787 0 01.237.047m5.218.046c-.185.035-.376.128-.561.087-.047.081.017.18.098.22.081.041.174.035.267.035.376.012.915.423 1.17-.093.179-.359-.73-.295-.974-.249zm-2.305-.626c-.359-.035-.677-.371-1.019-.273-.127.035-.237.128-.365.145-.249.035-.486-.22-.724-.139.446.151.84.458 1.095.852l.417-.208a.245.245 0 01.11-.035c.058-.006.11.029.162.052.336.157.69.046.962-.168.173.11.364-.012.225-.197-.156-.197-.66-.006-.863-.03zm-7.645-.933c.07.011.14.017.21.028.34.047.683.099 1.019.169.162.034.33.075.492.063.173-.011.341-.08.515-.087.365-.017.707.22 1.066.192-.185 0-.37.005-.544.07-.174.063-.33.202-.365.388-.047-.134-.215-.192-.354-.174-.145.011-.272.075-.417.092a.721.721 0 01-.63-.231c-.03.07-.065.144-.094.214a.352.352 0 01-.295-.168c-.087.058-.18.11-.266.168a.515.515 0 00-.302-.226c-.22-.064-.944-.104-1.03-.348-.174-.48.799-.18.996-.15z" fill="#573627"/><path d="M37.448 26.71a1.11 1.11 0 00-.307-.063c-.516-.058-1.031-.11-1.547-.168.04.156.215.243.371.267.162.023.324 0 .48.046.169.052.308.174.481.203.134.017.267-.023.4-.03.295-.01 1.257 1.056 1.396.4.075-.364-.417-.353-.58-.4-.243-.057-.445-.156-.694-.254zm-9.8-1.02a5.628 5.628 0 00-.828-.012c-.19.017-.376.052-.567.087-.417.075-.834.157-1.251.232.347.064.689.128 1.036.185.052.012.11.018.163.006.046-.011.087-.04.127-.064.284-.139.614.163.927.11.092-.017.173-.063.266-.092.417-.14.892.104 1.309-.035-.006-.098.127-.15.22-.122.093.03.174.099.266.128.192.052.388-.087.585-.081.11.006.215.052.325.08a.911.911 0 00.567-.045c-.208.092-1.1-.25-1.395-.267a171.15 171.15 0 00-1.75-.11zm-6.613.997c-.226.133-.418.313-.643.44-.493.273-1.124.279-1.547.65-.173.15-.295.348-.457.504-.446.412-1.205.522-1.42 1.09-.051.133-.161.319-.271.232a.748.748 0 01-.487.388c.313.122.631-.133.875-.365a10.72 10.72 0 013.034-1.983c.516-.22 1.043-.4 1.576-.573.197-.064 1.407-.296 1.448-.476.139-.597-1.935-.006-2.108.093zm31.76.098c-.157.024-.307.053-.464.082.041.133.07.272.087.405a.397.397 0 00-.422.354 1.157 1.157 0 01-.713-.348l.075.168a.675.675 0 01-.133-.348.342.342 0 00.417-.19c.035-.1.023-.215.081-.308a.476.476 0 01.168-.133c.47-.261 1.402-1.223 1.912-.655-.244.116-.493.348-.707.533.04-.029-.7.504-.301.44zm-25.945-.081a.495.495 0 00-.244.03c-.058.023-.099.069-.156.092-.099.04-.215.018-.325-.011l-.92-.244c-.064 0-.093.099-.058.15.034.053.104.076.168.094l1.135.307a.71.71 0 00.33.035c.15-.03.278-.157.428-.18.122-.018.238.023.354.058.295.081.66.093.92-.047-.445-.249-1.123-.266-1.633-.284zm6.051.609c.035.122-.006.29.11.336-.133-.231-.411-.324-.666-.405-.724-.226-1.43-.586-2.166-.4.58-.192 2.502-.348 2.722.47zm20.496.423c.093.07.076.226-.005.307-.082.082-.203.116-.313.14-.365.087-.747.173-1.112.104 0 .093-.006.18-.006.272-.4.012-.8-.058-1.17-.214.296-.006.59-.006.886-.012-.011-.15.215-.174.365-.162.458.035.904-.168 1.32-.365.082-.04.174-.087.203-.174.018-.052.012-.105.03-.157.046-.162.3-.249.445-.255.11.337-.382.406-.643.516zm3.209-4.591c-.064.168-.307.255-.435.128.134.11.244.249.319.405-.058.012-.122.018-.185.03-.197.88-.805 1.6-1.39 2.277.318-.637.63-1.275.95-1.912.051-.11.11-.215.162-.325a19.729 19.729 0 00-.024-.585c-.005-.21.782-.766.858-1.085.121-.046.231-.098.37-.075-.255.215-.405.528-.741.655.093.128.174.33.116.487z" fill="#573627"/><path d="M53.571 27.313c-.07.093-.185.18-.295.14-.215-.082 1.025-1.334 1.088-1.45-.231.122-.144.406-.243.614-.139.308-.347.418-.55.696zm-8.907 6.66l.167.899a.594.594 0 00-.104.527.372.372 0 01-.336-.133c.012.133.024.272-.04.388-.058.116-.22.197-.33.122a.29.29 0 01-.099-.133 1.139 1.139 0 01.047-1.05c-.11.041-.22.087-.33.128a.746.746 0 01.584-.817m-.596-3.884a.658.658 0 00.162.54c-.15.22-.26.463-.33.724-.18-.087-.37.104-.567.098-.22-.006-.365-.255-.342-.47.023-.214.156-.4.29-.573m-31.703.621c-.295.11-.26.527-.33.84-.099.434-.48.736-.84.997-.284.208-.625.423-.956.313a1.48 1.48 0 01.695-.325.79.79 0 00-.173-.33.394.394 0 01.26-.099c-.052-.284-.034-.678.25-.736-.07-.128-.134-.255-.203-.383-.174-.324.77-2 1.204-1.054-.139.029-.278.139-.41.173.115.238.294.43.503.603zm-3.232-1.108c-.139.278-.4.609-.689.493-.023.116-.04.237-.064.353-.18-.017-.364-.029-.544-.046-.313.168-.678.25-1.03.226-.4-.023-.858-.273-.852-.672.492.307 1.245-.342 1.668.058-.018-.163.168-.302.318-.244a.572.572 0 01.388-.383m6.25.261c.399.383.868.69 1.372.899-.191.029-.388.052-.58.08a.609.609 0 00.337.343c-.133.133-.047.365-.093.55-.046.186-.214.302-.359.424a2.34 2.34 0 00-.7 1.002 3.646 3.646 0 01-.082-.788c0-.157.099-.371.243-.302-.168-.313.122-.765.481-.736l-.243-.626c.226-.092.075-.434-.099-.608l-.312-.04m-3.881-1.56c.191.081.15.423-.052.464a.6.6 0 01.15.29.555.555 0 00-.445.37c-.058.186-.018.395-.104.569-.093.168-.429.18-.417-.012a.822.822 0 01.463-.47 2.031 2.031 0 01-.516-.48c.174-.081.342-.163.516-.244m-7.095-1.965c.203-.284.406-.562.608-.846.07.29.354.492.65.55.294.058.596 0 .885-.075.157-.04.319-.087.48-.064.163.023.325.14.343.302-.07-.024-.14-.053-.203-.076 0 .186-.22.279-.4.319-.341.087-.689.168-1.03.255-.33.081-.678.168-1.014.087a1.078 1.078 0 01-.707-.55m3.956 5.407c.301.192.7.058 1.013-.11.313-.168.649-.376 1.002-.313.122.024.26.116.232.238a.32.32 0 01-.07.11 2.49 2.49 0 01-.764.533c-.417.186-.91.238-1.315.03a1.137 1.137 0 01-.428-.4m8.392 2.428c.393.186.695.569.781.997-.277.064-.347.522-.098.661a.302.302 0 00-.295.192c-.14.052-.232-.145-.25-.29-.04-.348-.086-.69-.127-1.038m2.16 20.612l.105 1.009-.724-.11c-.307-.047-.672-.145-.747-.44a.26.26 0 01.005-.163c.04-.087.134-.122.22-.15l.788-.267m.481 4.202c.162.035.324.07.486.11-.185.122-.284.337-.394.528-.11.191-.254.394-.469.44-.214.052-.48-.15-.41-.36.34.036.59-.451.358-.706m-.724-7.64c.4.394.915.672 1.46.794-.197.006-.388.006-.585.011a.766.766 0 01-.875.545c-.104-.18-.203-.365-.307-.544-.168-.302-.278-.777.04-.899" fill="#573627"/><path d="M37.888 81.481c.087.082.121.244.173.342.608-.208-.08-1.315-.07-1.321a.123.123 0 00.07-.11c-.086-.076-.231-.052-.295.04a1.082 1.082 0 01.365.417.665.665 0 00-.307.134c.156.452.226.626-.116 1.09a2.305 2.305 0 01-.417.405c-.04.035-.08.07-.121.099-.105.087-.232.18-.365.162.156.174.422.209.648.134.22-.076.4-.238.568-.4.127-.128.255-.325.15-.47m23.971-2.191a1.274 1.274 0 00-1.123-1.008c.087.017.168.029.255.046.092.388.29.754.573 1.038l-.209.087.151.185c-.052.087-.116.064-.145.162.377.29.099.586-.214.783a.648.648 0 00.585-.22c-.012-.053-.07-.076-.099-.122.076-.163.267-.736.226-.95zm9.51.104c0-.133-.03-.336.104-.336-.104-.116-.214-.226-.318-.336.133.029.168-.18.139-.313l-.087-.377c-.023-.105-.052-.215-.133-.29-.082-.07-.232-.075-.278.023l.15.099a1.487 1.487 0 01-.075.168c.156.011.174.237.133.394-.046.15-.081.36.058.435l-.168.087c.04.07.075.145.116.214a.329.329 0 01-.22.064c.214.029-.145.568-.226.614.301.099.816-.052.805-.446zm-1.83.597c.231-.017.463-.104.648-.249a.897.897 0 00-.359-.15c.313-.122.574-.406.585-.737.018-.33-.266-.672-.596-.649.052-.04.058.093-.012.105-.063.011-.156-.006-.174.058l.244.173a.286.286 0 00-.052.377l-.226.017c.029.227.052.464-.018.684-.07.22-.26.418-.492.412m-8.913.956c.22-.29.37-.626.44-.985a.169.169 0 00-.174-.134c.099 0 .191.006.29.006a2.531 2.531 0 00-.759-.846c.058.075.116.145.174.22l-.191.017c-.046.11.017.25.127.29a.399.399 0 00-.04.528.465.465 0 01-.243.093c.156.098.144.336.08.51-.063.174-.15.37-.069.539l-.203.017" fill="#D1BAAB"/></svg>