<svg width="121" height="87" fill="none" xmlns="http://www.w3.org/2000/svg"><path d="M85.894 13.506a82.502 82.502 0 00-.62-4.881c-.406-2.617-.972-5.31-2.442-7.758-.184-.306-.536-.666-.827-.543-.207.084-.215.36-.184.589.283 2.463.988 4.934 1.7 7.398.697 2.433 1.401 4.866 2.098 7.307-.161-1.247-.1-2.48.176-3.635" fill="#D0ACD1"/><path d="M85.894 13.506a82.502 82.502 0 00-.62-4.881c-.406-2.617-.972-5.31-2.442-7.758-.184-.306-.536-.666-.827-.543-.207.084-.215.36-.184.589.283 2.463.988 4.934 1.7 7.398.697 2.433 1.401 4.866 2.098 7.307-.161-1.247-.1-2.48.176-3.635" stroke="#DAC7E1" stroke-width=".23" stroke-miterlimit="10"/><path d="M85.167 14.837a95.098 95.098 0 01-.375-4.927c-.123-2.655-.123-5.417.811-8.095.115-.336.383-.757.69-.688.214.046.275.321.29.55.215 2.48.023 5.05-.168 7.613-.191 2.533-.383 5.057-.567 7.59a10.309 10.309 0 00-.888-3.55" fill="#D0ACD1"/><path d="M85.167 14.837a95.098 95.098 0 01-.375-4.927c-.123-2.655-.123-5.417.811-8.095.115-.336.383-.757.69-.688.214.046.275.321.29.55.215 2.48.023 5.05-.168 7.613-.191 2.533-.383 5.057-.567 7.59a10.309 10.309 0 00-.888-3.55" stroke="#DAC7E1" stroke-width=".23" stroke-miterlimit="10"/><path d="M85.129 15.396c.23-1.623.513-3.252.842-4.874.528-2.61 1.21-5.28 2.764-7.659.192-.298.552-.642.835-.505.199.1.191.375.153.605-.398 2.456-1.21 4.904-2.021 7.337-.804 2.41-1.608 4.812-2.405 7.223.222-1.248.222-2.487.008-3.665" fill="#D0ACD1"/><path d="M85.129 15.396c.23-1.623.513-3.252.842-4.874.528-2.61 1.21-5.28 2.764-7.659.192-.298.552-.642.835-.505.199.1.191.375.153.605-.398 2.456-1.21 4.904-2.021 7.337-.804 2.41-1.608 4.812-2.405 7.223.222-1.248.222-2.487.008-3.665" stroke="#DAC7E1" stroke-width=".23" stroke-miterlimit="10"/><path d="M83.957 19.007c.299-1.86.797-3.673.582-5.547-.36-3.068-.926-6.236-2.818-9.181-.237-.367-.704-.811-1.133-.689-.306.084-.33.406-.314.673.184 2.885.988 5.807 1.784 8.715.781 2.096 1.356 4.483 1.807 6.671l.092-.642z" fill="#D0ACD1"/><path d="M83.957 19.007c.299-1.86.797-3.673.582-5.547-.36-3.068-.926-6.236-2.818-9.181-.237-.367-.704-.811-1.133-.689-.306.084-.33.406-.314.673.184 2.885.988 5.807 1.784 8.715.781 2.096 1.356 4.483 1.807 6.671l.092-.642z" stroke="#DAC7E1" stroke-width=".324" stroke-miterlimit="10"/><path d="M81.607 16.184c.52 1.882 1.577 3.657 2.213 5.516.436-1.844.543-3.412.06-5.218-.773-2.945-1.753-5.967-3.866-8.683-.26-.337-.743-.735-1.11-.59-.26.108-.238.414-.176.674.597 2.77 1.738 5.539 2.879 8.3z" fill="#D0ACD1"/><path d="M81.607 16.184c.52 1.882 1.577 3.657 2.213 5.516.436-1.844.543-3.412.06-5.218-.773-2.945-1.753-5.967-3.866-8.683-.26-.337-.743-.735-1.11-.59-.26.108-.238.414-.176.674.597 2.77 1.738 5.539 2.879 8.3z" stroke="#DAC7E1" stroke-width=".324" stroke-miterlimit="10"/><path d="M80.336 17.285c.765 2.441 2.25 4.545 3.009 6.947.59-2.425-.061-4.422-.605-6.794-.613-2.647-1.44-5.363-3.5-7.735-.26-.298-.742-.635-1.14-.482-.283.107-.283.39-.238.628.43 2.502 1.455 4.973 2.474 7.436z" fill="#D0ACD1"/><path d="M80.336 17.285c.765 2.441 2.25 4.545 3.009 6.947.59-2.425-.061-4.422-.605-6.794-.613-2.647-1.44-5.363-3.5-7.735-.26-.298-.742-.635-1.14-.482-.283.107-.283.39-.238.628.43 2.502 1.455 4.973 2.474 7.436z" stroke="#DAC7E1" stroke-width=".324" stroke-miterlimit="10"/><path d="M83.697 26.007a81.077 81.077 0 00-1.172-4.85c-.712-2.602-1.6-5.287-3.468-7.766-.23-.306-.659-.68-.965-.574-.222.077-.2.352-.145.582.558 2.448 1.584 4.92 2.61 7.383 1.011 2.433 2.03 4.873 3.04 7.306-.306-1.24-.36-2.456-.168-3.588" fill="#D0ACD1"/><path d="M83.697 26.007a81.077 81.077 0 00-1.172-4.85c-.712-2.602-1.6-5.287-3.468-7.766-.23-.306-.659-.68-.965-.574-.222.077-.2.352-.145.582.558 2.448 1.584 4.92 2.61 7.383 1.011 2.433 2.03 4.873 3.04 7.306-.306-1.24-.36-2.456-.168-3.588" stroke="#DAC7E1" stroke-width=".324" stroke-miterlimit="10"/><path d="M81.461 31.371c-.451-3.206.46-5.738-.559-9.05-.298-.973-.689-1.814-.987-2.794a19.838 19.838 0 00-1.302-3.297c-.169-.337-.483-.75-.735-.673-.176.053-.169.329-.138.558.314 2.502 1.003 5.08 1.692 7.644.674 2.54 1.348 5.08 2.03 7.612z" fill="#D0ACD1"/><path d="M81.461 31.371c-.451-3.206.46-5.738-.559-9.05-.298-.973-.689-1.814-.987-2.794a19.838 19.838 0 00-1.302-3.297c-.169-.337-.483-.75-.735-.673-.176.053-.169.329-.138.558.314 2.502 1.003 5.08 1.692 7.644.674 2.54 1.348 5.08 2.03 7.612z" stroke="#DAC7E1" stroke-width=".252" stroke-miterlimit="10"/><path d="M81.675 26.436c-.581-2.632-1.34-5.356-3.085-7.919-.215-.321-.62-.712-.942-.62-.222.07-.215.337-.168.574.436 2.471 1.347 4.988 2.25 7.498.276.765.529 1.653.889 2.38.367.741.934 1.354 1.256 2.142.107.076.268.007.337-.107.068-.115.06-.253.06-.383-.022-.658.031-1.362-.114-2.005-.107-.49-.544-1.032-.483-1.56z" fill="#D0ACD1"/><path d="M81.675 26.436c-.581-2.632-1.34-5.356-3.085-7.919-.215-.321-.62-.712-.942-.62-.222.07-.215.337-.168.574.436 2.471 1.347 4.988 2.25 7.498.276.765.529 1.653.889 2.38.367.741.934 1.354 1.256 2.142.107.076.268.007.337-.107.068-.115.06-.253.06-.383-.022-.658.031-1.362-.114-2.005-.107-.49-.544-1.032-.483-1.56z" stroke="#DAC7E1" stroke-width=".324" stroke-miterlimit="10"/><path d="M83 29.122a44.222 44.222 0 00-1.478-3.336c-.873-1.768-1.922-3.543-3.89-4.881-.244-.169-.673-.33-.964-.153-.207.122-.16.32-.092.482.712 1.69 1.884 3.266 3.04 4.835 1.148 1.553 2.297 3.099 3.445 4.652a5.09 5.09 0 01-.428-2.663" fill="#D0ACD1"/><path d="M83 29.122a44.222 44.222 0 00-1.478-3.336c-.873-1.768-1.922-3.543-3.89-4.881-.244-.169-.673-.33-.964-.153-.207.122-.16.32-.092.482.712 1.69 1.884 3.266 3.04 4.835 1.148 1.553 2.297 3.099 3.445 4.652a5.09 5.09 0 01-.428-2.663" stroke="#DAC7E1" stroke-width=".245" stroke-miterlimit="10"/><path d="M81.86 33.238a41.988 41.988 0 00-.582-3.604c-.399-1.928-.958-3.917-2.52-5.708-.191-.221-.574-.49-.895-.397-.23.068-.238.267-.215.436.26 1.813.988 3.642 1.708 5.455.72 1.79 1.431 3.588 2.151 5.378a5.086 5.086 0 01.268-2.685" fill="#D0ACD1"/><path d="M81.86 33.238a41.988 41.988 0 00-.582-3.604c-.399-1.928-.958-3.917-2.52-5.708-.191-.221-.574-.49-.895-.397-.23.068-.238.267-.215.436.26 1.813.988 3.642 1.708 5.455.72 1.79 1.431 3.588 2.151 5.378a5.086 5.086 0 01.268-2.685" stroke="#DAC7E1" stroke-width=".245" stroke-miterlimit="10"/><path d="M81.032 36.32a61.82 61.82 0 00-.551-3.618c-.36-1.951-.85-3.986-2.113-5.975-.161-.245-.46-.559-.705-.52-.176.03-.176.229-.153.397.253 1.821.865 3.718 1.478 5.6l1.815 5.593c-.146-.925-.1-1.805.13-2.6" fill="#D0ACD1"/><path d="M81.032 36.32a61.82 61.82 0 00-.551-3.618c-.36-1.951-.85-3.986-2.113-5.975-.161-.245-.46-.559-.705-.52-.176.03-.176.229-.153.397.253 1.821.865 3.718 1.478 5.6l1.815 5.593c-.146-.925-.1-1.805.13-2.6" stroke="#DAC7E1" stroke-width=".245" stroke-miterlimit="10"/><path d="M81.3 39.55a61.896 61.896 0 00-.55-3.62c-.36-1.95-.85-3.986-2.114-5.975-.161-.245-.46-.558-.705-.52-.176.03-.176.23-.153.398.253 1.82.865 3.718 1.478 5.6l1.815 5.593c-.146-.926-.1-1.806.13-2.601" fill="#D0ACD1"/><path d="M81.3 39.55a61.896 61.896 0 00-.55-3.62c-.36-1.95-.85-3.986-2.114-5.975-.161-.245-.46-.558-.705-.52-.176.03-.176.23-.153.398.253 1.82.865 3.718 1.478 5.6l1.815 5.593c-.146-.926-.1-1.806.13-2.601" stroke="#DAC7E1" stroke-width=".245" stroke-miterlimit="10"/><path d="M85.412 16.712c.666-3.68 1.149-7.506-.82-10.857-.122-.207-.244-.413-.436-.55-.191-.139-.467-.192-.658-.062-.176.115-.245.329-.291.535-.306 1.34.03 2.74.36 4.07a8.185 8.185 0 00-1.24-2.34c-.085-.115-.215-.238-.353-.2-.16.047-.184.26-.168.43.191 2.363.689 4.903 1.684 7.068a5.198 5.198 0 00-1.255-2.815c.076 1.99.513 3.963 1.27 5.807-.727-1.063-1.447-2.12-2.174-3.175a13.92 13.92 0 001.049 5.516c-.383-.849-.773-1.706-1.156-2.555-.07 1.897.26 3.81.972 5.577a14.145 14.145 0 00-1.723-2.47c-.176 1.774.26 3.541.705 5.27a13.577 13.577 0 00-1.86-4.261 16.046 16.046 0 001.079 5.96 10.113 10.113 0 00-1.991-2.356c.092.857.1 1.752.375 2.57.23.674.728 1.263.85 1.997-.429-.23-.858-.459-1.294-.688a13.5 13.5 0 001.225 4.36c-.513-.282-1.018-.566-1.531-.849a43.227 43.227 0 011.08 9.87c1.102-1.155 1.439-2.83 1.707-4.407a116.16 116.16 0 001.026-7.452c.153-1.56.276-3.13.743-4.629.36-1.147.91-2.226 1.347-3.35.735-1.936 1.11-3.987 1.478-6.014z" fill="#8C64AB"/><path d="M84.493 15.273c-.321-.444-.267-1.79-.352-2.341a30.712 30.712 0 01-.352-3.917c-.015-.635.03-3.734-.337-4.086a8.602 8.602 0 012.512 4.897c.069-.115 1.094-2.18 1.102-2.18.291.068.337.45.322.741a36.57 36.57 0 01-.766 5.846c-.13.62-.352 1.017-.413 1.644-.077.78.007 1.6-.031 2.38a48.626 48.626 0 01-.49 4.828c-.46 3.083-1.156 6.12-1.914 9.142-.666 2.663-1.6 5.486-3.86 7.047-.344-.46.054-1.079.26-1.607.414-1.04.062-2.203-.137-3.313a11.586 11.586 0 01-.13-3.045c.39.092.743.299 1.018.59.054-.429-.145-.85-.29-1.255-.146-.406-.23-.895.022-1.247.245-.36.942-.337 1.011.091a4.95 4.95 0 01-.268-3.427c.237.145.475.283.712.428a7.744 7.744 0 01.107-3.404c.475-.039.965.214 1.21.62a4.975 4.975 0 01-.559-3.191c.475.1.919.337 1.256.68a4.108 4.108 0 01-.835-3.212c.353-.161.797-.1 1.095.152a8.794 8.794 0 01-.635-3.29 1.1 1.1 0 01.742.43z" fill="#B0489B"/><path d="M91.982 50.972c.207-.122.322-.352.436-.559a7.693 7.693 0 013.308-3.19c-.758-3.726-2.986-13.22-11.003-11.392-2.886.658-4.38 1.714-6.447 3.596-1.547 1.415-2.825 3.152-4.571 4.315-3.132 2.073-7.19 1.943-10.804 2.984-6.593 1.897-11.662 8.202-12.106 15.041-.23 3.543.666 7.154-.13 10.612-.138.612-.33 1.3-.008 1.836.283.475.858.674 1.394.78 3.246.651 5.727-.803 8.63-1.79 3.384-1.147 6.921-2.302 10.397-3.144 4.066-.98 7.68-3.695 9.755-7.33 1.93-3.381 2.62-7.559 5.43-10.252 1.913-1.828 3.904-.451 5.719-1.507z" fill="#A07AB6"/><path d="M59.026 65.012c-1.317.642-3.032.872-4.204 1.713a9.174 9.174 0 00-2.994 3.642c.253-.704-.168-1.454-.398-2.165a4.236 4.236 0 01-.061-2.372c.406-1.56.33-2.907 1.118-4.498.789-1.577 1.838-3.023 3.055-4.3-.168-1.048 5-4.093 5.827-4.63 2.052-1.338 3.208-3.235 4.701-5.194.667-.872 1.34-1.752 2.19-2.433 1.915-1.523 4.388-1.852 6.562-2.823 2.121-.949 3.346-2.525 5.039-4.04 1.363-1.216 2.932-2.134 4.984-2.318 2.504-.222 5.092.711 6.877 2.486.137.138.283.299.336.49.13.482-.337.895-.742 1.178-2.864 1.99-5.728 3.979-8.584 5.968-1.416.987-2.84 1.982-4.066 3.198-3.95 3.94-8.231 7.475-12.511 11.048-2.236 1.882-4.503 3.772-7.129 5.05z" fill="#455AA9"/><path d="M63.513 61.76a2.66 2.66 0 00-1.562.1.514.514 0 00-.237.145c-.062.069-.092.168-.13.252-.406.888-1.739.59-2.512.628-.138.467.16 1.017.628 1.155a3.876 3.876 0 00-2.129-.138c-.23.421.085 1.033.56 1.094a3.936 3.936 0 00-3.156.039c.521.336 1.05.673 1.57 1.017-.39-.26-.811-.535-1.279-.581-.474-.038-1.01.237-1.08.704-.13.826 1.057 1.124 1.9 1.079a5.469 5.469 0 00-3.966.719c.36.635 1.148 1.002 1.868.856a7.349 7.349 0 00-2.81.513c-.299.123-.636.352-.575.666.046.222.268.352.475.436.52.222 1.072.367 1.631.436-.628-.107-1.31-.214-1.891.069-.575.283-.911 1.117-.475 1.584.253.26.643.313 1.003.344 5.008.382 10.138-1.071 14.196-4.032 1.118-.819 2.175-1.752 3.438-2.318.85-.375 1.8-.59 2.527-1.171.635-.505 1.041-1.247 1.707-1.714.743-.535 1.509-.78 2.206-1.461 1.432-1.408 2.381-3.236 3.499-4.881 3.407-5.004 8.637-8.653 11.608-13.925.567-1.002 1.271-2.211 2.427-2.211-.061-1.347-.069-2.058-1.118-3.053-.275-.26-3.17-1.66-3.147-1.522a1.53 1.53 0 00.812 1.285 2.764 2.764 0 00-2.343-.597l.643 1.102a3.099 3.099 0 00-2.657-.298c.138.352.383.658.69.872a6.009 6.009 0 00-2.42-.146c.314.253.627.505.942.766l-2.458.137c-.154.52.337 1.125.88 1.071a4.732 4.732 0 00-2.519.33c.115.527.567.963 1.095 1.063a3.7 3.7 0 00-2.703.367c.406.474.965.819 1.57.964a3.307 3.307 0 00-2.198.689c.322.313.636.62.95.933a1.92 1.92 0 00-2.022.742c.36.084.72.176 1.08.26a4.01 4.01 0 00-1.907.413 3.355 3.355 0 001.999.65 4.373 4.373 0 00-2.504 1.18c.321.466.88.772 1.447.787a6.654 6.654 0 00-3.323.85 3.545 3.545 0 002.044.818 5.422 5.422 0 00-2.42.321 4.394 4.394 0 002.428 1.117 10.012 10.012 0 00-3.239.108c.406.757 1.263 1.247 2.121 1.231a4.18 4.18 0 00-3.293.628l1.494.703a11.705 11.705 0 00-4.273.528c.835.39 1.67.788 2.504 1.179a6.23 6.23 0 00-3.675.352 7.06 7.06 0 002.825 1.163 8.22 8.22 0 00-4.74.352 4.77 4.77 0 002.282.742 11.666 11.666 0 00-3.813.382c.62.467 1.378.758 2.151.826a9.144 9.144 0 00-4.61.666c1.073.597 2.42.857 3.37 1.653a5.845 5.845 0 00-3.178-.245c.383.237.774.474 1.157.711a13.455 13.455 0 00-2.596-.382" fill="#8C64AB"/><path d="M91.14 39.128c-1.164-.589-2.412-.956-3.377-1.055a2.44 2.44 0 00.628 1.522 3.3 3.3 0 00-2.826-.903c.016.773.306 1.53.82 2.112a5.547 5.547 0 00-3.04-.008c-.138.643.214 1.362.811 1.645a3.002 3.002 0 00-2.343-.06c-.268.106-.543.297-.574.58-.023.169.061.337.145.49.391.704.973 1.3 1.662 1.714-.919-.612-2.182-.643-3.132-.084a11.316 11.316 0 001.578 1.568c-.43-.053-.858-.114-1.287-.168-.115-.015-.245-.03-.344.038-.192.13-.108.436.023.628a2.79 2.79 0 001.707 1.147c-.865-.183-1.638 1.913-.452 1.66a7.02 7.02 0 00-2.075.26c.161.46.529.834.98 1.01a3.084 3.084 0 00-2.557 1.225c.214.52.705.918 1.256 1.032a9.058 9.058 0 00-2.895.36c.1.658.72 1.186 1.379 1.194a2.537 2.537 0 00-2.474.612l1.272.612c-.98-.383-2.183-.1-2.887.673.23.39.62.681 1.064.78a2.861 2.861 0 00-2.373.352 3.15 3.15 0 001.7 1.11c-1.157-.46-2.558-.191-3.47.658a2.562 2.562 0 001.785.742 3.157 3.157 0 00-2.917.658c.42.168.842.337 1.263.513a5.238 5.238 0 00-3.361.351 2.39 2.39 0 001.7.896 3.614 3.614 0 00-3.071.32 2.73 2.73 0 001.868 1.019 2.948 2.948 0 00-2.733.298c.314.413.75.727 1.24.887a3.741 3.741 0 00-3.246.352 2.447 2.447 0 001.37 1.309c-1.034-.635-2.465-.536-3.4.237.69.36 1.386.711 2.075 1.063a4.379 4.379 0 00-3.797.03c.605.376 1.21.758 1.814 1.133-1.217-.887-3.017-.872-4.211.038.65.475 1.44.773 2.243.834a5.594 5.594 0 00-2.97-.069c.428.291.926.475 1.447.528a10.744 10.744 0 00-4.847.82 2.161 2.161 0 001.738 1.032 2.519 2.519 0 00-2.244.78 7.11 7.11 0 002.297.91 1.821 1.821 0 00-1.225.039c1.233.528 2.665.344 3.928-.115 1.256-.466 2.397-1.193 3.607-1.782 3.024-1.47 6.44-2.035 9.441-3.558 3.047-1.545 5.52-4.01 7.933-6.427 1.76-1.76 3.56-3.588 4.517-5.883.475-1.133.735-2.357 1.363-3.413 1.233-2.065 3.607-3.09 5.75-4.17 2.122-1.07 5.368-3.175 5.23-5.975-.084-1.744-1.7-3.182-3.507-4.1z" fill="#B295C6"/><path d="M60.044 72.953a29.063 29.063 0 01-9.219 1.545c2.083 1.01 4.549.383 6.77-.26 4.762-1.385 9.547-2.57 14.226-4.2 4.288-1.5 7.52-3.887 9.97-7.789 1.186-1.89 1.332-4.3 2.457-6.25.529-.911 1.264-1.691 2.03-2.418 1.653-1.569 3.95-3 6.08-2.196-1.387-.528 3.307-3.864 3.59-4.024-1.233-1.324-.681-2.326-.972-3.833a3.52 3.52 0 00-.123-.49c-.444-1.492-1.6-2.87-2.756-3.84-1.195-1.01-3.27-1.095-1.869.978a3.217 3.217 0 00-2.863-1.262 5.69 5.69 0 00.505 2.219 2.566 2.566 0 00-1.914-1.064c.023.605.16 1.21.383 1.768-.307-.322-.644-.666-1.08-.758-.436-.1-.98.176-.988.62 0 .184.085.352.169.513.252.436.582.833.972 1.162-.314-.168-.666.283-.559.62.107.345.46.536.773.704.314.168.659.375.759.72-.184-.33-.75.038-.674.405.076.367.475.574.82.719.512.222 1.025.428 1.515.688-.865.268-2.442.177-1.945 1.431-.39-.199-.88-.222-1.225.084.153.467.475.88.896 1.14-.59-.183-1.294.26-1.355.873-.054.612.605 1.185 1.194 1.01-.704.175-1.493.29-2.151.566.214.252.55.436.742.734-1.263 0-2.435.169-3.514.895a2.233 2.233 0 001.769.475 4.517 4.517 0 00-2.42.734c-.084.054-.169.123-.192.214-.03.146.092.268.207.36a2.733 2.733 0 001.646.535 3.412 3.412 0 00-2.97 1.186 2.287 2.287 0 001.745.582 6.804 6.804 0 00-3.407 1.201c.36.184.766.298 1.171.329-.55 0-1.117.008-1.646.191-.528.176-1.01.551-1.194 1.071.444.306.995.444 1.531.375-1.21 0-2.42.306-3.484.88.628.39 1.379.574 2.114.52a6.809 6.809 0 00-3.913.704c-.153.077-.322.192-.345.36-.03.222.2.383.414.474a3.143 3.143 0 001.738.184 6.303 6.303 0 00-4.273.734 3.593 3.593 0 002.45.681 8.287 8.287 0 00-3.33.146c-.023.114-.046.222-.062.336a3.51 3.51 0 001.892.505 9.048 9.048 0 00-5.398 1.003 5.654 5.654 0 002.626.696 9.584 9.584 0 00-3.37-.046c-.282.046-.65.23-.573.513.85.244 1.692.49 2.542.726-.161-.046-.912.237-1.134.276-.543.107-1.072.245-1.615.321a.738.738 0 00.59.559c-.98.19-1.96.39-2.933.581.612.107 1.24.138 1.86.084l-3.277.673a4.35 4.35 0 002.014.39l-1.953.322c2.03.015 4.02-.298 5.988-.788" fill="#D0ACD1"/><path d="M24.37 71.592c-.873.069-1.776.145-2.557.543-.781.39-1.432 1.178-1.401 2.058 4.793 1.217 9.839.903 14.747.26a114.563 114.563 0 0016.05-3.282c-8.914-.115-17.926-.253-26.839.42z" fill="#564EA1"/><path d="M24.891 76.143c-.85.222-1.723.46-2.42.987-.696.528-1.202 1.416-1.01 2.273 4.93.344 9.847-.873 14.556-2.38a113.965 113.965 0 0015.199-6.105c-8.79 1.5-17.68 2.976-26.325 5.225z" fill="#564EA1"/><path d="M28.26 75.126c-.85.222-1.723.46-2.42.987-.696.528-1.201 1.416-1.01 2.272 4.931.345 9.847-.872 14.556-2.379a114.476 114.476 0 0015.207-6.105c-8.798 1.5-17.688 2.968-26.333 5.225z" fill="#8C64AB"/><path d="M30.58 78.638c-.804.352-1.63.719-2.236 1.346-.612.628-.964 1.584-.65 2.403 4.93-.421 9.594-2.372 14.012-4.583a114.427 114.427 0 0014.081-8.363c-8.453 2.816-17.006 5.64-25.207 9.197z" fill="#564EA1"/><path d="M31.469 82.15c-.75.459-1.517.933-2.037 1.637-.52.712-.743 1.706-.314 2.471 4.824-1.086 9.18-3.65 13.262-6.45 4.51-3.09 8.79-6.503 12.81-10.198-7.994 3.948-16.087 7.903-23.721 12.54z" fill="#564EA1"/><path d="M34.631 81.507c-.758.444-1.524.918-2.052 1.614-.528.704-.758 1.691-.345 2.464 4.84-1.033 9.22-3.55 13.331-6.297a114.726 114.726 0 0012.933-10.053c-8.04 3.856-16.18 7.72-23.867 12.272zm19.617-40.175c-11.5-2.188-24.663-4.07-36.363-3.16-.168.016-.36.038-.475.169-.206.244.023.604.245.833l4.418 4.622c.75.788 1.509 1.576 2.313 2.318 6.393 5.868 15.628 9.25 23.867 11.484 4.763 1.293 9.709 2.157 14.625 1.744 4.693-.39 17.42-3.626 10.674-9.625-5.269-4.697-12.474-7.084-19.304-8.385z" fill="#8C64AB"/><path d="M66.469 53.122c1.156.421 2.381.674 3.614.758a3.344 3.344 0 00-1.6.78c-.123.107-.23.306-.108.413.046.039.108.046.169.054a2.82 2.82 0 001.554-.33 2.943 2.943 0 00-1.286 1.018 2.46 2.46 0 002.037-.099c-1.249.933-2.298 2.127-3.6 2.984-1.301.857-3.016 1.339-4.425.665-.207-.099-.413-.23-.513-.436-.26-.512.237-1.063.605-1.507.582-.72.888-1.737.551-2.601" fill="#455AA9"/><path d="M41.002 39.09a258.268 258.268 0 00-14.779-1.063c-7.924-.344-16.08-.298-23.491 2.517-.927.352-2.022 1.148-1.662 2.074.26.65 1.095.819 1.792.88 7.458.627 14.954.023 22.412-.574l22.121-1.783A34.299 34.299 0 0136.4 38.51" fill="#D0ACD1"/><path d="M41.002 39.09a258.268 258.268 0 00-14.779-1.063c-7.924-.344-16.08-.298-23.491 2.517-.927.352-2.022 1.148-1.662 2.074.26.65 1.095.819 1.792.88 7.458.627 14.954.023 22.412-.574l22.121-1.783A34.299 34.299 0 0136.4 38.51" stroke="#DAC7E1" stroke-width=".676" stroke-miterlimit="10"/><path d="M43.214 39.297c-4.946.253-9.908.612-14.862 1.094-7.955.773-16.118 1.898-23.4 5.21-.91.413-1.967 1.217-1.554 1.928.291.505 1.14.528 1.845.482 7.504-.474 14.977-1.974 22.42-3.466 7.358-1.476 14.71-2.945 22.068-4.422-3.798.291-7.58.054-11.15-.696" fill="#D0ACD1"/><path d="M43.214 39.297c-4.946.253-9.908.612-14.862 1.094-7.955.773-16.118 1.898-23.4 5.21-.91.413-1.967 1.217-1.554 1.928.291.505 1.14.528 1.845.482 7.504-.474 14.977-1.974 22.42-3.466 7.358-1.476 14.71-2.945 22.068-4.422-3.798.291-7.58.054-11.15-.696" stroke="#DAC7E1" stroke-width=".676" stroke-miterlimit="10"/><path d="M48.16 40.499a352.84 352.84 0 00-14.318 1.928c-7.664 1.2-15.52 2.73-22.473 6.166-.865.429-1.876 1.217-1.455 1.829.291.436 1.11.398 1.784.313 7.228-.91 14.418-2.723 21.562-4.536 7.068-1.79 14.135-3.589 21.203-5.38-3.66.506-7.313.529-10.774.085" fill="#D0ACD1"/><path d="M48.16 40.499a352.84 352.84 0 00-14.318 1.928c-7.664 1.2-15.52 2.73-22.473 6.166-.865.429-1.876 1.217-1.455 1.829.291.436 1.11.398 1.784.313 7.228-.91 14.418-2.723 21.562-4.536 7.068-1.79 14.135-3.589 21.203-5.38-3.66.506-7.313.529-10.774.085" stroke="#DAC7E1" stroke-width=".676" stroke-miterlimit="10"/><path d="M50.741 44.01c-4.326.306-8.652.72-12.97 1.247-6.93.85-14.013 2.043-20.17 5.333-.765.413-1.638 1.201-1.224 1.882.29.482 1.033.497 1.654.444 6.546-.559 13.009-2.096 19.433-3.634 6.348-1.523 12.703-3.038 19.05-4.56a32.075 32.075 0 01-9.839-.536" fill="#D0ACD1"/><path d="M50.741 44.01c-4.326.306-8.652.72-12.97 1.247-6.93.85-14.013 2.043-20.17 5.333-.765.413-1.638 1.201-1.224 1.882.29.482 1.033.497 1.654.444 6.546-.559 13.009-2.096 19.433-3.634 6.348-1.523 12.703-3.038 19.05-4.56a32.075 32.075 0 01-9.839-.536" stroke="#DAC7E1" stroke-width=".676" stroke-miterlimit="10"/><path d="M51.936 43.627a295.2 295.2 0 00-12.129 2.785c-6.478 1.63-13.093 3.566-18.79 7.07-.712.436-1.509 1.193-1.103 1.683.284.352.98.26 1.562.13 6.126-1.346 12.152-3.481 18.14-5.6l17.764-6.29c-3.101.72-6.233 1.033-9.234.919" fill="#D0ACD1"/><path d="M51.936 43.627a295.2 295.2 0 00-12.129 2.785c-6.478 1.63-13.093 3.566-18.79 7.07-.712.436-1.509 1.193-1.103 1.683.284.352.98.26 1.562.13 6.126-1.346 12.152-3.481 18.14-5.6l17.764-6.29c-3.101.72-6.233 1.033-9.234.919" stroke="#DAC7E1" stroke-width=".676" stroke-miterlimit="10"/><path d="M53.536 46.718a238.948 238.948 0 00-11.019 2.326c-5.88 1.385-11.876 3.06-16.975 6.305-.636.405-1.34 1.117-.957 1.614.275.352.911.283 1.432.176 5.566-1.117 11.01-3 16.424-4.881l16.057-5.57c-2.81.604-5.674.803-8.43.589" fill="#D0ACD1"/><path d="M53.536 46.718a238.948 238.948 0 00-11.019 2.326c-5.88 1.385-11.876 3.06-16.975 6.305-.636.405-1.34 1.117-.957 1.614.275.352.911.283 1.432.176 5.566-1.117 11.01-3 16.424-4.881l16.057-5.57c-2.81.604-5.674.803-8.43.589" stroke="#DAC7E1" stroke-width=".676" stroke-miterlimit="10"/><path d="M57.862 43.077a197.467 197.467 0 00-10.865 4.476c-5.75 2.555-11.516 5.478-15.758 10.122-.529.581-1.019 1.538-.429 2.066.421.374 1.072.199 1.593-.008 5.513-2.188 10.612-5.28 15.689-8.347l15.046-9.112a26.87 26.87 0 01-8.744 2.012c1.095-.077 2.358-.26 3.445-.337.23 1.17-.375 2.456-1.424 3.03" fill="#D0ACD1"/><path d="M57.862 43.077a197.467 197.467 0 00-10.865 4.476c-5.75 2.555-11.516 5.478-15.758 10.122-.529.581-1.019 1.538-.429 2.066.421.374 1.072.199 1.593-.008 5.513-2.188 10.612-5.28 15.689-8.347l15.046-9.112a26.87 26.87 0 01-8.744 2.012c1.095-.077 2.358-.26 3.445-.337.23 1.17-.375 2.456-1.424 3.03" stroke="#DAC7E1" stroke-width=".676" stroke-miterlimit="10"/><path d="M57.035 43.605a150.597 150.597 0 00-8.476 5.156c-4.433 2.9-8.783 6.136-11.317 10.78-.314.582-.498 1.5.168 1.92.475.3 1.003.07 1.41-.167 4.318-2.548 8.039-5.861 11.73-9.166 3.652-3.267 7.305-6.526 10.957-9.793-2.16 1.323-4.617 2.241-7.244 2.708.95-.176 2.03-.474 2.979-.65.52 1.04.322 2.272-.46 2.892" fill="#D0ACD1"/><path d="M57.035 43.605a150.597 150.597 0 00-8.476 5.156c-4.433 2.9-8.783 6.136-11.317 10.78-.314.582-.498 1.5.168 1.92.475.3 1.003.07 1.41-.167 4.318-2.548 8.039-5.861 11.73-9.166 3.652-3.267 7.305-6.526 10.957-9.793-2.16 1.323-4.617 2.241-7.244 2.708.95-.176 2.03-.474 2.979-.65.52 1.04.322 2.272-.46 2.892" stroke="#DAC7E1" stroke-width=".676" stroke-miterlimit="10"/><path d="M56.86 46.29a140.94 140.94 0 00-6.287 5.41c-3.277 2.99-6.47 6.227-8.2 10.313-.215.512-.315 1.27.221 1.5.383.168.781-.1 1.08-.353 3.208-2.685 5.911-5.898 8.599-9.089 2.657-3.16 5.314-6.312 7.97-9.472a18.589 18.589 0 01-5.451 3.267c.727-.29 1.539-.688 2.266-.979.452.75.36 1.752-.214 2.372" fill="#D0ACD1"/><path d="M56.86 46.29a140.94 140.94 0 00-6.287 5.41c-3.277 2.99-6.47 6.227-8.2 10.313-.215.512-.315 1.27.221 1.5.383.168.781-.1 1.08-.353 3.208-2.685 5.911-5.898 8.599-9.089 2.657-3.16 5.314-6.312 7.97-9.472a18.589 18.589 0 01-5.451 3.267c.727-.29 1.539-.688 2.266-.979.452.75.36 1.752-.214 2.372" stroke="#DAC7E1" stroke-width=".676" stroke-miterlimit="10"/><path d="M59.493 45.525a136.84 136.84 0 00-5.681 6.052c-2.94 3.328-5.781 6.893-7.075 11.132-.161.528-.177 1.293.375 1.469.39.122.765-.184 1.033-.467 2.91-3.022 5.26-6.503 7.596-9.961 2.313-3.428 4.625-6.848 6.938-10.276a18.673 18.673 0 01-5.077 3.841c.689-.367 1.455-.849 2.152-1.216.528.696.543 1.706.038 2.38" fill="#D0ACD1"/><path d="M59.493 45.525a136.84 136.84 0 00-5.681 6.052c-2.94 3.328-5.781 6.893-7.075 11.132-.161.528-.177 1.293.375 1.469.39.122.765-.184 1.033-.467 2.91-3.022 5.26-6.503 7.596-9.961 2.313-3.428 4.625-6.848 6.938-10.276a18.673 18.673 0 01-5.077 3.841c.689-.367 1.455-.849 2.152-1.216.528.696.543 1.706.038 2.38" stroke="#DAC7E1" stroke-width=".676" stroke-miterlimit="10"/><path d="M61.346 47.208a103.457 103.457 0 00-4.632 5.41c-2.374 2.968-4.61 6.143-5.26 9.876-.085.467.015 1.14.574 1.278.398.1.712-.176.934-.428 2.381-2.701 4.157-5.792 5.926-8.868 1.746-3.045 3.492-6.082 5.245-9.127a14.65 14.65 0 01-4.364 3.458c.612-.337 1.286-.773 1.906-1.11.605.597.766 1.477.376 2.082" fill="#D0ACD1"/><path d="M61.346 47.208a103.457 103.457 0 00-4.632 5.41c-2.374 2.968-4.61 6.143-5.26 9.876-.085.467.015 1.14.574 1.278.398.1.712-.176.934-.428 2.381-2.701 4.157-5.792 5.926-8.868 1.746-3.045 3.492-6.082 5.245-9.127a14.65 14.65 0 01-4.364 3.458c.612-.337 1.286-.773 1.906-1.11.605.597.766 1.477.376 2.082" stroke="#DAC7E1" stroke-width=".676" stroke-miterlimit="10"/><path d="M63.827 46.734a104.963 104.963 0 00-4.203 5.745c-2.137 3.137-4.12 6.48-4.48 10.253-.046.474.1 1.132.674 1.224.406.069.697-.23.896-.498 2.167-2.876 3.706-6.097 5.23-9.295l4.525-9.503c-1.064 1.47-2.45 2.755-4.081 3.78.59-.383 1.225-.872 1.814-1.247.651.55.873 1.415.529 2.043" fill="#D0ACD1"/><path d="M63.827 46.734a104.963 104.963 0 00-4.203 5.745c-2.137 3.137-4.12 6.48-4.48 10.253-.046.474.1 1.132.674 1.224.406.069.697-.23.896-.498 2.167-2.876 3.706-6.097 5.23-9.295l4.525-9.503c-1.064 1.47-2.45 2.755-4.081 3.78.59-.383 1.225-.872 1.814-1.247.651.55.873 1.415.529 2.043" stroke="#DAC7E1" stroke-width=".676" stroke-miterlimit="10"/><path d="M65.014 47.369a84.763 84.763 0 00-2.956 5.172c-1.47 2.808-2.787 5.769-2.595 8.929.023.398.245.925.758.948.367.016.59-.26.727-.505 1.532-2.593 2.466-5.409 3.384-8.209l2.734-8.309c-.75 1.324-1.807 2.525-3.109 3.535.467-.375.973-.842 1.44-1.217.65.39.965 1.087.743 1.638" fill="#D0ACD1"/><path d="M65.014 47.369a84.763 84.763 0 00-2.956 5.172c-1.47 2.808-2.787 5.769-2.595 8.929.023.398.245.925.758.948.367.016.59-.26.727-.505 1.532-2.593 2.466-5.409 3.384-8.209l2.734-8.309c-.75 1.324-1.807 2.525-3.109 3.535.467-.375.973-.842 1.44-1.217.65.39.965 1.087.743 1.638" stroke="#DAC7E1" stroke-width=".676" stroke-miterlimit="10"/><path d="M67.311 46.994a84.756 84.756 0 00-2.956 5.172c-1.47 2.807-2.787 5.768-2.595 8.928.023.398.245.926.758.949.367.015.59-.26.727-.505 1.532-2.594 2.466-5.41 3.385-8.21.91-2.77 1.822-5.539 2.733-8.308-.75 1.323-1.807 2.524-3.109 3.534.468-.375.973-.841 1.44-1.216.65.39.965 1.086.743 1.637" fill="#D0ACD1"/><path d="M67.311 46.994a84.756 84.756 0 00-2.956 5.172c-1.47 2.807-2.787 5.768-2.595 8.928.023.398.245.926.758.949.367.015.59-.26.727-.505 1.532-2.594 2.466-5.41 3.385-8.21.91-2.77 1.822-5.539 2.733-8.308-.75 1.323-1.807 2.524-3.109 3.534.468-.375.973-.841 1.44-1.216.65.39.965 1.086.743 1.637" stroke="#DAC7E1" stroke-width=".676" stroke-miterlimit="10"/><path d="M46.14 39.886c-1.586-.628-3.01-1.454-4.687-2.028-2.833-.979-6.255-.834-9.203-.642-2.06.13-7.489 1.576-9.25.558a29.629 29.629 0 0012.09 3.841 19.05 19.05 0 00-9.295 1.086A42.717 42.717 0 0039.8 43.727c-2.045.283-4.082.573-6.126.857-.865.122-2.006.688-1.677 1.491a42.61 42.61 0 0014.28-.099 31.408 31.408 0 00-7.465 2.854 37.367 37.367 0 0014.686.252 23.18 23.18 0 00-5.452 2.127c5.268 1.944 11.225.084 16.715 1.255 2.129.451 8.063 3.16 9.334.046 1.156-2.846-4.762-5.34-6.63-6.266-6.111-3.03-12.688-4.262-19.289-5.723a12.156 12.156 0 01-2.037-.635z" fill="#8C64AB"/><path d="M67.64 43.757a67.03 67.03 0 00-28.645-5.868c.628 1.34 2.26 1.829 3.699 2.165 4.747 1.11 9.41 1.477 14.219 2.25a20.079 20.079 0 00-10.084.834c.214.566.934.719 1.538.772a74.63 74.63 0 0011.838.23c-2.473.03-5.069.092-7.213 1.324 1.08.719 2.474.673 3.768.596l7.58-.436c-1.539.306-3.086.612-4.625.926-.222.046-.482.122-.543.344-.092.337.352.544.696.597 2.764.444 5.314.482 8.117.298a17.098 17.098 0 00-5.077.888c.705.926 2.045 1.017 3.216 1.002a59.965 59.965 0 005.368-.336c-1.363.62-2.167 2.257-1.838 3.71a8.941 8.941 0 003.668-2.731 9.129 9.129 0 00-2.588 5.6c0 .008 2.787-1.912 3.085-2.333.766-1.079 1.555-2.938 1.141-4.285-.788-2.64-5.053-4.521-7.32-5.547z" fill="#B0489B"/><path d="M95.114 47.323c2.496 1.989 23.262 18.476 24.41 19.448 1.149.98.659.972-.398.543-1.057-.42-26.516-16.043-27.16-16.403.284-1.393 1.655-3.32 3.148-3.588z" fill="#000"/><path d="M92.924 48.876L117.67 65.73 94.448 47.498c-.008.008-1.118.62-1.524 1.378z" fill="#A7A9AC"/><path d="M86.821 42.303c.858.574 1.463 1.485 1.424 2.518 0 .1-.015.206-.084.275-.061.069-.153.092-.245.107-.727.153-1.5.176-2.197-.1-.69-.275-1.271-.88-1.386-1.614-.023-.153-.031-.313-.085-.459a.692.692 0 00-.497-.42c-.077-.016-.161-.023-.215-.077-.413-.42 1.141-.826 1.279-.842.727-.084 1.401.207 2.006.612z" fill="#fff"/><path d="M86.821 42.303c.858.574 1.463 1.485 1.424 2.518 0 .1-.015.206-.084.275-.061.069-.153.092-.245.107-.727.153-1.5.176-2.197-.1-.69-.275-1.271-.88-1.386-1.614-.023-.153-.031-.313-.085-.459a.692.692 0 00-.497-.42c-.077-.016-.161-.023-.215-.077-.413-.42 1.141-.826 1.279-.842.727-.084 1.401.207 2.006.612z" stroke="#5566AF" stroke-width=".557" stroke-miterlimit="10"/><path d="M86.944 42.717c.176.161.283.383.367.612.077.2.13.406.146.62.015.23-.023.474-.176.643a.787.787 0 01-.46.237 1.51 1.51 0 01-.52-.015c-.406-.07-.812-.222-1.08-.528a2.13 2.13 0 01-.337-.551c-.1-.207-.192-.42-.168-.643.015-.168.107-.321.214-.451.115-.13.253-.23.39-.322.092-.06.184-.122.284-.16.283-.107.605-.054.865.092.26.153.46.39.62.642" fill="#8C64AB"/><path d="M86.538 44.492c-1.156.528-2.297-1.477-1.026-2.089 1.194-.573 2.29 1.508 1.026 2.089z" fill="#000"/><path d="M85.65 42.984c-.307.03-.36-.435-.054-.465.305-.038.366.435.053.465z" fill="#fff"/><path d="M85.78 43.237c-.222.023-.26-.313-.039-.343.23-.023.275.32.038.343z" fill="#fff"/><path d="M86.698 42.013c.514.245.927.666 1.241 1.132.314.467.544.995.75 1.523.154.375.299.765.284 1.17a29.51 29.51 0 01-2.328-.382c-.123-.023-.26-.061-.33-.169.269.008.529 0 .797-.022.23-.016.467-.046.666-.154.337-.183.536-.589.498-.971-.038-.375-.276-.696-.49-1.01-.016-.015-.008-.054.007-.038" fill="#5566AF"/></svg>