<svg width="128" height="88" fill="none" xmlns="http://www.w3.org/2000/svg"><path d="M2.071 45.361c.198-.059.407-.096.632-.112 1.124-.065 2.238.701 2.58 1.772.364 1.15.445 1.665-.514 2.532-.77.696-1.943.835-2.923.498-.348-.118-.68-.3-.942-.552-1.419-1.354-.616-3.608 1.167-4.138zm14.31-5.311c-.787.14-1.536.59-1.932 1.254-.402.674-.391 1.605.123 2.205.412.482 1.087.696 1.713.637.632-.059 1.22-.37 1.703-.781.385-.332.722-.745.867-1.232.144-.487.07-1.06-.273-1.434-.562-.61-1.403-.793-2.2-.648zM2.135 31.956c.07-.054.145-.097.225-.145.653-.37 1.456-.92 2.222-.54.39.192.642.578.878.947.16.257.327.52.359.82.037.353-.113.7-.263 1.022-.251.524-.573 1.097-1.124 1.269-.428.133-.889-.006-1.296-.188-.674-.305-1.333-.77-1.595-1.461-.262-.712.038-1.317.594-1.724zm6.725 7.87c-.622.214-1.318.669-1.259 1.322.043.514.552.867 1.044 1.017.359.107.755.15 1.098 0 .203-.09.375-.24.514-.412.359-.444.52-1.092.262-1.606-.257-.514-.99-.771-1.445-.418m7.779-5.53a1.272 1.272 0 00-1.237.262c-.327.3-.477.776-.375 1.21.134.573.723 1.007 1.312.964.589-.043 1.103-.557 1.15-1.146.049-.589-.38-1.178-.952-1.317m-3.876-1.873c-.787-.241-1.858.086-1.178 1.269.294.508 1.103.637 1.51.209.728-.75.289-1.29-.332-1.478zM9.63 25.06c.51-.123 1.066.016 1.253.568.08.235.022.487-.037.728-.06.24-.129.498-.31.669a.924.924 0 01-.52.22c-.653.075-1.36-.429-1.387-1.087-.026-.546.466-.97 1.001-1.098zm-.487 25.859a1.592 1.592 0 00-.67.519c-.738 1.038.162 2.238 1.393 1.825.626-.208 1.097-.856 1.022-1.51-.107-.93-1.017-1.134-1.745-.834zm6.677-28.241c.556-.803 2.023.755 1.134 1.178-.117.059-.257.016-.38-.022-.225-.07-.46-.144-.642-.3-.182-.155-.3-.406-.225-.631a.88.88 0 01.112-.225zm-1.248 31.313c.557-.803 2.024.76 1.135 1.184-.118.059-.257.016-.38-.022-.225-.07-.46-.144-.643-.3-.182-.155-.3-.407-.225-.631a1.03 1.03 0 01.113-.23z" fill="#EFF9FC"/><path d="M45.296 66.98c-.92 3.923-1.9 7.97-4.304 11.21-.728.974-1.606 1.943-1.745 3.153-.091.792.16 1.58.396 2.345.236.76.466 1.558.337 2.35-.128.787-.733 1.558-1.53 1.606-.311.022-.617-.07-.9-.198-1.51-.674-2.313-2.34-2.736-3.94-.675-2.58-.67-5.338.021-7.913.488-1.81.038-2.586.648-4.358" fill="#3C74B4"/><path d="M63.649 54.147c-5.391 2.13-10.804 4.208-16.345 5.894-4.363 1.328-8.876 2.42-13.432 2.21-5.108-.235-10.317-2.087-15.215-.615-1.676.503-3.303 1.467-4.128 3.009-2.195 4.122 2.752 5.359 5.477 6.735a39.757 39.757 0 0012.5 3.903c1.457.198 2.95.396 4.46.567 5.252.605 10.75.92 15.81.048 7.864-1.36 14.572-6.392 20.44-11.8a131.129 131.129 0 0024.53-30.59c.52-.889 1.097-1.83 1.75-2.682-4.85 1.97-9.32 6.028-13.116 9.583-6.504 6.093-13.39 10.038-21.671 13.32-.359.14-.712.278-1.06.418z" fill="#859DC9"/><path d="M16.58 64.773c4.796 1.767 10.68 5.145 18.223 5.638 7.544.492 17.64-2.131 26.292-6.762 8.651-4.63 12.752-8.63 18.636-14.08 5.884-5.455 9.824-10.37 11.928-12.34 2.098-1.97 4.224-4.54 4.224-4.54" stroke="#5F89C1" stroke-width="1.031" stroke-miterlimit="10"/><path d="M15.252 66.176c3.88 1.697 13.924 6.74 24.52 6.478 10.594-.262 19.845-4.176 27.806-9.165 7.96-4.99 16.055-15.83 20.9-20.954 4.846-5.118 8.99-10.766 8.99-10.766" stroke="#5F89C1" stroke-width="1.031" stroke-miterlimit="10"/><path d="M14.973 67.311c3.17 1.82 12.485 6.516 22.909 7.361 10.423.852 18.095-1.22 28.058-7.179 9.963-5.953 23.572-23.679 25.928-26.821 2.355-3.143 6.68-9.498 6.68-9.498" stroke="#5F89C1" stroke-width="1.031" stroke-miterlimit="10"/><path d="M91.327 28.38c-11.473 8.276-26.597 8.351-40.03 10.525-3.875.626-8.056 2.96-11.595 4.599-8.32 3.854-15.162 9.577-23.128 13.866-1.462.787-2.993 1.504-4.197 2.65-1.205 1.145-2.035 2.842-1.655 4.46.386 1.632 2.335 3.142 4.444 4.39-.584-1.382.059-3.652 1.413-4.102 1.628-.535 3.378.118 4.969.75 6.2 2.473 12.913 3.105 18.935-.279 1.52-.85 3.191-1.96 4.861-1.461 1.018.305 1.762 1.146 2.597 1.804 3.153 2.468 10.022-3.207 12.774-5.011a189.116 189.116 0 0025.654-20.167c3.79-3.555 8.261-7.613 13.111-9.583 1.408-1.836 3.105-3.121 5.408-3.443 2.328-.326 4.705-.016 7.029-.406 3.019-.509 5.744-2.185 7.982-4.273 2.238-2.088 4.042-4.588 5.836-7.072.605-.84 1.408-1.9 1.327-2.982-2.821.9-4.893 2.688-8.062 2.688-2.436 0-4.856-.787-7.271-.487-2.403.294-4.534 1.622-6.579 2.917 2.115-1.343 2.227-4.743 1.809-6.895-.54-2.784-2.682-5.488-2.553-8.352.043-.878.332-1.734.739-2.516-1.558.648-2.629 2.083-3.566 3.48-1.826 2.73-3.951 5.648-4.363 8.994-.353 2.843.492 5.776-.155 8.566-.718 3.089-3.16 5.482-5.734 7.34z" fill="#3C74B4"/><path opacity=".58" d="M50.987 62.316c-.99-.396-2.088-.3-3.094-.615a3.83 3.83 0 01-1.778-1.2c.295.53.6 1.082 1.087 1.446.514.39 1.167.535 1.788.723.643.198 1.307.47 1.622 1.087.423.824.643 1.418 1.43 2.012 1.494 1.125 3.26 1.81 5 2.484 1.462.563 3.009 1.14 4.55.884-.16.027-.888-.632-1.054-.734a19.514 19.514 0 00-1.306-.744c-.894-.466-1.81-.883-2.71-1.338-1.048-.53-2.108-1.07-3.056-1.772-.857-.637-1.488-1.831-2.479-2.233zm11.2-7.923c.332-.268.846.059.985.46.14.402.064.846.145 1.264.096.492.407.92.765 1.28 1.858 1.862 4.926 2.093 6.74 3.993-2.35-.926-4.646-1.858-7.082-2.51-.782-.21-1.29-.456-1.532-1.29-.176-.617.011-1.082.113-1.682.027-.086.086-1.686-.134-1.515z" fill="#2F5C8B"/><path d="M45.655 59.849c4.288 1.906 7.886 5.054 11.939 7.414 5.23 3.047 11.35 4.663 17.404 4.465 1.981-.064 16.19-2.355 13.984-5.846-.466-.739-1.488-.824-2.36-.867-8.246-.402-16.051-3.635-23.659-6.826-.551-.23-1.13-.482-1.472-.969-.412-.584-.396-1.36-.626-2.04-.225-.68-.99-1.322-1.606-.958.278-.214.551-.428.83-.637" fill="#3C74B4"/><path d="M42.71 61.422c.279-.176.477-.471.605-.776a2.73 2.73 0 00.177-1.462c-.032-.22-.096-.439-.23-.615-.134-.177-.353-.306-.573-.284-.632.054-1.092.83-1.328 1.338-.24.514-.133 1.189.21 1.665.224.306.684.364 1.027.204.038-.027.075-.048.113-.07z" fill="#fff"/><path d="M41.33 59.923c.176-.846 1.06-1.643 1.407-.744.118.3.048.637-.032.948-.07.257-.155.53-.353.712-.193.187-.52.257-.728.09-.31-.245-.375-.631-.295-1.006z" fill="#2F5C8B"/><path d="M41.388 45.072c-.171.22-.31.562-.107.75.113.101.284.107.434.096a6.542 6.542 0 004.256-1.938c.14-.145.284-.321.252-.52-.049-.331-.498-.4-.83-.353-1.52.21-3.03.707-4.005 1.965zM20.22 59.19c-.407.075-.627.61-.423.969.203.358.739.455 1.076.22.342-.236.433-.782.16-1.093-.278-.31-.872-.246-1.038.134m5.017-4.76c-.423.161-.766.423-.755.771.005.22.214.397.433.429.22.032.44-.043.643-.14a3.456 3.456 0 001.081-.803.417.417 0 00.123-.214c.043-.305-.845-.305-1.525-.043zm6.049-4.705c.241-.118.509-.182.76-.177.273.005.579.155.61.423.033.279-.23.493-.476.616-.37.187-.776.3-1.183.337-.107.01-.22.01-.305-.043-.23-.139-.14-.498.021-.706.14-.183.343-.338.573-.45zm7.789-4.085c.161-.075.327-.156.504-.15.176.01.358.139.364.316.005.117-.07.224-.15.315a4.102 4.102 0 01-1.863 1.28c-.225.075-.514.118-.67-.064-.203-.236.006-.595.23-.809.194-.187.445-.476.697-.578.225-.096.45-.187.674-.278m-2.703 3.395c.176-.086.359-.156.546-.204.332-.085.76.102 1.07.214.065.022.135.054.167.113.026.053.016.112 0 .171-.123.45-.504.803-.932.996-.428.198-.9.262-1.365.316-.177.021-.359.037-.525-.016-.171-.054-.321-.198-.326-.375-.006-.166.117-.31.24-.428a4.746 4.746 0 011.125-.787zm-5.038 3.147c.08.214-.198.52-.62.68-.424.16-.83.112-.911-.102-.08-.214.198-.519.621-.68.423-.16.83-.112.91.102zm10.429-5.284c.053.144-.209.375-.594.52-.38.144-.734.144-.787 0-.054-.145.208-.376.594-.52.38-.145.733-.145.787 0zM16.847 58.825c.054.145-.209.375-.594.52-.38.144-.734.144-.787 0-.054-.145.209-.375.594-.52.38-.144.734-.144.787 0zm30.618-14.187c.053.145-.21.375-.595.52-.38.144-.733.144-.787 0-.053-.145.21-.375.595-.52.38-.144.728-.144.787 0zm9.085-4.748c.224.6-.76 1.526-2.206 2.066-1.446.541-2.795.498-3.025-.101-.225-.6.76-1.526 2.206-2.067 1.445-.546 2.794-.498 3.025.102zm-6.484 1.6c.145.386-.23.884-.84 1.114-.61.23-1.22.102-1.365-.283-.145-.386.23-.884.84-1.114.61-.23 1.22-.102 1.365.284zm-5.61 5.054c.144.386-.23.884-.84 1.114-.611.23-1.221.102-1.366-.284-.144-.385.23-.883.84-1.113.606-.23 1.221-.102 1.366.283zm19.348-7.714c.07.342-.75.792-1.82 1.006-1.076.214-2.003.107-2.067-.235-.07-.343.75-.793 1.82-1.007 1.071-.214 1.997-.107 2.067.236zm-10.9 4.572c.101.337-.664.867-1.713 1.183-1.05.321-1.981.305-2.083-.027-.102-.337.664-.867 1.713-1.183 1.044-.321 1.981-.305 2.083.027zm6.36-1.959c.053.224-.337.508-.873.642-.535.129-1.017.054-1.07-.166-.054-.225.337-.508.872-.642.535-.134 1.017-.054 1.07.166zm8.721-3.283c.054.226-.337.51-.873.643-.535.129-1.017.054-1.07-.166-.054-.224.337-.508.872-.642.536-.134 1.017-.059 1.071.166z" fill="#88A6CF"/><path d="M123.62 16.982a28.795 28.795 0 01-3.164 3.03 28.603 28.603 0 01-7.372 4.4c-2.27.921-4.647 1.548-7.04 2.067-2.131.46-4.412.9-5.975 2.42 1.713-.771 3.496-1.44 5.365-1.649.803-.091 1.611-.091 2.414-.193 1.081-.139 2.136-.45 3.175-.792 1.451-.471 2.885-.996 4.261-1.654 2.506-1.205 4.776-2.87 6.762-4.813 1.745-1.708 4.026-3.828 4.631-6.264-1.28.664-2.11 2.393-3.057 3.448z" fill="#346598"/><path d="M11.354 61.69c1.066-.584 2.297-.835 3.512-.84 1.22-.017 2.436.187 3.603.497 1.173.31 2.313.701 3.459 1.044 1.14.353 2.291.616 3.463.825 1.173.208 2.356.364 3.55.519.594.07 1.188.15 1.772.187.584.054 1.119-.005 1.713-.09a22.12 22.12 0 011.794-.199c.551-.059 1.135-.236 1.702-.396.568-.171 1.14-.348 1.703-.552.556-.203 1.13-.401 1.632-.696l.091.118c-.492.386-1.044.632-1.59.894a23.08 23.08 0 01-1.68.691c-.574.203-1.136.412-1.773.525-.589.123-1.172.235-1.766.332a6.644 6.644 0 01-1.874.08c-.616-.054-1.21-.145-1.81-.225a76.189 76.189 0 01-3.576-.562 25.01 25.01 0 01-3.517-.926c-1.146-.386-2.265-.809-3.41-1.146-1.14-.332-2.303-.594-3.491-.637-1.183-.048-2.383.134-3.47.632l-.037-.075z" fill="#2D5887"/><path d="M67.3 45.768a10.994 10.994 0 012.414-1.156m7.827-.862l1.805-1.188m-4.589-1.741c.509-.31 1.018-.615 1.52-.926m4.921-.723c.54-.3 1.081-.594 1.627-.894m2.324-3.479a10.61 10.61 0 001.692-1.194m2.783 1.124c.579-.39 1.157-.782 1.735-1.167m2.848-3.876l1.285-.765m-35.8 16.617a29.91 29.91 0 012.897-.674m3.019 6.809a12.038 12.038 0 001.515-.904" stroke="#2D5887" stroke-width="1.375" stroke-miterlimit="10"/></svg>