<svg width="76" height="87" fill="none" xmlns="http://www.w3.org/2000/svg"><g opacity=".3"><path opacity=".96" d="M68.208 84.145c-1.08.705-3.067.11-4-.257h-.01l-.073-.027-.01-.01c-.027-.009-.045-.018-.073-.027 0 0-.009 0-.009-.01-.018-.008-.037-.017-.064-.026-.787-.349-3.085-.743-3.085-.743l-.357-.064c-.083.01-.046-.036-.064-.055 0 0-.01-.009-.037 0-.073 0-.119.028-.165.046-.027.01-.046.018-.064.018-.046 0-.064-.018-.082-.036-.01 0-.01-.01-.019-.01-.009-.018-.027-.027-.073-.018a.324.324 0 00-.091.019c-.01 0-.019.009-.028.009a.615.615 0 00-.073.027c-.01 0-.01.01-.018.01-.01.008-.055.054-.065.054-.11 0-.036-.091-.192-.091h-.009c-.027 0-.046 0-.073.009-.055.009-.11.027-.156.037-.018.009-.046.018-.064.027-.01 0-.036.018-.064.037-.01 0-.018.009-.018.009-.01.009-.019.009-.028.009h-.018v-.01c0-.008.018-.027.018-.027v-.027c-.009-.019-.027-.037-.064-.037-.018 0-.027 0-.046.01-.045.008-.091.027-.128.036-.018.01-.036.01-.055.018a2.646 2.646 0 00-.384.138c-.01 0-.019.009-.028.018-.018.01-.036.028-.064.037a.169.169 0 01-.064.018c-.1 0-.082-.055-.082-.092v-.018c0-.027-.028-.046-.11-.046h-.055a.715.715 0 00-.128.019c-.046.009-.092.018-.128.036a.624.624 0 00-.147.055c-.018.01-.037.028-.055.037-.009 0-.018.009-.027.009-.037.01-.055 0-.074-.018-.018-.019-.036-.028-.073-.028a1.92 1.92 0 00-.366.11c-.01 0-.018.01-.028.01-.009.008-.027.008-.036.018-.028.009-.046.018-.073.027-.092.019-.11 0-.12-.018-.008-.019-.018-.037-.082-.028a.497.497 0 00-.137.037.12.12 0 01-.055.018l-.055.028s-.01 0-.018.009c0 0-.01 0-.019.01-.027.008-.064.027-.082.017-.01 0-.01-.009-.01-.009-.008-.018 0-.036 0-.045v-.028l-.246.064-.247.064s-.147.083-.385.23c-.018.008-.046.027-.064.036a6.415 6.415 0 00-.21.128c-.028.019-.056.028-.074.046-.183.11-.403.23-.632.367-.036.018-.064.036-.1.055-.064.036-.138.082-.21.119a.684.684 0 00-.11.064c-.074.036-.147.082-.22.119-.037.018-.074.046-.11.064-.055.037-.12.064-.174.1-.11.065-.23.12-.348.184-.064.037-.128.064-.192.1l-.22.11c-.046.028-.092.047-.137.074a7.308 7.308 0 01-.477.238c-.082.037-.164.083-.247.12-.714.348-1.391.632-1.895.76-.046.01-.1.028-.146.037-.019 0-.028.009-.046.009-.037.009-.064.018-.1.018-.02 0-.038.01-.047.01-.036.008-.064.008-.1.018-.01 0-.028.009-.037.009-.046.009-.092.018-.137.018h-.019c-.036.01-.073.01-.11.01h-.045c-.028 0-.055 0-.083.008h-.43c-.018 0-.037 0-.055-.009-.018 0-.027 0-.046-.009-.018 0-.036-.01-.055-.01-.018 0-.027 0-.045-.008-.028-.01-.055-.01-.083-.019-.018 0-.027-.009-.046-.009-.018 0-.027-.009-.045-.009-.019-.01-.028-.01-.046-.018-.01 0-.028-.01-.037-.01-.018-.008-.027-.008-.046-.018-.009 0-.018-.009-.027-.009-.037-.018-.073-.027-.11-.046 0 0-.009 0-.009-.009-.018-.009-.037-.018-.046-.027-.009 0-.018-.01-.027-.01-.019-.009-.028-.018-.046-.027-.01 0-.018-.01-.018-.01-.019-.008-.028-.017-.046-.027h-.01a.925.925 0 01-.146-.119l-.009-.009c-.018-.01-.027-.027-.046-.046l-.009-.009c-.064-.064-.11-.137-.165-.21v-.01a.207.207 0 00-.036-.055 1.961 1.961 0 01-.202-.577c-.201-1.035 2.536-3.014 2.536-3.014l-.402-.028c.045.01-.184 0-.23-.01-.164-.018-.31-.045-.457-.063-.037-.01-.293-.055-.293-.074 0-.018.265-.036.256-.045-.055-.055-.43-.065-.43-.129 0-.027.247-.046.229-.046-.11-.064-.403-.1-.55-.155-.082-.028.22-.064.22-.074a1.297 1.297 0 00-.256-.064c-.037-.009-.083-.009-.12-.018-.017 0-.027-.01-.036-.01-.018 0-.027-.008-.046-.008-.018 0-.036-.01-.045-.01-.01 0-.019-.009-.028-.009a.457.457 0 01-.064-.027c-.009-.01-.018-.01-.018-.018 0-.01.009-.01.018-.019.046-.018.174-.018.183-.037 0-.036-.11-.064-.229-.082-.027-.01-.064-.01-.091-.018-.092-.019-.183-.028-.22-.046-.027-.01-.01-.018.018-.028.037-.009.092-.018.101-.027 0 0 0-.01-.009-.01a.293.293 0 00-.12-.045c-.145-.037-.347-.064-.402-.12h.01c.027-.008.155-.027.2-.036h.01c-.01-.009-.018-.009-.046-.018-.018-.01-.046-.01-.073-.018-.028 0-.064-.01-.1-.01-.074-.009-.157-.009-.239-.018-.036 0-.073 0-.11-.01-.036 0-.073-.008-.1-.008-.028 0-.055-.01-.074-.01-.027 0-.192-.027-.174-.036a.36.36 0 01.12-.046c.027-.009.045-.009.045-.009s-.155.01-.229.01h-.42c-.248-.01-.404-.028-.596-.037a3.057 3.057 0 00-.412 0c-.064 0-.678.036-.678.009 0-.01.12-.037.184-.064.027-.01.045-.019.036-.028-.009-.01-.045-.018-.082-.028h-.723c-.028 0-.248 0-.238-.018 0-.009.009-.018.036-.018.01 0 .019-.01.028-.01a.13.13 0 01.055-.018c.009 0 .009-.009.018-.009.027-.009.046-.018.037-.027-.101-.064-.412-.019-.632-.019h-.055a.432.432 0 01-.128-.018c-.01 0-.019-.01-.028-.018-.009-.01 0-.019.01-.028.018-.018.064-.036.064-.055 0-.009-.01-.018-.028-.027-.174-.064-.742.046-1.016.009-.037-.01-.055-.018-.055-.028v-.009c.009-.036.082-.091-.083-.1-.292-.01-.677.064-.997.082h-.138c-.027 0-.036-.01-.046-.01 0-.008.019-.027.028-.045.009-.01.018-.018.018-.028l-.009-.009c-.018 0-.082.01-.156.019-.036.009-.064.009-.1.018-.019 0-.028.01-.037.01h-.027c-.064.008-.12.017-.183.017l-.54.055c-.056 0-.239.019-.376.028-.082 0-.147 0-.156-.01-.018-.017.046-.036.074-.045.009 0 .009-.01.009-.01s0-.008-.01-.008c-.009 0-.027-.01-.064-.01-.082 0-.164 0-.247.019-.192.027-.403.064-.595.1l-.192.028c-.22.028-.128-.037-.348-.037-.055 0-.11.01-.174.019-.036.009-.064.009-.1.018l-.165.028c-.028.009-.064.009-.092.018-.027.01-.064.01-.091.01-.028 0-.065.008-.092.008h-.23c.01-.009.028-.018.018-.018 0-.01-.018-.01-.045-.01-.028 0-.065 0-.101.01l-.21.027c-.01 0-.028 0-.037.01a.484.484 0 01-.202-.01l-.357-.091c0 .009-.183 0-.357 0h-.247c-.028 0-.165.009-.32.018h-.065c-.045 0-.082.01-.119.01-.036 0-.073 0-.1.008h-.1c.073-.036.339-.036.412-.073.018-.009-.037-.018-.128-.018h-.586c-.137-.01-.284-.01-.421-.019a5.844 5.844 0 01-.65-.073c-.01 0 .018-.009.064-.009.055-.01.137-.018.22-.028.11-.018.192-.036.164-.045-.073-.037-.302-.064-.567-.083-.357-.027-.797-.046-1.044-.1a.46.46 0 01-.146-.046c-.01-.01.054-.019.146-.028l.183-.027a2.32 2.32 0 00.156-.019c-.101-.018-.22-.036-.339-.064-.082-.018-.165-.027-.247-.046-.083-.018-.174-.027-.256-.045-.34-.065-.66-.138-.834-.239-.027-.009-.045-.027-.064-.036-.046-.037.385-.064.385-.064s-.88-.174-1.2-.312c-.009 0-.027-.01-.054-.018-.055-.019-.147-.046-.211-.074-.01 0-.018-.009-.037-.018-.018-.01-.036-.018-.055-.027-.027-.019-.036-.037-.018-.046.018-.01.046-.01.082-.01.083 0 .202.01.275 0 .018 0 .028-.009.037-.009 0 0-.614-.339-.641-.357-.055-.046.037-.064.11-.092.009-.009.027-.009.036-.018.01 0 .01-.009.01-.009.009-.01.009-.018.009-.018s0-.01-.01-.01c-.045-.073-.32-.174-.347-.274-.01-.019 0-.046.027-.064a.174.174 0 01.046-.028c.037-.01.082-.018.11-.028.009 0 .018-.009.027-.009.018-.009.028-.018.018-.027 0 0 0-.01-.009-.01a.213.213 0 00-.064-.063c-.009-.01-.018-.019-.027-.019-.073-.055-.174-.1-.238-.155-.046-.037-.083-.074-.092-.12 0-.009.028-.009.064-.009h.165c.01 0 .018 0 .018-.009 0 0 .01-.01 0-.01-.018-.082-.549-.42-.558-.521a.02.02 0 00-.018-.019c-.037-.027-.083-.046-.028-.055h.092c.046.01.091.019.146.028.028 0 .064.009.092.009h.027c.028 0 .055-.01.083-.018.009-.01.018-.01.027-.019.01-.009.01-.009.01-.018v-.018c-.02-.064-.166-.156-.257-.22-.018-.019-.037-.028-.055-.046a.07.07 0 01-.018-.037c0-.009 0-.018.009-.027v-.01c.009-.008.009-.018.018-.018.01-.009.018-.009.037-.018 0 0 .009 0 .009-.01.009-.008.018-.008.037-.017.009 0 .009 0 .018-.01.009 0 .018-.009.036-.009.037-.009.074-.027.101-.037.01-.009.028-.009.028-.018.027-.018.027-.036-.01-.064-.137-.082-.695-.302-.54-.43.046-.037.339.018.385-.037.137-.183-.44-.293-.339-.468.027-.045.32.028.357.019.192-.092-.128-.293-.183-.367 0-.009-.018-.064-.01-.073.486-.23-.402-.33-.164-.54.082-.074.21.027.32-.01.129-.036-.31-.375-.164-.504.064-.055.284.055.311-.036.01-.037-.046-.11-.092-.184-.009-.009-.018-.018-.018-.027 0 0 0-.01-.009-.01-.01-.008-.01-.018-.018-.018 0 0 0-.009-.01-.009 0-.009-.009-.009-.009-.018 0 0 0-.01-.009-.01 0-.008 0-.008-.009-.018v-.064c0-.009.01-.009.01-.018 0 0 0-.01.008-.01.01-.008.019-.008.028-.018.018-.009.036-.009.055-.009.027 0 .064.01.1.01h.028c.064.009.128.027.146.009l.028-.028v-.009c.009-.01.009-.018.009-.028v-.046c0-.009 0-.009-.01-.018 0-.009-.008-.018-.008-.027-.019-.037-.046-.073-.055-.11l-.202.055c0 .018 0 .027-.027.037a.981.981 0 01-.165.027c-.037.01-.064.01-.091.01-.037 0-.055-.01-.065-.02a.07.07 0 01-.018-.036v-.027a.07.07 0 00-.018-.046c-.01-.01-.028-.028-.064-.028h-.028c-.027 0-.064.01-.11.019-.009 0-.027.009-.045.009-.083.018-.174.046-.257.064-.018 0-.036.01-.046.01-.045.008-.082.008-.1-.01-.046-.037-.018-.156-.11-.174h-.037c-.009 0-.018 0-.036.01-.019 0-.046.008-.064.008-.028.01-.064.01-.092.019-.128.027-.275.064-.348.064-.137 0-.137-.055-.119-.11 0-.019.01-.028.01-.046 0-.01.009-.028.009-.037v-.018c0-.01 0-.01-.01-.018-.009-.01-.018-.019-.036-.019-.101-.018-.312.064-.486.083a.285.285 0 01-.155-.019c-.01-.009-.018-.009-.018-.018-.01-.036.073-.091.1-.128.01-.018.01-.037-.046-.037-.064 0-.137-.009-.201-.009-.21-.01-.412-.027-.485-.11-.018-.018.027-.046.073-.073.018-.01.037-.018.046-.028.009-.009.027-.018.027-.027.01-.01.01-.018-.009-.018h-.018a4.185 4.185 0 00-.348-.019c-.082 0-.156-.009-.229-.018-.018 0-.037-.01-.055-.01-.037-.008-.064-.008-.091-.018-.037-.009-.074-.027-.092-.055-.01-.018.01-.036.037-.064.018-.018.045-.027.073-.046.018-.009.037-.018.037-.027.009-.01.009-.01.009-.018a1.31 1.31 0 00-.303-.083c-.155-.027-.31-.064-.42-.156a.216.216 0 01-.074-.082c-.009-.018-.009-.028-.009-.037 0-.009.01-.018.018-.018.01-.01.028-.01.046-.01.082-.008.21-.008.266-.036.009 0 .009-.009.018-.009.018-.018-.018-.055-.064-.092-.046-.036-.092-.064-.128-.091-.019-.01-.028-.028-.037-.037-.018-.018-.018-.037-.018-.055 0-.018 0-.037.009-.046.027-.055.119-.1.165-.174a.194.194 0 00.036-.128c0-.01-.009-.018-.027-.046-.018-.027-.046-.073-.046-.1 0-.01.01-.019.018-.028h.01c.009 0 .018-.01.027-.01.018-.008.046-.008.073-.008.046-.01.1-.01.137-.019.028-.009.055-.009.065-.018a.214.214 0 00.064-.055c.009-.018.018-.028.018-.046s.01-.036.01-.046c0-.036 0-.073-.01-.1v-.046c0-.019.01-.046.018-.055.019-.028.083-.037.147-.037.018 0 .036 0 .046-.01.045-.008.091-.017.11-.036.036-.027.045-.073.036-.11 0-.036-.018-.082-.018-.119v-.027c0-.019.009-.028.009-.046.009-.018.037-.037.073-.055.055-.028.21 0 .266-.028.082-.036.1-.091.11-.155 0-.019 0-.037.009-.055v-.028c0-.027 0-.046.009-.073 0-.01.009-.018.009-.018a.136.136 0 01.027-.037c.083-.092.312-.138.44-.183.027-.01.055-.019.073-.028.11-.073.11-.174.12-.266v-.027a.28.28 0 01.027-.128c.073-.138.402-.12.503-.165.018-.01.028-.018.028-.028.009-.018.009-.036.018-.055.01-.036.018-.082.027-.128a.388.388 0 01.055-.128.466.466 0 01.193-.183c.082-.056.274-.037.375-.028h.055c.046-.064.073-.12.11-.183.018-.037.036-.083.064-.12a.69.69 0 01.155-.183l.019-.018a.244.244 0 00.055-.046c.046-.027.1-.064.155-.082.01-.01.028-.01.037-.019a.297.297 0 01.128 0c.046 0 .092.01.1 0 .083-.073.092-.183.147-.293a.398.398 0 01.266-.201c.018-.01.037-.01.055-.01h.055c.009 0 .027 0 .036.01.028 0 .055.009.083 0 .027 0 .055-.01.091-.028a.585.585 0 00.183-.128c.019-.028.046-.046.064-.073a.512.512 0 01.055-.074.86.86 0 01.34-.302c.118-.055.173-.01.237.01a.293.293 0 00.083.008c.009 0 .018 0 .027-.009.137-.046.412-.339.677-.486l.11-.054a.429.429 0 01.238-.046c.055.009.083.036.092.073 0 .01.037.037.037.037s.018-.019.055-.046c.009-.01.018-.01.027-.019.01-.009.018-.009.027-.018a.126.126 0 01.037-.027c.018-.019.037-.028.064-.046.083-.055.192-.11.302-.138l.147-.027c.046-.01.091-.018.146-.028l.138-.027c.045-.01.091-.027.146-.046.01-.009.037-.009.064-.027.018-.01.028-.01.046-.019.046-.018.091-.036.128-.045.018-.01.037-.01.055-.01h.027c.037.01.055.028.065.046 0 .01.009.019.009.019.009.027.018.055.064.064h.009a.07.07 0 00.037-.019c.009-.009.018-.009.027-.018.018-.01.037-.028.064-.046.11-.073.256-.183.33-.165.018 0 .027.01.045.019h.01c.009.009.018.009.027.018v.01c.01.008.01.017.01.027v.027c0 .037 0 .073.027.11l.027.028c.018.009.028.018.055.018.128.027.504-.165.687-.174.357-.019.192.192.467.21.174.01.448-.229.769-.22.229.01.046.239.32.248.028 0 .302-.183.394-.11.146.11.055.293.311.385.137.046.559-.083.65.018.064.064-.073.33.073.357.092.019.348-.045.467 0 .165.055-.448.294-.256.33.165.037.366-.064.449.028.073.092-.495.513-.348.54.073.019.338-.055.412-.018.045.019-.202.33-.275.43 0 0 .293-.027.275.056a.494.494 0 01-.055.128l-.055.082-.055.083c-.018.027-.037.046-.055.073-.064.074-.1.128-.082.138.027.009.082 0 .137-.01.037-.009.073-.018.11-.018.018 0 .036-.009.055-.009.036 0 .064 0 .082.01.046.027-.632.448-.448.448.064 0 .128-.009.192-.018.036-.01.073-.01.11-.019h.027c.037 0 .073.01.092.037.009.01.009.019.009.019.018.11-.339.256-.366.384v.028c0 .037.064.027.137.009.018-.01.046-.01.064-.018.073-.019.156-.028.183-.01.137.11-.375.321-.513.44-.018.019.074 0 .156-.009.028-.009.064-.009.082-.009h.019c.018 0 .027 0 .036.01h.01c.009 0 .009 0 .018.008h.009l.01.01h.008c.01.009.01.009.01.018v.046c.668 0 1.995-.138 3.204-.257.036 0 .073-.01.1-.01.028 0 .065-.008.092-.008.073-.01.147-.019.22-.019.018 0 .036 0 .045-.009.083-.009.165-.018.248-.018h.027c.083-.01.165-.018.247-.018.33-.028.742-.074 1.209-.129.201-.018.403-.046.622-.073a50.463 50.463 0 001.319-.156c1.2-.137 2.38-.275 3.076-.33.064 0 .119-.009.174-.009h.32c.037 0 .074 0 .101.01h.018c.028 0 .055.009.083.009h.009c.027 0 .046.009.064.018.018.009.037.009.046.018h.009a.07.07 0 00.037.019h.009c.009.009.009.018.018.018v.009c0 .01 0 .018.01.028v.009c0 .009 0 .018-.01.027 0 0 0 .01-.01.01 0 .008-.008.018-.017.027l-.01.009c-.009.01-.009.018-.018.018l-.018.019-.019.018c-.009.01-.018.018-.027.018-.01.01-.018.01-.028.019a.126.126 0 01-.036.027c-.01.01-.018.01-.028.018l-.027.028c-.018.018-.046.027-.073.046 0 0-.01 0-.01.009-.036.027-.082.046-.118.073-.01 0-.01.01-.019.01-.046.027-.082.045-.128.073-.082.045-.174.082-.247.119-.01 0-.018.009-.018.009-.01 0-.019.01-.028.01-.018.008-.027.008-.037.017-.009 0-.009.01-.018.01-.018.009-.027.009-.036.018l-.019.01c-.018.008-.027.008-.036.017h-.01c-.009.01-.027.01-.036.019h-.01c-.008 0-.018.009-.027.009-.009 0-.018.009-.018.009h-.01 2.546c.037 0 .073 0 .11-.01h.101c.045 0 .082 0 .128-.008h.055c.036 0 .073 0 .11-.01h.064c.027 0 .064-.009.091-.009.018 0 .046 0 .064-.009.028 0 .055-.009.092-.009a.18.18 0 00.064-.01c.027 0 .055-.008.082-.008h.055c.028 0 .055-.01.073-.01.019 0 .037-.009.055-.009.028 0 .046-.009.074-.009.009 0 .027-.009.036-.009h.01c.018 0 .045-.01.063-.018.01 0 .028-.01.037-.01.027-.009.046-.009.064-.018.01 0 .018-.009.028-.009a.444.444 0 00.064-.027c.009 0 .018-.01.018-.01.018-.009.027-.018.037-.018.009 0 .009-.009.018-.009a.072.072 0 00.037-.037 2.114 2.114 0 01.238-.238c.073-.064.155-.119.238-.174l.192-.11a4.867 4.867 0 01.705-.284c.055-.018.1-.037.156-.046l.302-.082c.119-.037.247-.064.375-.092l.384-.082c.193-.037.385-.074.577-.101l.21-.028c.129-.018.266-.036.395-.055.576-.073 1.126-.119 1.565-.165 1.547-.146 2.92-.403 2.802.321-.12.724-2.811.724-3.562.87-.76.147-1.135.56-1.135.56-.64.733-.75 1.062-1.218 1.649l-1.419 1.777-.055.138v.009c0 .027.193.092.312.064.045-.01.1-.055.164-.055.046 0 .238.083.248.073.073-.018.027-.064.082-.082.046-.018.147.01.174.018.156.028.256.128.44.147.11.009.09-.11.256-.092.155.019.311.064.412.11.036.019.1.092.164.092.055 0 .028-.101.12-.092.274.028.338.129.512.193.028.009.156-.092.275-.074.256.028.238.165.375.239.01 0 .11-.065.138-.074a.188.188 0 01.173.028c.083.046.037.229.22.238.128.01.202-.147.366-.147.129.01.211.193.23.23a.445.445 0 00.137.082l.238.183c.119.073.174.138.42.165.074.01.11-.082.166-.064.21.055.119.229.32.302.01 0 .037-.046.046-.046.018-.009.073.01.073.01.22.082.247.22.33.339.009.009.073-.037.1-.037.12 0 .165.055.193.092.036.045.045.1.055.155 0 0-.01.037.018.037.073-.01.082-.082.183-.037.1.046.092.101.1.165 0 .019-.008.055.028.064.073.019.138-.073.22-.036.073.036.091.091.1.146v.037s0 .01-.009.018c0 .01-.045.037-.009.037.028 0 .046-.037.074-.037.091-.018.137.101.137.12a.72.72 0 01.018.201v.055h.018c.01 0 .028-.01.055-.018a.17.17 0 01.064-.019h.037c.01 0 .018 0 .028.01a.155.155 0 01.054.055c.01.009.01.018.01.036 0 .019 0 .046-.01.074-.009.036-.018.073-.027.1 0 0-.01.01-.01.019-.008.018-.036.055-.027.064 0 0 0 .009.01.009.018.01.045-.01.073-.028.018-.009.036-.009.046-.009.073.019.1.074.1.129v.082c0 .01-.009.027-.018.046v.027c0 .01.01.01.018.019h.01c.009 0 .018-.01.027-.01.018-.009.027-.018.036-.018h.019c.009 0 .027 0 .036.01.019.008.037.027.037.036v.01a.264.264 0 01.028.146c0 .009 0 .009-.01.018 0 0 0 .01-.009.01 0 .008-.009.017-.009.027v.009c0 .009.01.009.018.018.055.018.183-.037.238-.018.083.018.046.073.028.128 0 .01-.01.018-.01.028 0 .018 0 .036.02.045.008.01.026 0 .045-.009a.198.198 0 01.046-.027c.009 0 .009-.01.018-.01.018-.009.036-.009.046.01.018.027.018.064.027.1 0 .019.01.037.018.055 0 .01.028.019.055.028.028.01.046.01.046-.01l.128.138c.019.01.028.019.046.028.01 0 .01.009.018.009.01.01.019.01.028.018.01 0 .01.01.018.01.01 0 .019.009.028.009.009 0 .018.009.027.009h.019a.377.377 0 00.1.009c.202 0 .485-.1 1.044-.183.842-.129 2.05-.321 2.893-.257h.037c.045-.009.073-.009.073-.009l-.019.01h-.027c.027 0 .055 0 .073.008h.028c.036 0 .064.01.091.01h.138c.018 0 .036.009.055.009h.036c.019 0 .037.009.055.009h.018c.028.009.046.009.064.018.019.01.037.01.055.018.01 0 .01 0 .019.01.009 0 .027.009.036.009.01 0 .01.009.019.009s.018.01.027.01c0 0 .01 0 .01.008.008 0 .018.01.027.019 0 0 .009 0 .009.009l.027.027.028.028.009.009.018.018.01.01.018.018.009.009c.01.009.01.018.018.027.01.01.019.028.028.037.009.01.018.028.018.037.037.21-.769.54-1.172.87a.354.354 0 00-.082.082c0 .01-.01.01-.01.019s-.009.009-.009.018c0 .01-.009.01-.009.019s-.009.018-.009.027c0 .01 0 .01-.009.018 0 .01-.01.019-.01.028v.027-.027.073c0 .01 0 .01.01.018v.019c0 .009 0 .009.01.018l.008.018c0 .01 0 .01.01.019l.009.009c0 .01.009.01.009.018l.009.01c0 .009.01.009.01.018l.008.009c0 .009.01.009.01.018l.008.01c.01.008.01.008.019.018l.009.009.018.018.01.01.018.018.009.009.027.027c.01.01.019.01.028.019 0 0 .009 0 .009.009l.018.018.01.01c.009 0 .009.008.018.008l.009.01c.01 0 .01.009.018.009l.01.009c.009 0 .009.01.009.01l.009-.02.009.01s.009 0 .009.01l.01.008s.008 0 .008.01l.01.009h.009s.009 0 .009.009h.009l.01.009h.026c.466.522.448 1.063.366 1.603-.083.541 1.016.752 1.721 1.246.687.495 1.465 1.567.293 2.328z" fill="#937E71"/><path opacity=".3" d="M39.67 73.049c-.018-.01-.018-.01 0 0 0-.01.01-.01.019-.01h.037c-.01 0-.019.01-.028.01h-.028z" fill="#9C6F4B"/></g><path d="M49.44 49.52c1.858 2.428 3.918 4.764 5.1 7.586 1.171 2.822 1.29 6.332-.614 8.714-.467.586-1.062 1.164-1.721 1.53-.54.303-1.035.257-1.63.367-1.803.33-3.515.806-5.374.577-2.444-.293-4.67-1.64-6.409-3.372-1.748-1.732-3.067-3.848-4.312-5.965-.595-1.008-1.236-2.016-1.748-3.078-.394-.825-.614-1.76-.962-2.621-.778-1.933-1.63-3.885-1.785-5.992-.275-3.684-.43-8.11 1.639-11.344 1.218-1.896 2.582-1.686 4.413-2.345 1.611-.587 2.581-1.659 4.495-1.53.421.027.86.11 1.19.366.568.45.65 1.255.733 1.98.604 5.094 3.909 11.095 6.985 15.127z" fill="#E79264"/><path d="M41.868 41.906a13.235 13.235 0 00-.192 6.248c.028.129.064.266.165.34.348.256.394.11.495.503.091.349-.055 1.027-.065 1.411 0 .165 0 .34.083.477.265.43.961.165 1.419.394-.202.403.137.907.567 1.053.43.147.898.046 1.337-.064-.33.22-.613.514-.824.852.421.138.852.22 1.291.23a35.859 35.859 0 00-2.948 3.179c-.558.687-1.108 1.42-1.328 2.281-.42 1.659.45 3.345 1.291 4.838.87 1.54 1.584 3.161 2.509 4.637-2.106-.22-4.623-1.008-6.024-2.685-1.035-1.237-1.428-2.895-1.62-4.499a23.278 23.278 0 01.85-9.492c.321-1.045.715-2.071.971-3.134.421-1.695.522-3.5 1.355-5.021" fill="#BE7B47"/><path d="M32.164 38.112c.742-1.32 1.602-2.73 3.03-3.244 1.822-.65 3.891.514 4.908 2.163 1.016 1.649 1.236 3.647 1.428 5.57a272.2 272.2 0 01-1.383.22c.449.697.888 1.393 1.337 2.099l-1.254-.165c.934 1.237.86 2.996.33 4.453-.623 1.732-1.694 3.143-2.116 4.939-.228.99-.375 1.979-.393 2.996-.01.595-.165 2.263.229 2.74-.824-1-1.648-1.998-2.481-2.997l.192 2.053c-1.172-1.476-1.831-3.272-2.481-5.04-.989-2.703-2.49-5.397-3.03-8.237-.504-2.694.366-5.214 1.684-7.55z" fill="#EDD2B4"/><path d="M23.97 24.368c-.128 1.026-.055 1.997.174 3.014.082.367.183.706.201 1.081.01.275.11.266.046.523-.027.11-.1.192-.082.32.027.184.146.349.274.504 1.218 1.476 3.113 2.42 4.715 3.583.705.513 1.255 1.072 2.06 1.466.897.44 1.813.77 2.793 1.072.64.202 1.318.339 1.995.44.678.1 1.365.156 2.051.11 1.273-.083 2.472-.513 3.607-.999 1.035-.44 1.786-.999 2.701-1.54 1.145-.677 2.115-1.53 3.067-2.372.394-.349.788-.688 1.172-1.036.183-.156.366-.33.412-.54.037-.165-.018-.33-.073-.486-.11-.32-.366-.751-.357-1.09.018-.312.366-.614.366-.935.65-1.805 1.108-3.958.238-5.772-1.135-2.364-4.102-3.803-7.04-4.673-8.634-2.548-17.304-1.1-18.32 7.33z" fill="#E79264"/><path d="M46.684 26.65c.357.22.797.403 1.355.55 2.252.613 7.38.448 9.659-.175 2.554-.696 4.523-2.712 6.225-4.746 4.505-5.35 8.963-12.57 11.353-19.177.357-.999.568-2.355-.339-2.896-.384-.229-.851-.22-1.3-.192-13.055.696-22.22 7.477-28.775 18.234-.265.43-.53.88-.604 1.374-.073.495.055.999.174 1.484.76 2.923.696 4.59 2.252 5.544z" fill="#E79264"/><path d="M51.747 16.827c-2.197 2.52-3.36 5.03-2.344 7.138.595 1.228 1.95 1.924 3.296 2.153 2.289.385 4.66-.376 6.592-1.658 7.736-5.131 11.307-13.818 14.62-22.073-1.922-.312-3.771.77-5.41 1.823-2.719 1.778-12.076 7.23-16.754 12.617z" fill="#EDD2B4"/><path d="M28.319 25.633c-.303.229-.696.43-1.19.614-1.997.742-6.675.998-8.808.613-2.38-.43-4.33-2.107-6.042-3.82C7.747 18.532 3.114 12.32.413 6.5c-.412-.88-.705-2.098.074-2.666.33-.238.76-.266 1.171-.284 11.93-.413 20.82 5.02 27.64 14.293.275.376.55.76.66 1.21.11.449.036.916-.046 1.365-.44 2.703-.248 4.215-1.593 5.214z" fill="#E79264"/><path d="M22.936 17.093c2.197 2.116 3.46 4.306 2.7 6.313-.448 1.164-1.62 1.915-2.829 2.227-2.05.531-4.266.036-6.134-.98C9.23 20.602 5.275 12.987 1.603 5.73c1.731-.43 3.498.394 5.073 1.228 2.618 1.393 11.563 5.608 16.26 10.134z" fill="#EDD2B4"/><path d="M24.254 24.936c-.422.843-.87 1.677-1.291 2.51-.064.129-.129.285-.019.395a.468.468 0 00.257.11c.32.082.64.155.961.238.12.027.256.073.275.174.009.064-.028.119-.074.174l-.485.641c2.72.834 5.274 1.677 7.837 2.795 1.685.733 3.433 1.484 5.347 1.622 1.584.11 3.158-.202 4.678-.568 1.4-.34 2.518-.752 3.671-1.439 1.227-.724 2.811-1.173 4.184-1.704.138-.055.275-.11.357-.21.11-.138.074-.312.028-.477-.1-.385-.192-.77-.293-1.155.22.193.66.037.75-.22.092-.247-.036-.513-.173-.751-1.273-2.272-3.196-5.37-6.482-6.029-2.83-.568-5.09 1.255-7.874.944-2.517-.284-4.367-2.044-7.077-1.659-1.858.266-3.122 1.365-3.726 2.767-.247.623-.54 1.237-.851 1.842z" fill="#EDD2B4"/><path d="M36.394 34.667c1.3.174 2.664 1.081 3.9.476.824-.403 1.07-1.466 1.034-2.382-.128-3.344-3.817-7.816-7.26-5.223-1.959 1.476-4.23 5.92-.888 7.166.943.348 1.62.073 2.536-.037.21-.037.44-.028.678 0z" fill="#EDD2B4"/><path d="M36.522 34.987c1.327.037 3.387.01 3.708-1.649.119-.641-.083-1.292-.33-1.896-.476-1.192-1.08-2.328-1.684-3.464-.385-.724-.797-1.475-1.484-1.943-.119-.082-.265-.155-.412-.146-.164.01-.31.128-.43.238-.815.742-1.254 1.604-1.813 2.52-.814 1.338-1.437 2.877-1.382 4.48.018.404.11.834.394 1.127.265.275.659.376 1.034.459.797.155 1.602.256 2.399.274z" fill="#F0F0D7"/><path d="M37.822 29.389c.311.01.677.046.842.312.11.183.092.421.037.632-.394 1.52-2.564 2.565-3.781 1.255-.449-.486-.641-1.475-.074-1.96.586-.523 2.243-.257 2.976-.239z" fill="#412312"/><path d="M26.771 26.283c.815.477 1.438 1.219 2.161 1.824.723.604 1.657 1.09 2.582.898.384-.083.732-.275 1.062-.495a4.648 4.648 0 001.346-1.393c.073-.128.146-.266.128-.412a.684.684 0 00-.156-.302c-.695-.917-2.041-1.659-3.204-1.659-.641 0-1.383.348-1.969.586-.238.092-1.812 1.027-1.95.953zm19.336.404c-.814.476-1.437 1.218-2.16 1.823-.724.605-1.657 1.09-2.582.898-.385-.082-.732-.275-1.062-.495a4.725 4.725 0 01-1.346-1.383c-.073-.129-.146-.266-.128-.413a.684.684 0 01.156-.302c.695-.916 2.041-1.659 3.204-1.659.64 0 1.382.349 1.968.587.238.092 1.813 1.026 1.95.944z" fill="#E79264"/><path d="M28.73 27.502c.33.87 1.218 1.63 2.29 1.567.933-.055 2.078-.788 2.041-1.842-.009-.266-.11-.523-.229-.76-.229-.486-.522-.963-.989-1.229-.549-.311-1.226-.256-1.84-.1-1.346.357-1.63 1.43-1.272 2.364zm10.813.696c.073.284.229.56.476.706.934.577 2.362.66 3.25-.037.403-.32.641-.788.724-1.292.192-1.227-.403-2.501-1.758-2.492-.623 0-1.218.247-1.758.55-.284.156-.577.348-.742.632-.155.266-.192.596-.21.907-.028.32-.055.642.009.953 0 .027 0 .046.01.073z" fill="#412312"/><path d="M30.653 25.843c-.302.23-.238.806.12.944.356.146.805-.238.713-.614-.091-.376-.677-.495-.906-.174m-.256 1.109c-.22.165-.174.577.082.678.256.1.577-.165.513-.44-.064-.266-.486-.357-.65-.128m11.901-1.256c-.302.239-.238.807.12.944.357.147.805-.238.714-.614-.092-.376-.678-.495-.907-.174m-.265 1.109c-.22.165-.174.577.082.678.257.1.577-.165.513-.44-.064-.266-.485-.348-.65-.128" fill="#fff"/><path d="M36.375 32.522c.083.468.064.944-.064 1.402" stroke="#412312" stroke-width=".451" stroke-miterlimit="10"/><path d="M44.185 54.284c-1.346.834-2.536 2.062-2.912 3.601-.467 1.878.34 3.83 1.337 5.48a23.167 23.167 0 003.855 4.8 78.764 78.764 0 00-5.933 1.778c-.43.147-.888.32-1.135.706-.33.504-.156 1.21.256 1.64.412.43 1.016.632 1.602.742 2.234.412 4.505-.293 6.665-.98 2.756-.89 5.75-1.952 7.242-4.435.705-1.173.989-2.547 1.135-3.913.21-2.043.12-4.15-.622-6.065-1.804-4.664-7.352-5.901-11.49-3.354zM31.642 37.617a13.2 13.2 0 00-.75 1.732c-1.502 4.141-1.621 8.549-1.044 12.864a171.775 171.775 0 002.407 13.79c.156.705-.027 1.31.147 1.997.11.45.156.926.128 1.393-.01.082-.01.174-.046.257-.027.073-.082.128-.119.201a.554.554 0 00.101.642.553.553 0 00.65.082c.046-.028.092-.064.147-.064.073-.01.128.027.192.073.311.21.677.467 1.034.34.284-.11.522-.45.797-.34.055.028.11.064.165.083.183.055.338-.165.347-.358.037-.696-.723-1.154-.778-1.85-.055-.66-.11-1.256-.229-1.943-.31-1.695-.613-3.39-.833-5.095-.494-3.747-.814-7.449-.87-11.26-.009-.376.156-.55.092-1-.064-.402-.165-.796-.229-1.2-.045-.293-.21-1.951.083-2.116-.422.238-.99.028-1.3-.339-.312-.376-.422-.87-.504-1.347-.284-1.76-.21-3.546-.046-5.314.028-.266.183-.614.43-.523" fill="#E79264"/><path d="M67.576 66.269c1.886 1.365 3.333 3.509 3.333 5.827.01 3.592-3.223 6.286-6.326 8.09-7.215 4.188-16.004 6.598-23.941 4.041-.705-.229-1.557-.742-1.401-1.475.055-.275.265-.504.458-.705a35.851 35.851 0 0115.61-9.575c2.178-.65 4.449-1.109 6.445-2.2.357-.2.723-.42.943-.769 2.417-3.747-6.894-4.691-7.498-6.734 4.449.32 8.624.788 12.377 3.5z" fill="#E79264"/><path d="M59.776 72.527c.458.009.998.082 1.2.495.31.604-.422 1.273-.367 1.951 1.255.385 2.564.843 3.443 1.824.879.98 1.135 2.648.192 3.573-.513.504-1.254.687-1.95.889-2.71.797-5.237 2.226-8.02 2.721-2.783.495-6.116-.293-7.388-2.813-.303-.595-.467-1.255-.586-1.915-.156-.843-.22-1.787.274-2.483.32-.458.834-.733 1.328-.98 3.8-1.952 7.544-3.345 11.874-3.262z" fill="#EDD2B4"/><path d="M48.14 80.269a27.04 27.04 0 013.433.366c1.025.174 2.05.413 2.957.926.897.522 1.657 1.356 1.877 2.373-2.628.559-5.264 1.118-7.938 1.21-2.682.09-5.429-.312-7.79-1.586-.54-.293-1.118-.705-1.218-1.31-.092-.55.229-1.081.558-1.53 1.465-1.961 3.552-3.574 5.869-4.39 3.506-1.245 3.149 1.201 2.252 3.94zM43.306 54.1a8.478 8.478 0 012.637-1.026c-1.73 1.393-3.754 2.053-4.35 4.527-.485 2.006.166 4.15 1.292 5.873 1.126 1.723 2.691 3.106 4.248 4.471-.733-.1-1.456-.21-2.188-.311-.669-.101-1.374-.211-1.914-.623-.44-.34-.705-.852-.961-1.347-.705-1.384-1.383-2.786-1.73-4.297-.34-1.512-.32-3.152.357-4.545 1.199-2.483 4.202-3.995 6.893-3.766 1.365.11 2.674.559 3.928 1.09a32.385 32.385 0 00-2.985-.128c-1.062 0-2.142.055-3.158.358-1.026.293-1.996.852-2.628 1.713" fill="#BE7B47"/><path d="M41.465 52.552c-.2 3.711-1.162 7.459-.897 11.224.156 2.181.193 4.408.495 6.589.036.284.073.595-.092.815-.146.201-.412.266-.659.32-1.227.285-2.783.44-3.47-.604 1.447-1.567 1.218-3.986 1.053-6.112-.11-1.365-.183-2.794-.119-4.15.073-1.54.357-3.06.375-4.618a34.179 34.179 0 00-1.07-9.035c.127.285.558.285.786.074.22-.211.275-.55.284-.852 0-.312-.036-.623.055-.917.55.202 1.126.321 1.703.358a6.833 6.833 0 00-.22-1.43c.568.147 1.291.239 1.62-.247.212-.312.147-.724.047-1.081a5.243 5.243 0 00-.614-1.366l1.218.165a9.568 9.568 0 00-.421-2.382c.842-.22 1.767.642 1.593 1.503-.77 3.82-1.456 7.852-1.666 11.746z" fill="#E79264"/><path d="M44.359 65.408c-1.337-2.227-1.685-5.15-.458-7.431.696-1.292 1.904-2.382 3.296-2.877.622-.22 1.245-.165 1.895-.275.742-.128 1.822-.43 2.554-.128a10.436 10.436 0 00-2.28-.65c.284 0 .577 0 .861.008a14.571 14.571 0 00-2.746-.302c-.742-.01-1.511.275-2.207.513-1.465.504-2.838 1.494-3.424 2.932-1.007 2.465.256 5.094 1.584 7.12.11.164.238.347.44.366" fill="#EDD2B4"/><path d="M68.318 5.448c.21.99-.119 2.015-.485 2.959-1.4 3.656-3.37 7.165-6.226 9.85-2.856 2.675-6.674 4.471-10.583 4.361-.357-.009-.742-.046-1.016-.275-.376-.311-.412-.87-.348-1.356.311-2.52 2.37-4.407 4.294-6.065 2.206-1.897 4.559-3.537 6.884-5.287.577-.45 7.389-4.618 7.48-4.187z" fill="#E5877F"/><path d="M58.22 12.786c-.23 2.044-1.19 3.977-2.619 5.452-.833.861-3.735 3.335-5.017 2.282-1.538-1.256 1.337-3.62 2.133-4.398.458-.45 5.53-3.565 5.503-3.336z" fill="#DD686B"/><path d="M6.218 6.171c-.147.953.22 1.897.613 2.767 1.51 3.381 3.562 6.598 6.4 8.98 2.838 2.382 6.537 3.866 10.235 3.564.34-.027.705-.082.953-.311.338-.321.347-.853.256-1.302-.43-2.363-2.472-4.04-4.376-5.497-2.189-1.677-4.496-3.097-6.784-4.627-.577-.394-7.233-3.977-7.297-3.574z" fill="#E5877F"/><path d="M16.142 12.576c.32 1.915 1.337 3.693 2.765 5.012.833.77 3.708 2.96 4.861 1.897 1.383-1.265-1.455-3.354-2.252-4.05-.448-.403-5.41-3.07-5.374-2.859z" fill="#DD686B"/></svg>