<svg width="68" height="84" fill="none" xmlns="http://www.w3.org/2000/svg"><path d="M33.973 18.584c2.458 2.29 5.565 3.733 8.481 5.399a58.473 58.473 0 017.355 4.972c1.61 1.275 3.17 2.656 4.327 4.352.842 1.226 2.284 3.845 1.69 5.405-.749 1.963-2.309.477-3.145-.526-1.417-1.703-3.677-2.383-5.738-3.207-1.802-.724-3.591-1.597-5.207-2.675-1.665-1.108-2.897-1.164-4.78-1.802-1.739-.588-3.435-1.863-3.757-3.671" fill="#212121"/><path d="M37.167 25.896c2.873.037 5.634 1.065 8.327 2.074 1.337.502 2.773 1.084 3.522 2.297-.891.044-1.987.236-2.265 1.09-.075.23-.075.477-.08.718-.013.551-.063 1.108.055 1.641.117.539.452 1.065.972 1.245-1.474.024-2.718-1.016-3.98-1.79-2.031-1.244-4.372-1.87-6.538-2.854-.335-.155-.687-.334-.86-.663-.174-.328-.038-.83.327-.891" fill="#606161"/><path d="M9.44 46.96c.024 10.024 3.447 20.209.903 29.905 1.888-1.35 4.426-1.102 6.748-1.053 2.321.056 5.027-.371 6.172-2.39 2.377 1.462 5.757.99 7.64-1.065 1.02-1.114 1.59-2.557 2.086-3.98 3.175-9.102 4.414-18.773 4.828-28.407.217-5.133.192-10.377-1.417-15.256-.947-2.867-2.52-5.66-5.04-7.319-6.747-4.445-12.783 3.325-16.003 8.458-3.93 6.272-5.93 13.727-5.918 21.107z" fill="#CCC9C6"/><path d="M44.534 6.703c-2.018-.57-4.08-1.3-5.658-2.607-.966-.799-1.795-1.765-2.848-2.446-1.2-.774-2.63-1.127-4.054-1.244-6.47-.539-9.008 4.346-9.107 10.29-.037 2.266-.916 5.956-2.563 7.616-1.839 1.863-3.894 3.337-5.442 5.491-4.934 6.904-5.707 15.919-5.373 24.395.334 8.476 1.585 17.045.05 25.385-.18.99-.304 2.229.532 2.786.489.328 1.133.273 1.702.118 3.882-1.046 5.609-5.597 6.005-9.597.49-4.972-.148-10.117 1.375-14.878.854-2.663 2.352-5.09 3.126-7.783 1.374-4.773.34-9.863.47-14.828.1-3.759.824-7.758 4.377-9.671 2.464-1.326 5.807-1.573 6.16-4.73.16-1.474.247-3.165 1.436-4.093 1.22-.948 2.928-1.418 4.426-1.672 1.907-.328 4.136-.514 6.055-.347 1.003.087 1.95.446 2.978.452.136 0 2.377-.353 2.185-.563-1.207-1.307-4.13-1.591-5.832-2.074z" fill="#212121"/><path d="M31.15 6.195c.012.124.043.247.093.359.155.334.52.539.885.588.365.05.737-.037 1.084-.16.229-.081.464-.187.606-.385a.995.995 0 00.136-.371 1.72 1.72 0 00-.123-1.059c-.768-1.591-2.848-.464-2.681 1.028z" fill="#5F5B5B"/><path d="M32.698 4.449a2.064 2.064 0 00-1.183 1.306 1.031 1.031 0 00-.05.433c.038.285.242.52.49.663.65.359 1.585-.037 1.776-.756.192-.718-.42-1.529-1.163-1.541a.444.444 0 01.408-.08" fill="#000"/><path d="M35.713 7.44c.018.037.086-.02.055-.056-.024-.037-.08-.031-.123-.013-.31.112-.452.502-.353.818.099.315.383.538.693.644.31.111.644.117.972.13 1.003.03 2.006.055 3.009.08l6.048.149c.588.012 1.176.03 1.758-.068.062-.013.124-.025.167-.069.105-.111-.025-.297-.167-.346-.148-.05-.316-.037-.44-.13" fill="#F6871F"/><path d="M46.633 8.498l-1.74-.316c-1.157-.21-2.315-.414-3.473-.613a128.058 128.058 0 00-3.491-.538c-.6-.08-1.25-.297-1.851-.155-.458.105-.811.563-.36.904.484.36 1.443.378 2.013.44.947.105 1.894.204 2.835.31 1.932.21 3.87.42 5.813.42.31 0 .62-.006.916-.074.019-.006-.099-.285-.136-.316-.093-.074-.396-.037-.526-.062z" fill="#FCB316"/><path d="M32.71 4.913c-.111-.05-.254.025-.29.142-.038.118.024.254.13.316a.375.375 0 00.352.006c.093-.043.18-.136.173-.241 0-.1-.074-.18-.16-.23a.735.735 0 00-.285-.061m-.223.619a.509.509 0 00-.235.056c-.069.043-.118.13-.087.204.025.062.099.1.167.093a.213.213 0 00.186-.21.219.219 0 00-.186-.21" fill="#fff"/><path d="M16.466 23.228c-2.124.866-3.894 2.42-5.436 4.117C4.004 35.085 1.255 45.808.246 56.21c-.248 2.563-.402 5.163.006 7.702.118.724.304 1.48.817 1.994.52.513 1.474.65 1.95.105.273-.31.329-.75.39-1.164a24.368 24.368 0 012.885-8.575c.997-1.783 2.217-3.43 3.312-5.152 1.629-2.557 2.997-5.269 4.359-7.974 1.12-2.223 2.24-4.446 3.355-6.669.916-1.826 1.845-3.665 2.34-5.646" fill="#212121"/><path d="M30.735 14.219c.57-.019 1.245.024 1.548.514.415.675-.254 1.486-.88 1.968-2.005 1.555-4.172 2.886-6.134 4.49-.941.767-1.77 1.535-2.42 2.544-.477.737-.898 1.87-1.685 2.359a.37.37 0 00.161-.409 21.128 21.128 0 00-.73 2.607l.037-.402c-.087.31-.223.606-.415.866a.793.793 0 01-.192-.724l-.334.204c-.012-.353-.018-.7-.03-1.052-.156.099-.304.204-.46.303l.112-1.151c-.303.247-.612.489-.916.736.842-4.055 2.229-8.408 3.968-12.166.818-1.765 1.48-1.461 3.152-1.015 1.696.458 3.479.383 5.218.328z" fill="#606161"/><path d="M25.56 4.84c.316-.304.607-.54.842-.657.322-.161.749-.167 1.003.087.204.204.247.52.235.81-.05 1.177-.786 2.199-1.158 3.313-.415 1.232-.365 2.631.254 3.77.62 1.14 1.826 1.97 3.12 2.013-.576-.019-1.058.285-1.746.16-.786-.142-1.516-.488-2.321-.6-1.275-.185-2.334.124-3.492.626.087-1.468.248-2.935.465-4.39.13-.836.278-1.684.662-2.44.303-.612 1.288-1.882 2.136-2.693z" fill="#F68B20"/><path d="M33.57 13.767c.155.18.23.409.304.632a44.637 44.637 0 011.585 6.594c-1.022-1.239-2.241-2.582-3.85-2.638-2.137-.074-3.684 2.155-5.777 2.588a13.5 13.5 0 012.42-2.687c.645-.545 4.495-3.139 2.031-3.832-.458-.13-.972-.093-1.362-.36.923-.21 3.931-1.287 4.65-.297z" fill="#F68B20"/><path d="M36.66 31.74c.928-2.71.997-5.708.235-8.469-.279-1.015-.693-2.768-1.3-3.597-.545-.75-1.752-.824-2.142-1.703-.025-.062-.05-.13-.1-.18-.16-.173-.445-.018-.624.13-.136-.266-.273-.538-.415-.804-.198.192-.396.383-.588.575l-.322-.451c-.217.142-.427.284-.644.427-.093-.075-.18-.149-.272-.223-.558.34-1.108.68-1.66 1.015-.179.105-.352.217-.532.322-.514.291-.885.613-1.43.279-.972 2.167-2.761 3.411-3.35 5.944-.395 1.702-.358 3.393.02 5.089.346 1.554 1.355 2.415 2.364 3.64a.585.585 0 00.372-.29c.068.352.328.625.576.885.247.26.513.526.854.638.34.105.786-.006.916-.34.136.315.266.637.402.953.124-.044.242-.08.366-.124l.501.724c.279-.204.557-.408.83-.613.148.236.29.465.44.7l.928-.706c.099.242.204.477.303.718.18-.662 1.25-.823 1.616-.241 1.33-1.059 2.117-2.73 2.656-4.297z" fill="#F0EDE7"/><path d="M4.109 48.885c.173-.105.34-.204.514-.303a3.9 3.9 0 01-.291 1.572l.65-.613a31.28 31.28 0 00.922 4.594c1.214-.606 1.282-2.266 1.77-3.529.886-2.31 3.499-3.653 4.279-6.006.235-.718.29-1.498.613-2.185.408-.88 5.614-7.956 3.392-8.947-.99-.44-3.87 2.613-4.513 3.232a27.243 27.243 0 00-4.265 5.263 26.26 26.26 0 00-3.071 6.922z" fill="#606161"/><path d="M14.386 80.226c-.056.465-.316.972-.062 1.369.445.693 1.473.124 2.08.068 1.077-.1 2.16-.019 3.231.068 1.956.167 3.87.16 5.826.291.185.012.445-.031.458-.217.006-.142-.136-.235-.266-.297-.675-.334-1.35-.669-2.031-1.003-.36-.18-.737-.36-1.133-.402-.854-.087-1.238-.007-1.938-.483-.693-.477-1.758-.836-2.154-1.641-.402-.811-.223-2.13-.266-3.028.018.384-.49.663-.805.452-.118-.08-.204-.216-.347-.254-.235-.068-.44.161-.575.366-.236-.248-.477-.49-.712-.737-.05-.05-.106-.1-.167-.1-.075 0-.13.063-.174.118-.18.211-.359.415-.532.626-.384-.353-.768-.7-1.152-1.053-.05.459.21.886.421 1.3.564 1.133.452 3.3.298 4.557z" fill="#212121"/><path d="M30.067 81.675c-.112 0-.223.007-.34.019-1.493.136-3.028-.019-4.55.16.476-1.894.34-4.017.104-5.93-.111-.917-.662-1.623-.05-2.502.038.235.174.607.459.626.087.006.167-.025.254-.044a.806.806 0 01.848.415c.29-.384.563-.786.823-1.195.1.18.236.34.396.477.069.055.137.105.223.111a.527.527 0 00.235-.056c.384-.167.768-.346 1.14-.544-.217.897-.514 1.585-.44 2.526.136 1.715.1 3.59 2.086 4.266 1.003.34 2.18.148 3.077.712.142.093.279.198.434.272.625.303 1.392-.019 2.061.18.594.18 1.003.761 1.158 1.362a6.744 6.744 0 00-3.591-.52c-1.467.192-2.866-.366-4.327-.335zm25.276-27.849a26.882 26.882 0 0111.18 8.328c.867 1.102 1.728 3.293-.315 3.04-1.548-.192-3.22-1.678-4.841-2.05-3.33-.774-5.566-1.993-6.6-5.46m-10.61-6.198a64.82 64.82 0 00-5.442 1.034c-3.454.804-5.733 2.587-7.912 5.349-.185.235-.384.52-.322.817.05.279.316.47.576.588 1.721.768 2.96-.396 4.408-1.009 1.839-.774 4.154-.477 6.11-.706 1.071-.123 2.18-.284 3.07-.891 1.096-.743 1.685-2.043 2.013-3.331.148-.595.247-1.25-.062-1.783-.31-.527-2.099-.57-2.44-.069z" fill="#212121"/><path d="M46.72 57.145c.606-4.34 7.156-7.9 9.75-3.04 2.111 3.95 2.897 8.364 3.151 12.791.08 1.393.285 2.774.378 4.16.086 1.252-.242 2.162-.657 3.332-.786 2.247-2.011 4.44-3.999 5.832.136-.18.279-.359.415-.532-.186.44-.693.718-1.164.644-.47-.08-.86-.514-.885-.99-.235.346-.47.686-.7 1.033-.037-.241-.303-.396-.55-.396-.248 0-.483.105-.713.192-.724.272-1.943.656-2.296-.267-.279-.736-.83-1.368-1.146-2.098-2.847-6.576-2.556-13.69-1.584-20.661z" fill="#212121"/><path d="M49.797 78.45c-1.313-1.524-2.644-3.028-3.12-5.022-.508-2.142-.855-4.018-.583-6.247.291-2.322 6.618-19.026-1.306-14.086-4.754 2.966-5.355 9.814-5.342 14.86.006 1.306.062 2.606.16 3.913.18 2.347.805 4.86 2.353 6.7.799.946 1.616 1.448 2.792 1.708 1.64.36 3.015.892 4.693.26.383-.142.792-.378.897-.774.13-.483-.223-.941-.544-1.313z" fill="#CCC"/><path d="M40.931 67.435c-.154 3.058-.062 6.253 1.344 8.971 1.405 2.718 4.47 4.798 7.46 4.16 1.02-.216 1.962-.724 2.804-1.337 4.395-3.194 6.129-9.2 5.243-14.562-.643-3.888-4.315-14.092-9.558-13.677-5.869.464-7.082 12.253-7.293 16.445z" fill="#F0EDE7"/><path d="M43.934 52.817c1.517-1.492 3.064-4.303.625-5.51-1.343-.663-2.687-1.332-4.03-1.994-.396-.198-.817-.415-1.034-.799-.216-.384-.111-.985.31-1.114.148-.05.31-.031.464-.013 1.189.136 2.383.273 3.572.415.712.08 1.43.167 2.142.099.483-.043.96-.161 1.436-.272 1.981-.477 3.938-.737 5.813.328.91.52 1.69 1.35 1.907 2.371.6 2.86-1.009 5.461.892 7.993-2.006-.96-4.123-1.572-6.352-1.665-.632-.025-1.275-.019-1.87-.236" fill="#212121"/><path d="M54.099 54.043c-.904-1.759-2.266-2.638-4.117-3.387-3.498-1.418-5.343 1.214-7.032 4.018.829-1.405 4.296-1.306 5.552-1.059 1.759.353 3.4 1.14 5.114 1.66.093.03.198.056.291.03.526-.135-.353-1.225.192-1.262z" fill="#FCB316"/><path d="M39.897 44.434a28.985 28.985 0 016.036 3.064c.18.118.365.242.582.267.217.024.465-.087.514-.297.062-.248-.16-.465-.371-.601-1.356-.892-3.108-.954-4.526-1.746" fill="#FBB03B"/><path d="M48.533 45.87a.88.88 0 00.075.285c.123.266.414.427.705.464.291.037.588-.03.867-.124.186-.062.371-.148.483-.303a.723.723 0 00.111-.297 1.376 1.376 0 00-.099-.849c-.613-1.263-2.278-.365-2.142.824z" fill="#5F5B5B"/><path d="M49.765 44.483a1.64 1.64 0 00-.94 1.04.822.822 0 00-.038.347c.031.223.192.415.39.526.52.285 1.27-.031 1.418-.6.155-.57-.334-1.22-.929-1.233a.347.347 0 01.328-.062" fill="#000"/><path d="M49.778 44.848c-.087-.037-.204.019-.235.112s.018.204.105.254c.08.049.192.049.278.006.075-.038.143-.106.143-.192 0-.08-.062-.143-.13-.18a.563.563 0 00-.23-.05m-.173.49a.453.453 0 00-.185.044c-.056.03-.093.105-.074.166.018.05.08.08.136.075.08-.007.148-.087.148-.167 0-.08-.068-.161-.148-.167" fill="#fff"/><path d="M54.31 48.384c.197-.155.482-.26.699-.13.223.136.248.44.241.7-.006 1.77-.006 3.547-.012 5.318 0 .03 0 .068-.019.093-.024.037-.08.043-.123.043-.985.025-3.127-1.746-3.127-2.761 0-.694.793-1.14 1.177-1.647.402-.533.612-1.195 1.163-1.616z" fill="#F68B20"/><path d="M41.136 82.82c1.832.385 3.714.508 5.577.372.242-.018.502-.05.688-.21 1.708-1.53-1.177-3.09-2.675-2.26-.656.359-1.38.427-1.968.693-.192.087-1.765 1.38-1.623 1.406zm8.227-1.789c-.607.54-.44 1.102-.42 1.864 0 .056.005.124.055.161.03.025.074.025.111.025 1.802.03 3.61.055 5.41.087.162-.341.323-.737.156-1.072-.087-.173-.254-.297-.415-.415-.347-.253-.712-.513-1.133-.594-.217-.043-.446-.03-.656-.093-.526-.154-.935-.675-1.505-.7-.532-.024-1.213.39-1.603.737z" fill="#212121"/><path d="M22.836 74.827a37.685 37.685 0 004.402-14.129c-.056.99-.031 1.988.08 2.972.669-.824.811-1.938.929-2.997.117 1.697.241 3.4.359 5.096.229-.074.458-.143.693-.217a98.071 98.071 0 01-3.622 8.57c-.198-.366-.742-.248-1.145-.15-.402.106-1.015-.043-.94-.457.036-.199.105-.168-.075-.254a6.782 6.782 0 01-3.653 1.795c-.272-1.145.335-2.334 1.152-3.182.817-.849 1.839-1.474 2.687-2.297.16-.155.315-.322.408-.533.112-.247.112-.526.155-.792a2.65 2.65 0 011.201-1.808c.26.037.52.068.78.099" fill="#9A9997"/><path d="M41.817 55.38l-7.528 1.164c.619.068 1.232.142 1.845.21-.768.428-1.542.849-2.31 1.276a32.326 32.326 0 016.42-.47m16.3-.657l5.33 2.49-1.64.39a5.423 5.423 0 001.894 1.51c.155.074.322.148.427.29.1.143.093.379-.062.453-.068.037-.142.03-.216.03-.322-.005-.65-.018-.972-.024.353.124.68.303.978.532-1.102.143-2.191-.247-3.238-.631-.464-.173-.96-.365-1.232-.78-.433-.656-.136-1.61-.582-2.254M15.042 75.98c-.118.042-.198.117-.223.228-.08.415.557 1.065.805 1.313-.18.111-.36.235-.508.39-.099.105-.192.248-.173.39.03.235.303.34.526.396-.532.155-.83.681-.916 1.195-.062.365-.266 1.034.05 1.313.173.16.445.16.674.117.254-.055.514-.142.75-.185.222-.044.377-.019.575-.174.18-.136.334-.316.532-.42-.03.21.124.414.31.507.192.093.409.099.625.08a4.141 4.141 0 001.195-.272c-.006.05-.012.1-.012.142.018.626 1.095.248 1.48.322.494.1.977.285 1.485.335-.279-.025.365-1.22.34-1.294-.105-.322-.934.055-1.225-.124-.192-.112-.279-.335-.44-.49-.334-.327-.873-.284-1.337-.21.043-.204-.1-.402-.279-.508-.18-.105-.384-.136-.588-.191a1.493 1.493 0 01-.588-.279c-.186-.161-.378-.582-.47-.805-.08-.192-.007-.409.037-.607.105-.489.105-1.232-.495-1.35-.298-.055-.65.087-.942.118-.247.031-.854-.068-1.188.062zm11.118-.657c-.198.31-.378.718-.186 1.027.075.118.192.205.267.316.359.52-.23 1.27.043 1.833.118.241.384.433.365.7-.006.123-.08.228-.142.334a2.22 2.22 0 00-.242 1.498c.459.18.972.1 1.461.05a9.462 9.462 0 013.653.371.875.875 0 00-.638-.842l1.987.112c-.742-1.016-2.705-.143-3.454-1.158-.55-.75.068-1.907-.409-2.706-.061-.105-.142-.204-.154-.328-.019-.173.111-.322.173-.483a.739.739 0 00-.353-.916c.025-.08.05-.161.08-.242" fill="#606161"/></svg>