<svg width="214" height="186" fill="none" xmlns="http://www.w3.org/2000/svg"><mask id="mask0" maskUnits="userSpaceOnUse" x="0" y="0" width="214" height="169"><path fill="#C4C4C4" d="M0 0h214v169H0z"/></mask><g mask="url(#mask0)"><circle cx="108" cy="107" r="89" stroke="#fff" stroke-width="2" stroke-dasharray="10 10"/><circle cx="108" cy="107" r="97" stroke="#F7941D" stroke-width="10"/></g><path d="M36.686 154.914s-7.897.539-7.947 8.215c-.05 7.676-3.604 12.981 5.147 14.226 8.751 1.245 34.187.24 50.835.359 16.648.12 60.476 1.018 70.119 1.09 9.642.072 24.532.766 28.939-.982 4.406-1.748 7.947-7.041 7.093-11.185-.854-4.143-2.586-5.927-4.319-8.31-1.732-2.383-5.223-5.353-51.676-5.688-46.453-.336-63.125 1.916-72.768 1.844-9.642-.048-21.029-1.306-25.423.431z" fill="#003A23"/><path d="M34.703 151.309s-7.897.539-7.948 8.215c-.05 7.676-3.603 12.981 5.148 14.227 8.75 1.245 34.187.239 50.834.359 16.648.12 60.477 1.018 70.119 1.09 9.642.071 24.532.766 28.939-.982 4.394-1.737 7.947-7.042 7.094-11.185-.854-4.143-2.587-5.928-4.319-8.311-1.733-2.383-5.223-5.353-51.676-5.688-46.453-.335-63.126 1.916-72.768 1.844-9.642-.072-21.03-1.305-25.423.431z" fill="#F7941D"/><path d="M70.804 167.06l.1-2.76-.12-.9-.04-1.66-.06-1.36-.18-2.02s-.02-.88-.22-1.36c-.24-.46-1.92-.32-1.96-.32-.04 0-2.22.08-2.22.08l-.58.06s-1.68-.04-1.94-.04c-.28 0-.64.2-.68.22-.02 0-.12.18-.12.18s-.08-.04-.18 0c-.12.06-.12.5-.12.5l.1 3.06s-.04 5.4-.1 5.72c-.04.32.56 3.74.6 4.06.02.22.02.34.02.34s.24.08.64.12h.06c.12.02.26.02.42.02.68-.04.84-.56.84-.56l-.04-.74s-.04-.54-.18-.62c-.14-.1-.08-3.52-.08-3.6 0-.08.12-3.66.16-4.6l-.02-.08.1-1.38s.1-.26.1-.3c0-.04.1-.12.1-.12s.14-.1.18-.1c.04 0 .24-.06.24-.06l.2-.14s.14-.02.18-.02c.02 0 .04-.02.06-.02h.2c.12 0 1.3.04 1.3.04s.48.36.48.4c0 .04.1.16.1.2 0 .04-.04.18 0 .28.04.08.04.16.04.18l.2 2.26v1.74l.14 3.04.16 3.92s.2.36.38.42c.18.02.48.02 1.06-.14.58-.18.7-.62.72-.7.04-.08-.02-2.52-.02-2.52l-.02-.72zm9.527-6.8l-.12-.82-.04-.56s-.04-.56-.16-.78c-.1-.22-.6-.6-.62-.64-.06-.02-.88-.38-.88-.38s-.36-.1-.62-.2c-.24-.06-1.18-.34-1.18-.34s-.2.04-.26.04h-.62c-.24 0-1.18.36-1.18.36l-.26.12h-.22l-.72.52-.16.32s-.28.48-.58.82c-.26.34-.54 1.5-.56 1.88-.06.4-.08 1.5-.08 1.5l-.2.2.1.54.08.12-.04.3.08.34v1.38l.06.48c0 .24-.06.38-.08.6 0 .2.08.46.08.52 0 .08-.06.48-.06.62 0 .12.16.82.18.92 0 .1.2.62.24.84.08.22.62.98.62.98l.62.52s.46.24.56.3c.08.04.68.24 1.36.2.66-.06 2-.6 2-.6s1.22-.88 1.32-.9c.1-.02.18-.3.2-.34 0-.06.08-.36.1-.42.02-.08.1-.18.1-.18s.1-.18.1-.22c0-.06.04-.28.06-.36.04-.06.08-.74.08-.78 0-.08.28-1.42.28-1.42l.24-1.42.08-.42c.02-.1.02-.48.04-.72.04-.22 0-.86.04-.96.02-.1.06-.9.1-.96 0-.06-.08-1-.08-1zm-2.46 3.32l-.04 1.04v.62l-.2 1.28-.38 1.2-.42.92s-.4.54-.56.6c-.18.04-.58.02-.6-.02-.02-.04-.32-.32-.32-.32s-.58-.5-.58-.52c0-.06-.24-.58-.28-.76-.04-.16-.32-1.4-.34-1.58 0-.18-.08-1.06-.08-1.42 0-.36.06-1.86.06-2.18.02-.32.12-1.04.14-1.08.06-.08.12-.4.12-.4l.1-.28.16-.2.18-.16.1-.08.12-.06h.12l.18.04s.04.02.06.02c.06 0 .16-.06.16-.06s.02-.06 0-.06-.08-.06-.1-.06h-.12c-.06 0-.16-.08-.16-.08v-.06l.22-.18.18-.18.2-.06.18-.1s.04-.06.04-.1c0-.04-.1-.08-.1-.08l-.14-.08s-.06 0-.08-.02c-.02-.02.12-.14.12-.14s.16-.08.16-.1c0-.04.04-.1.04-.1s.12 0 .16.02c0 .02.54.3.54.3s.52.34.52.36c0 .06.1.22.1.22l.18.18s.18.5.22.52c.02.02.12.38.12.38l.08.08.04.78v.64l-.1 1.32zm7.46-.7l-1.86.44-.02-2 .06-1.82.06-.32s1.98.2 2.08.2c.08 0 2.04-.1 2.04-.1l.46-.16s.2-.1.24-.16c0-.1.14-1.02.14-1.14 0-.14.04-.36-.02-.38-.06-.08-1.88-.74-3.28-.74s-2.32.16-2.52.16c-.18-.04-.7.2-.76.2-.04 0-.22 0-.28.08-.1.06-.24.42-.24.42s-.06 1.08-.06 1.24c0 .16-.06 4.28-.06 4.56 0 .26.04 2.04.04 2.36 0 0 .16 4 .16 4.08 0 .08.12.6.38.62l.78.14s.2.12.2 0c0 0 .04-.14.1-.14.06 0 1.5.74 2.64.46 1.14-.26 3.5-1.22 3.56-3.92 0 0-.24-4.34-3.84-4.08zm-.54 5.76c-1.18.16-1.22-.1-1.22-.1l-.1-3.4.22.2.04-.14.1-.16s.96-.64 1.74.1c.8.74.8 1.14.8 1.76 0 .56-.4 1.58-1.58 1.74zm5.932-11.44l-.08.12-.14.12-.06.1-.06.1-.08.28-.02.5.02.32.02.24v.94l-.04.66.06 1.12-.06.74v1.4l.14.76.18 1.34.08.34.08.5.02.5.02.54.04.5.14 1.08s.08.62.08.64c0 .02.08.08.1.1.02.02.32.12.32.12l.08.04-.02.1.2.26.32.22.36.12h.78l1.02-.1.66-.04 1.42-.2h.34s.18-.02.22-.02c.04 0 .52-.04.52-.04l.14-.08s.04-.1.06-.12c.04-.02.06-.18.06-.18l.08-.16.04-.18-.02-.16-.06-.18-.44-.34-.16-.14-.3-.02-.34-.02-.62.02-.26-.06-.32.08-.82.08-.6.06-.84.22-.16-.02-.1-.54v-.62l.06-.72.04-.72.14-1.04.04-.24.36.04s.32.02.36.02c.06 0 1.26-.2 1.26-.2s1.2-.18 1.26-.18c.04 0 1.1-.1 1.22-.14.14-.02.22-.3.22-.3l.24-.28s.14-.26.14-.54c0-.26-.24-.64-.24-.64l-.36-.32-.4-.12s-.46-.04-.54-.04h-1.5c-.18 0-.9.28-.9.28l-.9.22v-.5l.02-.74-.02-.52-.04-.42s-.02-.78-.02-.86c0-.04-.06-.6-.06-.66 0-.1.1-.2.1-.2s.18.08.34.1c.1.02.88.14.88.14l.54.02s.4.02.46.02c.02 0 .16-.04.34-.08.18-.08 1.02-.28 1.02-.28s.56-.06.58-.06c.04 0 .26-.12.38-.16.14-.04.18-.28.2-.38.04-.14.12-.84.12-.88 0-.06 0-.38-.04-.54-.04-.18-.38-.52-.56-.62-.2-.14-.66-.28-.68-.28-.06 0-.88.1-1.04.14-.14.04-.76.06-.9.06h-.4s-.64.08-.68.08c-.04 0-.3-.08-.42-.1-.12-.04-.56.14-.56.14s-.54.18-.68.22c-.14.04-.26 0-.32 0-.04 0-.52-.02-.64-.02-.16 0-.42.26-.42.26zm17.8 14.6l.02-1.18.08-2.04c0-.2-.12-.68-.34-.92-.2-.24-1.62-.3-1.62-.3s.1-2.18.16-2.46c.06-.28 0-2.62 0-2.62-.06-.38 0-1.28 0-1.44-.04-.16-.04-1.18-.02-1.34.02-.14 0-1.14 0-1.14s-.02-.52-.04-.54c-.02-.04-.1-.32-.1-.42 0-.08-.16-.28-.18-.32-.02-.02-.66-.3-.68-.34-.02-.04-.28.12-.28.12s-1.46-.04-1.52-.02c-.08 0-.62-.12-.68-.1-.08.02-2.14 0-2.14 0l-.18.08s-.12.02-.38.1c-.28.04-.28.48-.28.48l-.08.48-.04 1.06-.14 1-.12 2.2-.16 1.68v2.38c0 .12-.12 1.46-.14 1.54-.02.1-.14.54-.14.54l-.08.12s-.22.24-.34.34c-.12.08-.64.7-.64.7v2.54s.22.34.92.4c.72.08 1.08-.16 1.08-.16s.06-.4.14-.7c.02-.3.22-.72.22-.8.02-.06.32-.16.32-.16s.12.04.18.04c.12 0 .2-.08.2-.08s1.52.12 2.16.1c.6-.02 2.14-.24 2.14-.24s.06.72.06.9c0 .16.14.62.14.62s.08.12.1.18c.04.06.54.3.54.3s1.52-.1 1.64-.1c.1-.02.3-.16.32-.3.02-.1-.1-.18-.1-.18zm-6.28-3.98s.14-3.02.16-3.22c.02-.28.18-4.4.18-4.4l.04-1.48s.52-.14.68-.14h1.14s.14 0 .14.14v4.86s.04 3.26 0 3.46c-.02.18.02.7.02.7l-2.36.08zm10.212-.54c0-.08-.08-.88-.08-.88l-.02-1.94-.02-1.12-.3-1.78.2-1.16v-1.8l-.02-.98-.14-.5-.7-.54-.54-.04-.44.08-.28.24-.14.24-.28.1-.02.24.02.28.12.2.04.14-.06.22-.02.22.1.34v.2l.1 2.3-.04 1.62.1 2.32.08 1.52-.12.96v.4l.1.64.14.56.14.34.12.36.38.34s.16.12.24.12c.08 0 .46.1.46.1l.28.06.24.12.26-.12.02-.24.42-.44.6-1.14.78-1.48.52-1.52.46-1.12.36-.6.06 1.12-.08 1.5-.08.66-.08 1.72v.78l.04.4.14.2.36.24.32.16.22.12s.24.04.34.04c.06 0 .16-.06.22-.24s.06-.5 0-.68c-.06-.22-.08-.6-.08-.6l.14-.86.3-2.16.06-1.64-.14-3.84v-1.36l-.04-1.06-.56-.34h-.9l-.18.1-.12.12-.16.2-.08.2-.5 1.34-.4.98-.46 1.5-.4 1.12-.34.64-.42 1.34-.24 1.44zm5.846-9.12l.06.24s.18.12.44.14c.28.02 1.38.12 1.38.12l.72-.12.18.32-.12 3.72.18 2.04.02 3.18.06 2.52.2.5s.18.2.26.2c.06 0 .28-.1.36-.1.1 0 .18-.12.24-.16.08-.02.16-.22.16-.22l.16-.14s.12-.22.12-.3c0-.1.04-.24.04-.24l-.08-1.28-.04-1.46.08-2.9-.02-2.14.12-1.56.16-1.14.04-.7s-.04-.16-.02-.28c0-.1.08-.08.08-.08l.88-.02s.92-.06.98-.04h.5c.06 0 .1-.08.16-.1.1-.02.1-.12.12-.16.02-.04.04-.18.04-.18s.1-.14.14-.16c.04-.06.1-.14.14-.26.06-.12.04-.22.04-.22l-.14-.18-.4-.4-.98-.02-1.78.12-1.42.2-2 .26-.28.04-.22.08h-.18s-.18-.02-.24-.02c-.04.02-.14.2-.14.2l-.1.2s-.1.1-.1.14c0 .06 0 .18.02.24.02.08.14 0 .14 0l.04.12zm8.965-.96l-.08.12-.14.12-.06.1-.06.1-.08.28-.02.5.02.32.02.24v.94l-.04.66.06 1.12-.06.74v1.4l.14.76.18 1.34.08.34.08.5.02.5.02.54.04.5.14 1.08s.08.62.08.64c0 .02.08.08.1.1.02.02.32.12.32.12l.08.04-.02.1.2.26.32.22.36.12h.78l1.02-.1.66-.04 1.42-.2h.34s.18-.02.22-.02c.04 0 .52-.04.52-.04l.14-.08s.04-.1.06-.12c.04-.02.06-.18.06-.18l.08-.16.04-.18-.02-.16-.06-.18-.44-.34-.16-.14-.3-.02-.34-.02-.62.02-.26-.06-.32.08-.82.08-.6.06-.84.22-.16-.02-.1-.54v-.62l.06-.72.04-.72.14-1.04.04-.24.36.04s.32.02.36.02c.06 0 1.26-.2 1.26-.2s1.2-.18 1.26-.18c.04 0 1.1-.1 1.22-.14.14-.02.22-.3.22-.3l.24-.28s.14-.26.14-.54c0-.26-.24-.64-.24-.64l-.36-.32-.4-.12s-.46-.04-.54-.04h-1.5c-.18 0-.9.28-.9.28l-.9.22v-.5l.02-.74-.02-.52-.04-.42s-.02-.78-.02-.86c0-.04-.06-.6-.06-.66 0-.1.1-.2.1-.2s.18.08.34.1c.1.02.88.14.88.14l.54.02s.4.02.46.02c.02 0 .16-.04.34-.08.18-.08 1.02-.28 1.02-.28s.56-.06.58-.06c.04 0 .26-.12.38-.16.14-.04.18-.28.2-.38.04-.14.12-.84.12-.88 0-.06 0-.38-.04-.54-.04-.18-.38-.52-.56-.62-.2-.14-.66-.28-.68-.28-.06 0-.88.1-1.04.14-.14.04-.76.06-.9.06h-.4s-.64.08-.68.08c-.04 0-.3-.08-.42-.1-.12-.04-.56.14-.56.14s-.54.18-.68.22c-.14.04-.26 0-.32 0-.04 0-.52-.02-.64-.02-.16 0-.42.26-.42.26zm16.6 10.28l.2-2.54-.08-.84.04-1.54-.04-2.22-.08-1.9s0-.82-.18-1.24c-.22-.44-1.84-.36-1.88-.36l-2.2-.04-.54.02s-1.68-.08-1.94-.1c-.22 0-.62.14-.64.16-.02 0-.16.14-.16.14s-.06 0-.16.02c-.12.04-.14.44-.14.44l-.08 9.18c-.04.5.08 2.84.14 3.86-.04.1-.18.38-.22.44 0 .06-.14.32-.4.34-.26.06-.84.1-.84.1s-.12.8-.14.96c0 .18.1.56.1.56s.86.5 1.74.22c.84-.28 1.38-1 1.44-1.16.08-.08.12-.34.2-.6.08-.08.12-.2.12-.2l-.08-2.44.18-3.94.08-3.94.2-1.5s.34-.08.8-.12c.44-.04 2.3-.12 2.3-.12l.1 4.02-.08 1.18-.02 2.84.04 3.58s.24.36.38.42c.18.02.42.04 1.04-.08.56-.16.72-.54.74-.62.02-.08.06-2.28.06-2.28v-.7zm5.252-4.44l-1.82.42-.04-1.98.08-1.82.02-.22v-.02s.06-.76.06-.82c0-.06-.06-.74-.06-.78 0-.04-.2-.32-.26-.48-.06-.2-.54-.3-.54-.3h-.06c-.22-.02-.68.18-.74.18-.06 0-.22.02-.28.12-.08.06-.22.4-.22.4s-.06 1.08-.06 1.22c0 .16-.06 4.26-.06 4.52 0 .3.04 2.08.04 2.36 0 0 .16 3.98.16 4.08 0 .1.12.58.36.62.24.02.8.14.8.14s.2.12.2 0c0 0 .04-.12.1-.12.06 0 1.48.7 2.62.42 1.16-.26 3.5-1.2 3.54-3.88 0 0-.26-4.32-3.84-4.06zm-.54 5.72c-1.16.14-1.18-.08-1.18-.08l-.12-3.4.24.22.02-.14.1-.18s.94-.62 1.72.1c.8.72.82 1.14.82 1.74 0 .56-.4 1.6-1.6 1.74z" fill="#fff"/></svg>