<svg preserveAspectRatio="none" viewBox="0 0 88 22" fill="none" xmlns="http://www.w3.org/2000/svg"><path d="M5.332 3.238s-4.221.506-4.164 6.753C1.224 16.24-.63 20.566 4.069 21.488c4.7.922 18.285-.132 27.195-.198s32.36.242 37.515.209c5.154-.033 13.13.384 15.463-1.076 2.333-1.46 4.176-5.787 3.675-9.147-.5-3.36.41-5.885-.546-7.796-.956-1.91-11.128-1.955-36.206-.242-25.067 1.713-27.001.725-32.167.77-5.155.032-11.333-2.23-13.666-.77z" fill="#003A23"/><path d="M4.479 1.251S.257 1.756.314 8.004c.057 6.248-1.798 10.563 2.902 11.486 4.699.922 18.285-.132 27.194-.198 8.91-.066 32.36.242 37.515.209 5.155-.033 13.131.384 15.464-1.076 2.332-1.46 4.175-5.787 3.675-9.147-.5-3.36.41-5.886-.546-7.796-.956-1.91-11.129-1.955-36.207-.242-25.055 1.724-27 .736-32.155.769C12.99 2.053 6.81-.21 4.479 1.25z" fill="#F7941D"/></svg>