<svg preserveAspectRatio="none" width="144" height="30" fill="none" xmlns="http://www.w3.org/2000/svg"><path d="M9.326 5.914s-6.892.539-6.936 8.215c-.044 7.676-3.144 12.98 4.493 14.226 7.637 1.245 29.835.24 44.364.36 14.53.119 52.78 1.017 61.195 1.089 8.415.072 21.41.766 25.256-.982s6.935-7.041 6.19-11.185c-.745-4.143-2.257-5.927-3.769-8.31-1.512-2.383-4.558-5.353-45.099-5.688-40.54-.336-55.091 1.916-63.506 1.844-8.415-.048-18.353-1.306-22.188.43z" fill="#003A23"/><path d="M7.595 2.31S.703 2.847.659 10.523C.615 18.2-2.485 23.505 5.152 24.75c7.637 1.246 29.835.24 44.364.36 14.53.12 52.78 1.018 61.195 1.09 8.415.071 21.41.766 25.256-.982 3.835-1.737 6.935-7.042 6.19-11.185-.745-4.143-2.257-5.928-3.769-8.31-1.512-2.385-4.558-5.355-45.099-5.69C52.75-.3 38.198 1.95 29.783 1.878 21.368 1.806 11.43.573 7.595 2.31z" fill="#F7941D"/></svg>