<svg width="157" height="155" fill="none" xmlns="http://www.w3.org/2000/svg"><path fill-rule="evenodd" clip-rule="evenodd" d="M55.853 11.364l87.669 42.241c2.637 1.27 3.788 4.408 2.552 6.993l-38.458 80.72c-1.236 2.585-4.37 3.665-7.008 2.396L12.94 101.473c-2.638-1.269-3.788-4.408-2.552-6.992l38.471-80.744c1.236-2.584 4.357-3.642 6.994-2.373z" fill="#fff"/><path d="M58.151 30.5a2.829 2.829 0 013.764-1.288l16.09 7.746 2.964-6.179-16.09-7.747c-4.814-2.319-10.616-.31-12.925 4.491L44.899 42.19l6.197 2.977 7.056-14.665zm40.173 94.054c-.67 1.402-2.372 1.984-3.74 1.303l-17.61-8.488-2.964 6.179 17.61 8.488c4.813 2.32 10.615.31 12.924-4.491l7.474-15.502-6.197-2.978-7.497 15.489zM30.306 94.89c-1.405-.672-1.994-2.374-1.316-3.739l7.475-15.502-6.22-2.992-7.474 15.503c-2.31 4.8-.28 10.6 4.534 12.918l16.09 7.747 2.964-6.18-16.053-7.755zm95.863-34.725c1.406.672 1.994 2.374 1.316 3.739l-7.057 14.665 6.197 2.977 7.066-14.628c2.309-4.8.279-10.6-4.535-12.919l-17.609-8.488-2.964 6.18 17.586 8.474zM59.065 81.536l-5.632-2.714-2.702 5.616 5.632 2.714 2.702-5.616zm8.478-3.211l-5.632-2.715-2.702 5.616 5.632 2.715 2.702-5.616zm4.958-22.755l-5.631-2.714-2.703 5.616 5.632 2.714 2.702-5.616zm30.554 14.72l-5.632-2.715-2.702 5.616 5.632 2.714 2.702-5.616zM90.39 96.633l-5.63-2.713-2.703 5.616 5.632 2.714 2.703-5.616z" fill="#1A171D"/><path d="M62.011 89.832l-5.632-2.715-2.702 5.616 5.632 2.715 2.702-5.616zm-11.274-5.428l-5.632-2.715-2.703 5.616 5.632 2.715 2.703-5.616zm5.013-10.451l-5.633-2.714-2.702 5.616 5.632 2.714 2.702-5.616z" fill="#1A171D"/><path d="M68.133 68.008l-9.78-4.699c-2.29-1.12-3.26-3.835-2.145-6.12l4.678-9.75c1.115-2.285 3.832-3.246 6.122-2.126l9.78 4.7c2.29 1.119 3.26 3.835 2.145 6.119l-4.678 9.751c-1.1 2.261-3.855 3.231-6.122 2.125zm18.639 41.429l-9.779-4.7c-2.29-1.119-3.26-3.835-2.146-6.12l4.678-9.75c1.115-2.285 3.832-3.246 6.123-2.126l9.779 4.7c2.29 1.119 3.26 3.835 2.146 6.119l-4.678 9.751a4.546 4.546 0 01-6.123 2.126zM99.46 83.104l-9.78-4.699c-2.29-1.12-3.26-3.835-2.146-6.12l4.678-9.75c1.115-2.285 3.832-3.246 6.123-2.126l9.779 4.7c2.291 1.119 3.261 3.835 2.146 6.119l-4.678 9.751c-1.101 2.261-3.855 3.231-6.123 2.125z" stroke="#1A171D" stroke-width="2.108" stroke-miterlimit="10"/></svg>