<svg preserveAspectRatio="none" width="193" height="56" fill="none" xmlns="http://www.w3.org/2000/svg"><path d="M12.492 10.852s-9.231.989-9.29 15.075c-.059 14.086-4.212 23.82 6.017 26.106 10.23 2.286 39.966.44 59.428.66 19.461.22 70.698 1.867 81.97 2 11.272.131 28.679 1.406 33.831-1.803 5.151-3.208 9.29-12.921 8.292-20.524-.998-7.604-3.023-10.878-5.049-15.251-2.025-4.373-6.105-9.823-60.41-10.438-54.305-.616-73.796 3.516-85.068 3.384-11.272-.088-24.584-2.395-29.72.791z" fill="#003A23"/><path d="M10.174 4.238S.942 5.227.884 19.313C.823 33.399-3.33 43.133 6.9 45.419c10.23 2.285 39.965.44 59.427.66 19.461.219 70.699 1.867 81.97 1.999 11.272.132 28.679 1.406 33.831-1.802 5.137-3.186 9.29-12.921 8.292-20.525-.998-7.603-3.023-10.877-5.049-15.25-2.025-4.373-6.105-9.823-60.41-10.438-54.305-.616-73.796 3.516-85.068 3.384-11.271-.132-24.584-2.396-29.72.79z" fill="#F7941D"/></svg>